<?xml version="1.0" encoding="UTF-8"?>
<!DOCTYPE svg PUBLIC "-//W3C//DTD SVG 1.1//EN" "http://www.w3.org/Graphics/SVG/1.1/DTD/svg11.dtd">
<!-- Creator: CorelDRAW 2018 (64-Bit) -->
<svg xmlns="http://www.w3.org/2000/svg" xml:space="preserve" width="115.981mm" height="21.748mm" version="1.1" style="shape-rendering:geometricPrecision; text-rendering:geometricPrecision; image-rendering:optimizeQuality; fill-rule:evenodd; clip-rule:evenodd"
viewBox="0 0 12579.7 2358.87"
 xmlns:xlink="http://www.w3.org/1999/xlink">
 <defs>
  <style type="text/css">
   <![CDATA[
    .fil0 {fill:#D11C69;fill-rule:nonzero}
   ]]>
  </style>
 </defs>
 <g id="Слой_x0020_1">
  <metadata id="CorelCorpID_0Corel-Layer"/>
  <g id="_892564448">
   <path class="fil0" d="M1685.98 871.13c-67.96,90.62 -151.66,181.87 -251.1,273.76 -99.43,91.88 -210.19,171.81 -332.29,239.77 -91.88,50.35 -184.39,89.68 -277.54,118 -93.14,28.32 -182.19,45.32 -267.15,50.98 -84.96,5.66 -163.94,-0.63 -236.94,-18.87 -73.01,-18.25 -135.94,-48.15 -188.8,-89.69 -47.83,-37.76 -81.5,-84.65 -101.01,-140.66 -19.5,-56.01 -29.89,-116.74 -31.15,-182.19 1.26,-3.77 4.4,-8.49 9.45,-14.17 5.03,-5.66 11.01,-11.32 17.93,-16.99 6.92,-5.66 13.22,-11.02 18.88,-16.05 5.66,-5.03 10.38,-7.55 14.15,-7.55 5.04,20.14 11.96,43.1 20.77,68.91 8.81,25.8 19.83,51.92 33.04,78.35 13.22,26.43 28.32,52.55 45.32,78.35 16.99,25.8 36.18,49.41 57.58,70.79 47.83,45.32 104.79,78.04 170.86,98.18 66.08,20.14 137.82,28.32 215.24,24.55 77.4,-3.77 158.58,-18.88 243.54,-45.32 84.96,-26.43 170.86,-63.56 257.71,-111.39 109.5,-60.41 208.94,-131.52 298.31,-213.34 89.36,-81.81 162.37,-167.4 219.01,-256.77 -15.11,-2.53 -31.15,-5.99 -48.15,-10.39 -17,-4.4 -36.5,-8.18 -58.53,-11.32 -22.03,-3.15 -47.52,-4.72 -76.47,-4.72 -28.95,0 -63.56,2.52 -103.83,7.55 -64.2,8.81 -123.98,16.36 -179.37,22.66 -55.38,6.29 -103.83,9.44 -145.37,9.44 -16.37,0 -32.41,-3.46 -48.15,-10.38 -15.73,-6.93 -29.89,-14.79 -42.47,-23.6 -12.59,-8.82 -22.66,-17.94 -30.21,-27.38 -7.55,-9.44 -11.96,-16.68 -13.22,-21.71 0,-3.77 5.03,-5.66 15.11,-5.66 3.77,0 10.07,0.31 18.88,0.94 8.81,0.63 18.56,1.57 29.26,2.83 10.69,1.26 21.7,2.52 33.04,3.77 11.32,1.26 21.39,1.89 30.21,1.89 12.58,0 31.78,-0.94 57.58,-2.83 25.8,-1.89 54.12,-4.09 84.96,-6.61 30.84,-2.52 61.99,-5.35 93.45,-8.49 31.47,-3.16 59.79,-5.99 84.96,-8.5 44.06,-2.52 86.22,-2.52 126.5,0 40.27,2.52 75.51,6.29 105.72,11.33 35.25,5.03 67.97,12.58 98.18,22.65 33.98,-60.41 59.16,-118.63 75.52,-174.64 16.36,-56.01 25.16,-113.59 26.43,-172.75 2.52,-130.9 -32.42,-228.45 -104.79,-292.64 -72.38,-64.2 -177.79,-91.25 -316.24,-81.19 -56.64,3.77 -118.01,18.57 -184.08,44.36 -66.08,25.8 -133.74,59.8 -202.96,101.96 -69.23,42.17 -137.82,91.88 -205.79,149.15 -67.97,57.27 -132.16,119.9 -192.58,187.86 -5.03,6.29 -11.96,9.12 -20.77,8.49 -8.81,-0.63 -14.48,-2.83 -17,-6.61 70.49,-96.91 147.9,-179.67 232.23,-248.27 84.33,-68.59 167.09,-125.23 248.26,-169.92 81.19,-44.68 156.71,-78.35 226.56,-101 69.86,-22.66 125.56,-36.51 167.09,-41.54 66.72,-7.55 128.7,-5.66 185.97,5.66 57.27,11.33 106.99,33.68 149.15,67.03 42.17,33.35 75.21,77.73 99.13,133.1 23.92,55.38 35.87,122.73 35.87,202.02 0,65.45 -11.01,132.15 -33.04,200.13 -22.03,67.96 -56.95,137.82 -104.79,209.56 7.55,2.52 14.17,5.03 19.83,7.55 5.66,2.53 11.64,5.04 17.94,7.56 32.72,17.61 49.08,33.35 49.08,47.19 0,6.3 -4.72,8.82 -14.15,7.56 -9.45,-1.26 -21.09,-3.77 -34.93,-7.56 -6.3,-2.52 -16.05,-5.35 -29.27,-8.49 -13.21,-3.15 -26.74,-4.72 -40.59,-4.72zm1247.96 507.87c1.26,3.77 0.94,7.86 -0.94,12.27 -1.89,4.41 -4.72,6.62 -8.49,6.62 -62.93,32.72 -116.42,59.47 -160.48,80.23 -44.05,20.77 -82.13,37.14 -114.22,49.09 -32.09,11.96 -60.41,20.77 -84.96,26.43 -24.55,5.66 -48.78,8.49 -72.68,8.49 -71.75,2.53 -108.88,-32.72 -111.39,-105.72 0,-25.17 3.15,-49.72 9.44,-73.64 6.29,-23.92 16.37,-48.46 30.21,-73.64 -8.81,0 -21.71,4.41 -38.7,13.22 -17,8.81 -33.67,17.63 -50.03,26.43 -59.16,26.43 -112.96,56.33 -161.43,89.68 -48.46,33.35 -89.68,60.1 -123.66,80.24 -59.16,32.72 -95.04,49.09 -107.62,49.09 -25.17,0 -37.76,-11.33 -37.76,-33.99 0,-20.13 16.99,-52.85 50.97,-98.17 21.4,-25.17 42.17,-50.03 62.31,-74.58 20.13,-24.55 41.53,-50.02 64.19,-76.46 -144.74,90.62 -255.51,158.58 -332.29,203.9 -76.78,45.31 -118.94,68.59 -126.49,69.85 -20.14,0 -30.21,-8.18 -30.21,-24.55 7.55,-7.55 16.36,-17.61 26.43,-30.21 8.81,-10.07 19.82,-22.33 33.04,-36.81 13.21,-14.47 28.63,-31.15 46.25,-50.03 36.51,-39.01 64.83,-72.05 84.96,-99.11 20.14,-27.06 28.32,-45.63 24.55,-55.7 -1.26,-5.03 -5.66,-7.23 -13.21,-6.61 -7.56,0.63 -12.59,2.2 -15.11,4.72 -3.77,1.26 -9.44,2.83 -16.99,4.72 -7.56,1.89 -15.11,3.77 -22.66,5.66 -7.55,1.89 -14.48,2.52 -20.77,1.89 -6.29,-0.63 -10.07,-3.46 -11.32,-8.49 -2.52,-5.03 1.26,-11.96 11.32,-20.77 10.07,-8.81 22.66,-17.93 37.76,-27.38 15.11,-9.44 30.53,-17.61 46.26,-24.55 15.74,-6.92 28.01,-11.01 36.81,-12.27 21.4,0 38.71,4.4 51.92,13.21 13.22,8.82 16.05,27.69 8.5,56.64 -2.53,20.14 -15.11,44.69 -37.77,73.64 -22.66,28.95 -46.56,58.53 -71.74,88.73 86.85,-52.87 175.58,-105.73 266.2,-158.6 45.32,-26.42 78.67,-39.64 100.07,-39.64 32.72,0 49.08,11.96 49.08,35.87 0,17.63 -20.13,49.09 -60.41,94.41 -23.92,26.43 -43.42,49.08 -58.53,67.96 -15.1,18.88 -26.43,35.24 -33.98,49.09 185.03,-112.02 302.71,-180 353.05,-203.9 66.72,-32.73 115.81,-49.72 147.27,-50.98 8.81,0 13.21,7.55 13.21,22.66 -3.77,6.29 -8.18,13.21 -13.21,20.76 -5.03,6.3 -10.39,14.48 -16.05,24.55 -5.66,10.08 -12.9,22.03 -21.71,35.87 -32.72,51.61 -49.08,93.78 -49.08,126.5 0,49.09 23.28,74.27 69.85,75.52 18.88,0 37.44,-1.57 55.7,-4.73 18.25,-3.15 40.6,-9.75 67.02,-19.82 26.43,-10.08 59.8,-24.23 100.07,-42.49 40.27,-18.24 92.51,-43.1 156.71,-74.57 2.52,-1.26 5.98,-1.89 10.38,-1.89 4.4,0 7.86,3.77 10.38,11.32zm668.35 -17c0,5.04 -0.31,9.13 -0.94,12.28 -0.63,3.15 -2.84,6.61 -6.62,10.38 -69.22,52.87 -132.15,88.11 -188.79,105.73 -56.64,17.63 -109.5,27.69 -158.6,30.21 -32.72,1.26 -64.19,-10.69 -94.4,-35.87 -36.51,31.47 -73.95,56.33 -112.34,74.57 -38.4,18.25 -79.61,28.63 -123.67,31.15 -27.69,1.27 -50.66,-4.72 -68.91,-17.93 -18.25,-13.22 -27.38,-33.04 -27.38,-59.47 0,-66.72 48.46,-142.23 145.37,-226.56 47.83,-40.28 92.51,-69.86 134.05,-88.73 41.53,-18.88 77.41,-28.32 107.62,-28.32 64.19,0 96.28,30.21 96.28,90.62 0,32.72 -8.81,65.45 -26.43,98.17 -17.63,32.72 -46.57,65.46 -86.85,98.18 16.37,16.36 37.13,24.55 62.3,24.55 17.63,0 37.14,-1.26 58.53,-3.79 21.4,-2.52 45.32,-7.86 71.75,-16.04 26.43,-8.18 56.01,-20.77 88.73,-37.76 32.72,-17 69.22,-39.97 109.5,-68.92 3.77,-2.52 8.18,-3.77 13.21,-3.77 5.03,0 7.56,3.77 7.56,11.32zm-326.63 -117.05c0,-11.32 -2.2,-19.5 -6.61,-24.55 -4.4,-5.03 -13.54,-8.18 -27.38,-9.44 -26.43,0 -50.03,12.27 -70.81,36.81 -20.76,24.55 -32.41,51.92 -34.93,82.13 0,46.57 8.81,77.41 26.43,92.52 75.52,-60.43 113.28,-119.58 113.28,-177.48zm-141.6 207.69c-12.58,-12.59 -21.4,-27.69 -26.43,-45.32 -5.03,-17.63 -7.23,-35.87 -6.61,-54.75 0.63,-18.88 3.77,-38.07 9.44,-57.58 5.66,-19.51 12.28,-38.07 19.83,-55.7 -22.66,5.03 -46.89,15.11 -72.69,30.21 -25.8,15.11 -49.72,32.72 -71.74,52.87 -22.03,20.14 -40.6,41.85 -55.7,65.13 -15.11,23.29 -24.55,46.26 -28.32,68.92 -2.52,22.66 1.89,39.64 13.21,50.98 11.33,11.32 26.43,17.61 45.32,18.87 52.87,0 110.76,-24.55 173.69,-73.63zm2193.85 -92.52c5.03,-2.52 9.75,-5.35 14.15,-8.49 4.41,-3.15 7.87,-0.94 10.39,6.61 3.77,8.82 0.63,17 -9.45,24.55 -45.31,33.98 -90.94,64.5 -136.87,91.57 -45.95,27.06 -90,49.72 -132.16,67.97 -42.17,18.24 -80.87,31.78 -116.11,40.59 -35.25,8.82 -64.83,12.59 -88.73,11.33 -15.11,-1.26 -30.52,-5.04 -46.26,-11.33 -15.74,-6.29 -29.58,-15.73 -41.54,-28.32 -11.95,-12.58 -21.7,-28.95 -29.26,-49.09 -7.55,-20.13 -10.69,-44.68 -9.44,-73.63 -15.1,16.36 -33.35,32.72 -54.75,49.09 -21.4,16.36 -44.05,30.84 -67.96,43.42 -23.92,12.59 -47.2,22.66 -69.86,30.21 -22.66,7.55 -42.79,11.33 -60.41,11.33 -20.14,0 -39.01,-6.62 -56.64,-19.83 -17.63,-13.22 -26.43,-34.3 -26.43,-63.25 -1.26,-42.8 17.63,-84.96 56.64,-126.5 17.63,-18.87 44.69,-41.85 81.19,-68.91 36.5,-27.06 83.07,-58.84 139.71,-95.35 7.55,0 12.58,2.83 15.11,8.5 2.52,5.66 1.89,12.27 -1.9,19.82 -16.36,10.08 -32.72,20.77 -49.08,32.09 -16.37,11.33 -33.35,23.92 -50.98,37.77 -31.47,26.43 -54.44,51.29 -68.92,74.57 -14.47,23.29 -22.96,45.63 -25.48,67.03 -3.79,37.76 8.18,59.79 35.87,66.08 22.66,5.03 48.78,-0.94 78.35,-17.93 29.58,-17 63.25,-40.6 101,-70.81 13.85,-11.32 31.15,-28.32 51.92,-50.98 20.77,-22.66 45.63,-53.49 74.58,-92.51 44.05,-57.9 76.14,-86.85 96.28,-86.85 16.37,0 25.17,6.92 26.43,20.77 0,13.84 -23.92,42.79 -71.74,86.85 -45.32,42.79 -67.97,79.3 -67.97,109.5 0,42.79 7.23,73.63 21.71,92.51 14.47,18.88 34.3,32.72 59.47,41.53 35.24,11.33 74.58,10.08 118,-3.77 43.43,-13.84 91.57,-34.61 144.43,-62.3 21.4,-11.32 46.57,-25.17 75.52,-41.53 28.95,-16.37 56.01,-37.14 81.19,-62.31zm422.91 188.8c-71.75,0 -107.62,-37.76 -107.62,-113.28 0,-13.85 2.52,-30.21 7.55,-49.09 5.03,-18.87 10.69,-33.35 17,-43.42 -22.66,13.84 -47.2,25.49 -73.64,34.93 -26.43,9.44 -52.87,17.94 -79.3,25.49 -26.43,7.55 -52.55,14.47 -78.35,20.77 -25.79,6.29 -50.02,13.21 -72.68,20.76 -11.33,13.85 -23.6,28.01 -36.81,42.49 -13.22,14.47 -25.8,27.38 -37.77,38.7 -11.95,11.33 -22.34,20.77 -31.15,28.32 -8.81,7.55 -14.47,11.33 -16.99,11.33 -1.27,0 -5.67,-2.2 -13.22,-6.62 -7.55,-4.4 -11.32,-9.12 -11.32,-14.15 0,-8.81 5.66,-23.29 16.99,-43.43 11.33,-20.13 29.58,-47.82 54.75,-83.07 20.14,-30.21 35.87,-54.75 47.2,-73.63 11.32,-18.88 20.14,-34.61 26.43,-47.2 6.29,-12.58 11.64,-23.6 16.04,-33.04 4.41,-9.44 11.02,-19.83 19.83,-31.15 5.03,-7.55 15.11,-13.85 30.21,-18.88 15.11,-5.03 25.8,-8.81 32.09,-11.32 13.85,0 23.6,3.77 29.26,11.32 5.67,7.55 6.62,17 2.83,28.32 -5.03,13.85 -18.24,33.04 -39.64,57.58 -21.4,24.55 -42.16,56.95 -62.3,97.24 18.87,-6.3 41.22,-13.22 67.02,-20.77 25.8,-7.55 52.55,-15.74 80.24,-24.55 27.69,-8.81 54.75,-17.94 81.19,-27.38 26.43,-9.44 49.72,-19.2 69.85,-29.26 23.92,-30.21 48.78,-54.75 74.58,-73.64 25.8,-18.87 46.26,-28.32 61.36,-28.32 6.29,0 11.33,8.19 15.11,24.55 0,0 -19.51,23.29 -58.53,69.86 -36.51,45.31 -55.38,88.11 -56.64,128.38 0,45.32 31.47,70.49 94.4,75.52 13.85,1.26 33.67,0 59.47,-3.77 25.8,-3.77 56.01,-11.02 90.62,-21.71 34.62,-10.69 72.06,-24.86 112.34,-42.47 40.28,-17.63 81.19,-40.28 122.73,-67.97 2.52,0 5.66,-0.31 9.44,-0.94 3.77,-0.63 6.92,2.83 9.44,10.39 2.52,3.77 2.52,7.55 0,11.32 -2.52,3.77 -5.03,6.92 -7.55,9.44 -95.65,56.64 -181.56,97.87 -257.71,123.67 -76.15,25.8 -145.06,38.7 -206.73,38.7zm1797.36 -169.92c1.26,3.77 0.94,7.86 -0.94,12.27 -1.89,4.41 -4.72,6.62 -8.49,6.62 -62.93,32.72 -116.42,59.47 -160.48,80.23 -44.05,20.77 -82.13,37.14 -114.22,49.09 -32.09,11.96 -60.41,20.77 -84.96,26.43 -24.55,5.66 -48.78,8.49 -72.68,8.49 -71.75,2.53 -108.88,-32.72 -111.39,-105.72 0,-25.17 3.15,-49.72 9.44,-73.64 6.29,-23.92 16.37,-48.46 30.21,-73.64 -8.81,0 -21.71,4.41 -38.7,13.22 -17,8.81 -33.67,17.63 -50.03,26.43 -59.16,26.43 -112.96,56.33 -161.43,89.68 -48.46,33.35 -89.68,60.1 -123.66,80.24 -59.16,32.72 -95.04,49.09 -107.62,49.09 -25.17,0 -37.76,-11.33 -37.76,-33.99 0,-20.13 16.99,-52.85 50.97,-98.17 21.4,-25.17 42.17,-50.03 62.31,-74.58 20.13,-24.55 41.53,-50.02 64.19,-76.46 -144.74,90.62 -255.51,158.58 -332.29,203.9 -76.78,45.31 -118.94,68.59 -126.49,69.85 -20.14,0 -30.21,-8.18 -30.21,-24.55 7.55,-7.55 16.36,-17.61 26.43,-30.21 8.81,-10.07 19.82,-22.33 33.04,-36.81 13.21,-14.47 28.63,-31.15 46.25,-50.03 36.51,-39.01 64.83,-72.05 84.96,-99.11 20.14,-27.06 28.32,-45.63 24.55,-55.7 -1.26,-5.03 -5.66,-7.23 -13.21,-6.61 -7.56,0.63 -12.59,2.2 -15.11,4.72 -3.77,1.26 -9.44,2.83 -16.99,4.72 -7.56,1.89 -15.11,3.77 -22.66,5.66 -7.55,1.89 -14.48,2.52 -20.77,1.89 -6.29,-0.63 -10.07,-3.46 -11.32,-8.49 -2.52,-5.03 1.26,-11.96 11.32,-20.77 10.07,-8.81 22.66,-17.93 37.76,-27.38 15.11,-9.44 30.53,-17.61 46.26,-24.55 15.74,-6.92 28.01,-11.01 36.81,-12.27 21.4,0 38.71,4.4 51.92,13.21 13.22,8.82 16.05,27.69 8.5,56.64 -2.53,20.14 -15.11,44.69 -37.77,73.64 -22.66,28.95 -46.56,58.53 -71.74,88.73 86.85,-52.87 175.58,-105.73 266.2,-158.6 45.32,-26.42 78.67,-39.64 100.07,-39.64 32.72,0 49.08,11.96 49.08,35.87 0,17.63 -20.13,49.09 -60.41,94.41 -23.92,26.43 -43.42,49.08 -58.53,67.96 -15.1,18.88 -26.43,35.24 -33.98,49.09 185.03,-112.02 302.71,-180 353.05,-203.9 66.72,-32.73 115.81,-49.72 147.27,-50.98 8.81,0 13.21,7.55 13.21,22.66 -3.77,6.29 -8.18,13.21 -13.21,20.76 -5.03,6.3 -10.39,14.48 -16.05,24.55 -5.66,10.08 -12.9,22.03 -21.71,35.87 -32.72,51.61 -49.08,93.78 -49.08,126.5 0,49.09 23.28,74.27 69.85,75.52 18.88,0 37.44,-1.57 55.7,-4.73 18.25,-3.15 40.6,-9.75 67.02,-19.82 26.43,-10.08 59.8,-24.23 100.07,-42.49 40.27,-18.24 92.51,-43.1 156.71,-74.57 2.52,-1.26 5.98,-1.89 10.38,-1.89 4.4,0 7.86,3.77 10.38,11.32zm458.78 -22.66c1.26,8.81 -0.63,15.74 -5.66,20.77 -104.47,67.96 -195.09,118 -271.88,150.09 -76.77,32.09 -150.41,48.78 -220.9,50.03 -86.85,0 -130.89,-44.69 -132.15,-134.05 0,-55.38 32.09,-120.2 96.28,-194.46 66.72,-70.48 124.61,-106.35 173.69,-107.61 11.33,0 23.92,2.83 37.77,8.49 13.84,5.66 22.02,21.71 24.55,48.15 0,11.32 -3.16,22.65 -9.45,33.98 -6.29,11.32 -14.78,22.97 -25.49,34.93 -10.69,11.95 -22.65,23.92 -35.87,35.87 -13.21,11.96 -26.12,22.97 -38.7,33.04 -18.88,17.63 -39.65,34.31 -62.31,50.03 -22.65,15.74 -48.45,31.15 -77.4,46.26 -2.52,16.36 -0.63,28.01 5.66,34.93 6.29,6.92 16.36,15.42 30.21,25.49 21.4,13.84 44.69,20.77 69.85,20.77 41.54,0 98.5,-11.02 170.87,-33.04 72.37,-22.03 156.38,-65.14 252.04,-129.33 3.79,-3.77 7.87,-5.35 12.28,-4.72 4.4,0.63 6.61,4.09 6.61,10.38zm-381.37 -137.82c0,-6.29 -8.19,-11.32 -24.55,-15.1 -21.4,0 -49.72,19.5 -84.96,58.53 -17.63,17.61 -30.84,36.5 -39.65,56.64 -8.81,20.14 -13.21,37.13 -13.21,50.98 2.52,0 10.69,-2.2 24.55,-6.62 13.84,-4.4 25.17,-9.75 33.98,-16.04 32.72,-18.88 57.58,-40.6 74.58,-65.13 16.99,-24.55 26.75,-45.63 29.26,-63.26zm870.36 -387.03c0,1.26 -132.78,153.55 -398.37,456.89 23.92,-12.59 47.83,-25.17 71.75,-37.77 23.92,-12.58 48.46,-25.79 73.63,-39.64 60.43,-26.43 115.18,-40.27 164.26,-41.53 52.87,0 81.19,23.28 84.96,69.85 0,30.21 -25.17,72.38 -75.51,126.5 -23.92,25.16 -50.35,48.14 -79.3,68.91 -28.95,20.77 -61.67,41.85 -98.18,63.25 -73,37.77 -131.52,57.27 -175.58,58.53 -10.07,0 -18.25,-1.89 -24.55,-5.66 -6.29,-3.77 -12.58,-8.81 -18.87,-15.1 -11.33,-11.33 -17,-25.8 -17,-43.43 0,-35.24 11.95,-54.12 35.87,-56.64 12.59,0 20.77,3.77 24.55,11.32 3.77,5.04 8.81,13.85 15.11,26.43 8.81,18.88 28.32,28.32 58.53,28.32 39.01,0 94.4,-30.21 166.14,-90.62 73,-56.64 109.5,-106.99 109.5,-151.04 0,-20.14 -22.66,-32.09 -67.97,-35.88 -42.79,0 -86.22,13.85 -130.28,41.54 -17.61,11.32 -43.73,30.84 -78.34,58.53 -34.62,27.69 -77.73,63.56 -129.33,107.62 -65.45,55.38 -132.79,121.14 -202.01,197.3 -69.23,76.15 -141.6,164.57 -217.12,265.26 -128.38,178.74 -198.24,293.28 -209.56,343.61l0 67.97c0,17.61 -6.29,30.21 -18.88,37.76 -10.07,7.55 -22.03,12.59 -35.87,15.11 -7.55,0 -14.79,-0.63 -21.71,-1.89 -6.92,-1.26 -13.53,-4.4 -19.83,-9.45 -12.58,-6.29 -20.76,-16.99 -24.53,-32.09 0,-22.66 8.18,-42.79 24.53,-60.41 13.85,-25.17 24.86,-43.73 33.05,-55.7 8.18,-11.95 12.9,-19.2 14.15,-21.71 40.27,-74.25 98.81,-162.36 175.58,-264.32 76.78,-101.96 172.44,-219.64 286.97,-353.06 54.12,-64.19 134.36,-156.07 240.72,-275.64 106.36,-119.58 241.98,-268.73 406.86,-447.46 16.37,-16.37 30.22,-25.17 41.54,-26.43 6.29,0 11.32,6.92 15.1,20.77zm621.15 524.86c1.26,8.81 -0.63,15.74 -5.66,20.77 -104.47,67.96 -195.09,118 -271.88,150.09 -76.77,32.09 -150.41,48.78 -220.9,50.03 -86.85,0 -130.89,-44.69 -132.15,-134.05 0,-55.38 32.09,-120.2 96.28,-194.46 66.72,-70.48 124.61,-106.35 173.69,-107.61 11.33,0 23.92,2.83 37.77,8.49 13.84,5.66 22.02,21.71 24.55,48.15 0,11.32 -3.16,22.65 -9.45,33.98 -6.29,11.32 -14.78,22.97 -25.49,34.93 -10.69,11.95 -22.65,23.92 -35.87,35.87 -13.21,11.96 -26.12,22.97 -38.7,33.04 -18.88,17.63 -39.65,34.31 -62.31,50.03 -22.65,15.74 -48.45,31.15 -77.4,46.26 -2.52,16.36 -0.63,28.01 5.66,34.93 6.29,6.92 16.36,15.42 30.21,25.49 21.4,13.84 44.69,20.77 69.85,20.77 41.54,0 98.5,-11.02 170.87,-33.04 72.37,-22.03 156.38,-65.14 252.04,-129.33 3.79,-3.77 7.87,-5.35 12.28,-4.72 4.4,0.63 6.61,4.09 6.61,10.38zm-381.37 -137.82c0,-6.29 -8.19,-11.32 -24.55,-15.1 -21.4,0 -49.72,19.5 -84.96,58.53 -17.63,17.61 -30.84,36.5 -39.65,56.64 -8.81,20.14 -13.21,37.13 -13.21,50.98 2.52,0 10.69,-2.2 24.55,-6.62 13.84,-4.4 25.17,-9.75 33.98,-16.04 32.72,-18.88 57.58,-40.6 74.58,-65.13 16.99,-24.55 26.75,-45.63 29.26,-63.26zm1023.29 137.82c8.81,-8.81 15.73,-6.92 20.77,5.66 0,11.33 -3.15,18.25 -9.45,20.77 -84.33,57.9 -170.86,108.25 -259.6,151.04 -88.73,42.8 -180.93,64.83 -276.59,66.09 -25.17,0 -48.77,-3.15 -70.79,-9.45 -22.03,-6.29 -41.23,-15.73 -57.58,-28.32 -16.37,-12.58 -28.95,-28.63 -37.77,-48.14 -8.81,-19.51 -11.95,-42.49 -9.44,-68.92 3.77,-32.72 14.48,-67.02 32.09,-102.89 17.63,-35.88 49.09,-72.06 94.41,-108.56 22.65,-18.88 46.56,-35.87 71.74,-50.98 25.17,-15.11 50.66,-28.32 76.47,-39.64 25.8,-11.33 50.66,-20.14 74.57,-26.43 23.92,-6.3 45.95,-10.08 66.09,-11.33 40.27,0 61.67,18.88 64.19,56.64 0,17.63 -7.23,35.25 -21.71,52.87 -14.47,17.63 -32.41,33.67 -53.81,48.15 -21.39,14.47 -44.68,26.75 -69.85,36.81 -25.17,10.08 -47.83,15.74 -67.97,17 -13.84,0 -23.59,-1.89 -29.26,-5.66 -5.66,-3.79 -9.75,-8.82 -12.27,-15.11 -7.55,-17.63 -4.72,-31.15 8.49,-40.59 13.22,-9.45 29.26,-14.17 48.15,-14.17 2.52,0 8.81,0.94 18.88,2.83 10.07,1.89 23.92,4.09 41.53,6.61 7.55,1.26 16.68,-0.63 27.38,-5.66 10.71,-5.03 20.14,-11.32 28.32,-18.87 8.18,-7.56 14.17,-16.05 17.94,-25.49 3.77,-9.45 3.77,-17.94 0,-25.49 -6.29,-8.82 -11.96,-14.17 -17,-16.05 -5.03,-1.89 -15.73,-2.83 -32.09,-2.83 -23.92,0 -52.55,7.55 -85.9,22.66 -33.35,15.1 -67.02,37.76 -101.01,67.96 -64.19,61.67 -96.28,115.8 -96.28,162.37 0,42.8 14.15,74.58 42.49,95.34 28.32,20.77 68.91,31.16 121.77,31.16 39.01,0 86.53,-8.5 142.54,-25.49 56.01,-17 111.08,-38.71 165.2,-65.14 17.61,-8.81 32.41,-16.99 44.36,-24.55 11.96,-7.55 22.97,-14.47 33.04,-20.76 10.08,-6.3 20.14,-12.91 30.22,-19.83 10.07,-6.92 22.65,-14.79 37.76,-23.6z"/>
   <path class="fil0" d="M10176.28 1548.92c-71.75,0 -107.62,-37.76 -107.62,-113.28 0,-13.85 2.52,-30.21 7.55,-49.09 5.03,-18.87 10.69,-33.35 17,-43.42 -22.66,13.84 -47.2,25.49 -73.64,34.93 -26.43,9.44 -52.87,17.94 -79.3,25.49 -26.43,7.55 -52.55,14.47 -78.35,20.77 -25.79,6.29 -50.02,13.21 -72.68,20.76 -11.33,13.85 -23.6,28.01 -36.81,42.49 -13.22,14.47 -25.8,27.38 -37.77,38.7 -11.95,11.33 -22.34,20.77 -31.15,28.32 -8.81,7.55 -14.47,11.33 -16.99,11.33 -1.27,0 -5.67,-2.2 -13.22,-6.62 -7.55,-4.4 -11.32,-9.12 -11.32,-14.15 0,-8.81 5.66,-23.29 16.99,-43.43 11.33,-20.13 29.58,-47.82 54.75,-83.07 20.14,-30.21 35.87,-54.75 47.2,-73.63 11.32,-18.88 20.14,-34.61 26.43,-47.2 6.29,-12.58 11.64,-23.6 16.04,-33.04 4.41,-9.44 11.02,-19.83 19.83,-31.15 5.03,-7.55 15.11,-13.85 30.21,-18.88 15.11,-5.03 25.8,-8.81 32.09,-11.32 13.85,0 23.6,3.77 29.26,11.32 5.67,7.55 6.62,17 2.83,28.32 -5.03,13.85 -18.24,33.04 -39.64,57.58 -21.4,24.55 -42.16,56.95 -62.3,97.24 18.87,-6.3 41.22,-13.22 67.02,-20.77 25.8,-7.55 52.55,-15.74 80.24,-24.55 27.69,-8.81 54.75,-17.94 81.19,-27.38 26.43,-9.44 49.72,-19.2 69.85,-29.26 23.92,-30.21 48.78,-54.75 74.58,-73.64 25.8,-18.87 46.26,-28.32 61.36,-28.32 6.29,0 11.33,8.19 15.11,24.55 0,0 -19.51,23.29 -58.53,69.86 -36.51,45.31 -55.38,88.11 -56.64,128.38 0,45.32 31.47,70.49 94.4,75.52 13.85,1.26 33.67,0 59.47,-3.77 25.8,-3.77 56.01,-11.02 90.62,-21.71 34.62,-10.69 72.06,-24.86 112.34,-42.47 40.28,-17.63 81.19,-40.28 122.73,-67.97 2.52,0 5.66,-0.31 9.44,-0.94 3.77,-0.63 6.92,2.83 9.44,10.39 2.52,3.77 2.52,7.55 0,11.32 -2.52,3.77 -5.03,6.92 -7.55,9.44 -95.65,56.64 -181.56,97.87 -257.71,123.67 -76.15,25.8 -145.06,38.7 -206.73,38.7zm1157.34 -186.92c0,5.04 -0.31,9.13 -0.94,12.28 -0.63,3.15 -2.84,6.61 -6.62,10.38 -69.22,52.87 -132.15,88.11 -188.79,105.73 -56.64,17.63 -109.5,27.69 -158.6,30.21 -32.72,1.26 -64.19,-10.69 -94.4,-35.87 -36.51,31.47 -73.95,56.33 -112.34,74.57 -38.4,18.25 -79.61,28.63 -123.67,31.15 -27.69,1.27 -50.66,-4.72 -68.91,-17.93 -18.25,-13.22 -27.38,-33.04 -27.38,-59.47 0,-66.72 48.46,-142.23 145.37,-226.56 47.83,-40.28 92.51,-69.86 134.05,-88.73 41.53,-18.88 77.41,-28.32 107.62,-28.32 64.19,0 96.28,30.21 96.28,90.62 0,32.72 -8.81,65.45 -26.43,98.17 -17.63,32.72 -46.57,65.46 -86.85,98.18 16.37,16.36 37.13,24.55 62.3,24.55 17.63,0 37.14,-1.26 58.53,-3.79 21.4,-2.52 45.32,-7.86 71.75,-16.04 26.43,-8.18 56.01,-20.77 88.73,-37.76 32.72,-17 69.22,-39.97 109.5,-68.92 3.77,-2.52 8.18,-3.77 13.21,-3.77 5.03,0 7.56,3.77 7.56,11.32zm-326.63 -117.05c0,-11.32 -2.2,-19.5 -6.61,-24.55 -4.4,-5.03 -13.54,-8.18 -27.38,-9.44 -26.43,0 -50.03,12.27 -70.81,36.81 -20.76,24.55 -32.41,51.92 -34.93,82.13 0,46.57 8.81,77.41 26.43,92.52 75.52,-60.43 113.28,-119.58 113.28,-177.48zm-141.6 207.69c-12.58,-12.59 -21.4,-27.69 -26.43,-45.32 -5.03,-17.63 -7.23,-35.87 -6.61,-54.75 0.63,-18.88 3.77,-38.07 9.44,-57.58 5.66,-19.51 12.28,-38.07 19.83,-55.7 -22.66,5.03 -46.89,15.11 -72.69,30.21 -25.8,15.11 -49.72,32.72 -71.74,52.87 -22.03,20.14 -40.6,41.85 -55.7,65.13 -15.11,23.29 -24.55,46.26 -28.32,68.92 -2.52,22.66 1.89,39.64 13.21,50.98 11.33,11.32 26.43,17.61 45.32,18.87 52.87,0 110.76,-24.55 173.69,-73.63zm713.66 24.53c0,42.8 -29.58,64.83 -88.73,66.09 -52.87,0 -79.93,-22.03 -81.19,-66.09 0,-44.05 27.69,-66.08 83.07,-66.08 21.4,0 41.54,6.92 60.41,20.77 16.37,10.07 25.17,25.17 26.43,45.31zm500.32 0c0,42.8 -29.58,64.83 -88.73,66.09 -52.87,0 -79.93,-22.03 -81.19,-66.09 0,-44.05 27.69,-66.08 83.07,-66.08 21.4,0 41.54,6.92 60.41,20.77 16.37,10.07 25.17,25.17 26.43,45.31zm500.32 0c0,42.8 -29.58,64.83 -88.73,66.09 -52.87,0 -79.93,-22.03 -81.19,-66.09 0,-44.05 27.69,-66.08 83.07,-66.08 21.4,0 41.54,6.92 60.41,20.77 16.37,10.07 25.17,25.17 26.43,45.31z"/>
  </g>
 </g>
</svg>
