<?xml version="1.0" encoding="UTF-8"?>
<!DOCTYPE svg PUBLIC "-//W3C//DTD SVG 1.1//EN" "http://www.w3.org/Graphics/SVG/1.1/DTD/svg11.dtd">
<!-- Creator: CorelDRAW 2018 (64-Bit) -->
<svg xmlns="http://www.w3.org/2000/svg" xml:space="preserve" width="52.8018mm" height="33.8292mm" version="1.1" style="shape-rendering:geometricPrecision; text-rendering:geometricPrecision; image-rendering:optimizeQuality; fill-rule:evenodd; clip-rule:evenodd"
viewBox="0 0 5168.61 3311.44"
 xmlns:xlink="http://www.w3.org/1999/xlink">
 <defs>
  <style type="text/css">
   <![CDATA[
    .fil0 {fill:#FEFEFE;fill-rule:nonzero}
   ]]>
  </style>
 </defs>
 <g id="Слой_x0020_1">
  <metadata id="CorelCorpID_0Corel-Layer"/>
  <g id="_1042518704">
   <path class="fil0" d="M3868.01 1231.69l1.74 3.78c-3.11,1.01 -6.05,2.04 -9.03,3.02 2.08,-1.93 6.91,-6.51 7.28,-6.8zm-145.98 87.52c5.8,-5.73 11.8,-11.72 17.91,-17.76l5.41 13.76c2.2,-0.71 5.77,-1.95 10.42,-3.55l1.97 7.37c-15.24,1.01 -28.15,1.83 -38.06,2.5 0.75,-0.75 1.54,-1.51 2.35,-2.32zm-191.52 82.53c0.31,-0.22 0.65,-0.51 0.99,-0.75l0.54 0.5c-0.57,0.12 -1.05,0.15 -1.53,0.25zm-33.24 23.66c2.2,-1.53 4.28,-2.99 6.57,-4.53 7.38,-5.16 15.01,-10.68 22.69,-16.31l1.35 5.94c-6.18,5.18 -12.07,9.91 -17.76,14.21 -4.48,0.2 -8.65,0.45 -12.85,0.69zm201.65 -77.79c-2.51,0.51 -4.77,0.94 -7.21,1.51 3.55,-3.51 7,-6.94 10.76,-10.62l0.71 8.28c-1.38,0.24 -2.9,0.57 -4.26,0.83zm515.37 -295.18c-0.26,0.04 -0.53,0.11 -0.77,0.15 0.15,-0.12 0.41,-0.23 0.6,-0.33l0.18 0.19zm-7.74 1.65l0.12 0.2c-0.52,0.15 -1.03,0.26 -1.56,0.43 0.46,-0.24 0.97,-0.46 1.44,-0.63zm-1614.11 770.25c-1.44,1.72 -2.87,3.71 -4.34,5.46 -12.55,15.82 -25.44,28.84 -37.73,40.05 14.19,-14.56 28.31,-29.69 42.06,-45.51zm-115.14 115.71l1.6 3.45c-3.51,0.04 -7.02,0.14 -10.34,0.31 5.34,-4.1 10.88,-8.84 16.35,-13.36l2.18 4.32c-4.04,2.08 -7.53,3.89 -9.79,5.29zm-31.04 -205.09c-11.66,15.45 -23.87,30.23 -36.23,44.76 67.06,-90.15 114.61,-192.29 149.19,-273.84 8.25,-20.8 15.97,-40.3 23.01,-58.07 7.03,-17.82 12.06,-34.42 17.19,-48.71 9.77,-28.73 17.1,-49.28 20.13,-59.08 41.98,-130.24 72.78,-256.4 104.26,-369.78 31.07,-113.55 63.95,-214.1 96.35,-296.86 33.65,-82.16 66.31,-146.54 91.67,-189.32 9.13,-14.95 16.74,-27.36 22.87,-37.39 -20.13,38.18 -41.12,85.06 -59.96,140.22 -31.49,88.91 -55.85,198.62 -80.43,319.95 -12.59,60.63 -25.28,124.26 -41.63,189.23 -8.33,32.4 -17.24,65.3 -27.9,98.14 -5.1,16.53 -10.26,33.17 -15.44,49.9 -5.23,16.71 -12.01,33.02 -17.99,49.72 -3.9,9.93 -11.23,31.27 -23.05,60.41 -6.37,14.33 -13.67,30.79 -21.75,48.83 -8.18,18.03 -16.27,38.1 -27.47,58.4 -40.12,83.31 -101.68,182.35 -172.82,273.5zm1829.34 -804.29c-0.68,0.61 -1.4,1.23 -2.14,1.85 45.89,-54.12 78.44,-97.57 88.5,-108.95 55.74,-69.21 107.86,-135.48 158.3,-192.97 50.42,-57.53 98.65,-106.64 142.83,-143.97 10.71,-9.64 22.07,-17.44 32.21,-25.64 10.42,-7.78 19.64,-16.03 29.5,-21.93 19.37,-12.24 35.41,-24.25 49.79,-31.67 28.69,-15.32 44.53,-23.84 44.53,-23.84 0,0 -16.61,7.07 -46.56,19.93 -15.12,6.35 -31.98,17.13 -52.52,28.12 -10.48,5.3 -20.29,12.96 -31.36,20.18 -10.79,7.55 -22.82,14.78 -34.28,23.91 -47.07,35.12 -98.64,82.62 -151.62,139.06 -53.01,56.48 -106.92,122.13 -162.57,191.27 -16.69,18.92 -97.17,125.11 -195.08,219.25 48.25,-56.12 94.64,-113.41 132.23,-158.86 38.31,-46.4 134.89,-160.64 163.17,-193.57 29.13,-32.1 57.2,-63.11 83.97,-92.54 55.57,-56.9 105.75,-108.19 151.98,-146.88 43.96,-41.43 84.13,-69.27 110.8,-90.06 26.82,-20.62 41.68,-32.05 41.68,-32.05 0,0 -15.76,10.14 -44.15,28.48 -28.25,18.69 -70.69,43.82 -117.25,82.9 -48.87,36.3 -101.93,85.54 -159.96,141.17 -27.84,28.96 -57.24,59.23 -87.02,91.19 -28.82,32.7 -364.6,422.31 -376.55,435.27 -24.23,25.71 -48.64,48.57 -70.02,69.39 -9.44,8.84 -18.13,17.18 -26.33,25.1 -23.73,9.85 -43.3,18.68 -58.03,25.45 44.21,-43.82 93.24,-96.08 142.7,-149.89 114.99,-126.97 222.96,-259.51 243.95,-282.82 67.86,-79.04 132.79,-153.74 194.53,-219.21 61.6,-65.61 120.07,-121.69 170.86,-167 51.48,-44.51 94.92,-78.6 125.75,-101 31.09,-22.21 48.31,-34.47 48.31,-34.47 0,0 -18.06,10.97 -50.75,30.86 -32.45,20.28 -78.12,51.74 -132.24,93.84 -53.46,42.97 -114.9,97.05 -178.87,161.35 -64.08,64.18 -130.77,138.28 -198.78,217.44 -21.04,23.34 -130.89,154.76 -246.26,279.23 -58.07,61.71 -117.42,123.59 -165.64,168.96 -12.26,11.25 -23.66,21.73 -34.08,31.3 -10.42,9.63 -21.03,16.51 -29.62,23.44l-0.3 0.27c10.36,-10.3 64.14,-63.58 80.76,-80.11 16.83,-16.33 33.6,-33.12 49.32,-51.3 64.5,-70.68 124.18,-145.09 170.4,-205.23 45.98,-60.23 80.11,-105.03 90.7,-118.95 70.2,-92.35 136.47,-180.44 200.41,-257.45 63.7,-77.23 125.22,-143.1 179.6,-195.76 55.29,-51.65 102.58,-90.87 136.5,-116.33 34.25,-25.13 53.17,-39.05 53.17,-39.05 0,0 -19.78,12.64 -55.69,35.5 -35.53,23.4 -85.28,60.03 -143.41,109.56 -57.21,50.52 -121.9,114.67 -188.15,190.81 -66.44,75.93 -134.45,163.46 -204.63,255.79 -10.6,13.85 -44.71,58.63 -91.52,117.88 -46.61,59.31 -106.73,132.63 -170.83,201.4 -15.54,17.58 -32.39,34.14 -49.33,50.26 -16.71,16.34 -191.54,186.69 -210.01,204.75 -1.62,0.53 -2.97,0.93 -4.5,1.46 22.05,-24.84 44.5,-52.62 67.85,-81.3 15.42,-19.23 31.26,-37.78 47.61,-57.2 16.54,-19.59 33.31,-39.35 50.04,-59.13 136.19,-157.23 252.02,-330.13 275.17,-360.18 74.92,-101.78 140.9,-202.96 212.67,-283.9 71.8,-81.32 146.17,-145.9 210.91,-197.08 64.93,-51.05 119.21,-90.37 156.62,-117.66 37.48,-27.18 58.24,-42.23 58.24,-42.23 0,0 -21.62,13.74 -60.71,38.65 -38.9,25.14 -95.2,61.57 -162.63,110.07 -67.19,48.72 -144.76,111.35 -219.92,192.45 -17.07,18.33 -33.69,37.82 -50.12,57.92 13.19,-17.6 26.36,-34.89 39.55,-51.38 61.6,-77.44 122.11,-143.25 177.99,-193.24 13.24,-13.27 27.6,-23.92 40.22,-35.14 13.04,-10.75 24.71,-21.71 36.89,-30.29 23.99,-17.62 43.87,-34.13 61.58,-45.5 35,-23.35 54.38,-36.23 54.38,-36.23 0,0 -20.23,11.6 -56.82,32.61 -18.42,10.27 -39.26,25.6 -64.38,42.03 -12.78,7.98 -25.05,18.36 -38.74,28.55 -13.3,10.59 -28.35,20.7 -42.33,33.46 -58.72,47.87 -122.68,112.14 -187.07,188.86 -64.54,76.64 -128.33,166.48 -192.44,261.93 -9.76,14.29 -41.14,60.44 -83.21,122.44 -37.68,54.43 -83.46,121.53 -134.37,186.34 24.81,-38.45 47.62,-75.46 67.81,-108.44 44.29,-72.83 76.77,-126.99 87.41,-143.4 142.98,-216.92 265.19,-420.85 383.42,-542.96 58.36,-61.69 114.19,-102.87 155.71,-125.96 10.45,-5.6 19.44,-11.31 27.84,-15.02 8.44,-3.64 38.93,-16.69 38.93,-16.69 0,0 -31.28,11.23 -40,14.31 -8.61,3.23 -17.96,8.48 -28.84,13.54 -43.08,20.93 -101.81,59.86 -163.59,119.94 -62.31,59.49 -126.47,139.91 -191.86,232.42 -32.75,46.17 -65.78,95.58 -100.27,146.35 -34.57,50.28 -70.82,103.75 -105,159.25 -10.37,16.7 -43.78,70.52 -88.66,142.87 -44.96,71.99 -101.72,162.13 -166.63,245.49 -16.75,20.43 -33.48,40.84 -49.96,60.97 -8.64,9.41 -17.26,18.81 -25.78,28.12 -8.56,9.24 -18.12,17.37 -26.97,25.92 -13.42,12.25 -27,23.54 -40.52,34.49 8.43,-10.68 17.03,-21.64 25.45,-33.03 25.48,-37.15 52.84,-76.18 78,-116.05 101.78,-159.52 194.38,-324.39 213.17,-353.47 59.3,-98.63 116.86,-191.68 173.54,-273.35 56.51,-81.81 112.33,-151.87 161.74,-208.59 50.36,-55.84 93.76,-98.74 124.99,-127.09 31.48,-28.07 48.9,-43.68 48.9,-43.68 0,0 -18.42,14.42 -51.74,40.37 -33.05,26.42 -79.04,66.98 -132.41,120.93 -52.4,54.74 -111.51,123.37 -170.65,204.39 -59.36,80.86 -118.86,173.72 -178.32,272.64 -18.83,29.21 -113.45,193.24 -216.16,350.43 -25.56,39.62 -52.67,77.47 -77.99,113.62 -4.33,5.75 -8.71,11.19 -13.04,16.7 6.12,-10.75 12.29,-21.5 18.63,-32.19 50.99,-90.04 99.22,-181.53 138.01,-254.1 38.87,-72.48 67.81,-126.41 76.77,-143.17 60.54,-110.4 119.81,-214.58 178.69,-306.17 58.62,-91.75 116.93,-170.62 168.72,-234.67 52.67,-63.3 98.53,-111.91 131.58,-144.14 33.37,-31.94 51.84,-49.64 51.84,-49.64 0,0 -19.54,16.54 -54.82,46.45 -34.87,30.35 -83.49,76.76 -139.22,138.25 -54.81,62.25 -116.51,139.76 -177.76,230.83 -61.56,90.88 -122.76,194.89 -183.51,305.66 -9.13,16.7 -166.57,305.77 -218.15,394.77 -12.43,20.66 -24.46,41.7 -36.68,62.06 14.39,-25.97 28.16,-52.79 41.54,-79.78 44.09,-91.73 79.92,-186.23 111.69,-259.81 15.31,-37.12 29.81,-68.76 41.14,-93.42 10.95,-24.88 20.08,-42 24.35,-50.17 54.43,-109.04 125.32,-202.79 185.81,-290.12 32.72,-41.89 63.83,-81.73 92.96,-119 13.88,-19.23 30.41,-35.12 44.7,-51.78 14.65,-16.38 28.7,-32.09 42.12,-47.09 51.96,-61.76 101.38,-104.51 133.13,-136.6 32.3,-31.63 50.18,-49.11 50.18,-49.11 0,0 -18.92,16.36 -53.1,45.85 -33.52,30.18 -85.49,70.57 -140.36,130.27 -14.1,14.5 -28.88,29.73 -44.28,45.6 -15.02,16.21 -32.28,31.65 -46.91,50.5 -30.41,36.67 -62.95,75.87 -97.16,117.17 -33.13,42.06 -64.36,88.95 -98.52,136.28 -8.28,11.95 -17.18,23.67 -25.18,36.29 -7.81,12.74 -15.69,25.57 -23.63,38.54 -16.63,25.47 -30.28,53.02 -44.62,80.59 -4.38,8.28 -13.8,25.7 -25.05,50.75 -11.73,24.91 -26.72,56.8 -42.44,93.92 -32.66,73.66 -69.43,167.74 -113.65,257.34 -22.59,44.61 -46.13,88.74 -71.43,127.87 -6.26,9.85 -11.85,19.93 -18.41,29.2 -6.93,8.93 -13.81,17.71 -20.48,26.29 -13.81,16.91 -25.21,34.33 -39.21,48.31 -36.5,41.09 -68.55,72.52 -88.69,92.19 -7.04,4.69 -13.4,8.79 -18.68,12.17 -1.55,0.34 -3.08,0.7 -4.56,1.07 7.28,-8.23 14.73,-16.9 22.26,-25.9 30.31,-36.64 62.42,-79.65 92.96,-127.15 15.3,-23.73 30.62,-48.24 44.93,-74.04 14.24,-25.76 30.28,-51.08 43.33,-77.83 54.87,-106.1 97.7,-216.83 134.89,-303.29 35.92,-87.03 66.3,-149.75 75.1,-169.61 16.07,-32.06 32.9,-63.19 48.92,-94.22 17.27,-30.25 35.97,-58.97 53.35,-87.87 37.71,-56.03 76.82,-108.45 116.25,-156.6 78.81,-96.45 158.01,-176.41 226.1,-241.95 68.77,-64.69 126.07,-115.56 165.93,-150.42 39.92,-34.82 61.96,-54.07 61.96,-54.07 0,0 -23.03,18.05 -64.75,50.72 -41.49,32.85 -101.18,81.06 -172.62,143.49 -70.7,63.23 -152.98,141.29 -234.73,237.13 -40.86,47.93 -81.36,100.26 -120.28,156.81 -18.11,29.22 -37.52,58.55 -55.28,89.24 -16.45,31.36 -33.71,63.02 -50.04,95.57 -8.79,19.95 -40.1,83.39 -76.82,170.32 -37.95,86.34 -81.68,196.35 -136.42,299.98 -13.05,26.21 -28.95,50.76 -43.08,75.89 -14.12,25.09 -29.48,49.2 -44.71,72.41 -30.3,46.36 -61.92,88.02 -91.44,123.25 -14.86,17.54 -29.06,33.56 -42.93,47.25 -7.38,8.05 -14.7,15.03 -21.77,21.54 22.51,-33.2 45.42,-70.64 69.52,-109.58 27.77,-43.14 56.98,-90.88 85.58,-138.9 53.18,-98.23 93.81,-201.68 125.86,-283.7 31.76,-81.82 55.42,-142.76 62.74,-161.63 50.16,-124.51 106.58,-238.98 174.44,-332.93 66.97,-94.58 138.3,-171.53 200.38,-233.78 63.51,-60.87 117.83,-107.22 156.38,-137.99 38.88,-30.38 60.41,-47.17 60.41,-47.17 0,0 -22.44,15.58 -63.06,43.7 -40.23,28.75 -96.93,72.54 -163.32,131.28 -64.92,60.2 -139.65,135.53 -209.89,230.2 -71.26,94.07 -130.8,210.88 -181.23,336.19 -7.48,18.86 -31.61,79.75 -64.12,161.55 -32.6,81.38 -73.9,183.32 -126.63,278.72 -28.2,46.36 -56.84,92.38 -85.87,136.72 -27.96,44.31 -53.69,85.94 -78.6,120.92 -6.25,8.7 -12.24,17.16 -18,25.25 -6.21,7.72 -21.56,27.11 -23.52,29.44 -5.98,1.26 -11.16,2.28 -14.5,2.96l2.85 10.47c-5.18,5.61 -10.19,10.81 -14.65,15.79 -9.33,10.88 -18.82,18.14 -25.94,24.68 -6.16,5.49 -10.7,9.59 -14.13,12.59 -5.28,1.11 -10.59,2.17 -15.5,3.19 17.14,-17.05 34.82,-36.91 52.85,-59.64 29.91,-37.38 60.22,-81.83 92.22,-127.72 29.76,-48.82 64.02,-98.81 88.99,-153.53 28.53,-53.05 49.96,-109.06 72.52,-161.2 20.4,-52.78 88.69,-229.83 100.99,-259.42 12.32,-29.69 20.41,-51.35 25.37,-60.97 56.35,-133.13 130.85,-249.4 207.42,-348.52 76.55,-99.12 155.47,-180.42 223.5,-246.74 69.03,-65.44 126.7,-116.51 166.82,-151.65 40.15,-35.01 62.35,-54.37 62.35,-54.37 0,0 -23.17,18.15 -65.14,51.04 -41.8,33.08 -101.8,81.58 -173.52,144.71 -70.72,64.09 -152.83,143.61 -232.55,242.44 -79.41,98.38 -157.24,216.7 -214.43,351.86 -5.1,9.85 -13.32,31.52 -25.94,61.38 -12.63,29.88 -28.35,68.32 -45.31,112.58 -17.42,44.02 -37.09,93.72 -57.87,146.17 -22.74,51.28 -44.44,106.61 -72.75,158.16 -24.95,53.53 -58.6,101.55 -87.71,148.73 -32.73,46.18 -62.78,89.49 -91.94,125.44 -4.85,6.07 -9.61,11.61 -14.42,17.21 22.12,-39.5 42.87,-83.83 65.55,-129.66 25.34,-53.75 181.49,-394.73 225.01,-484.18 43.38,-89.46 77.45,-155.12 88.65,-175.13 71.71,-134.3 147.23,-258.19 224.98,-364.43 77.12,-106.88 159.6,-192.65 232.7,-260.08 38.08,-32.05 71.27,-62.9 104.46,-84.56 32.39,-22.82 59.32,-44.12 84.15,-57.05 48.23,-28.39 74.89,-44.07 74.89,-44.07 0,0 -27.46,14.36 -77.1,40.32 -25.62,11.83 -53.46,31.95 -87.01,53.55 -34.39,20.52 -68.94,50.18 -108.53,81.23 -76.11,65.46 -162.32,149.98 -242.44,256.5 -80.7,105.85 -158.53,230.19 -230.71,365.39 -11.32,20.15 -46.04,85.97 -90.32,175.54 -44.42,89.42 -97.08,203.1 -150.03,316.2 -26.32,56.65 -53.14,112.82 -78.66,165.89 -26.74,53.07 -50.31,103.49 -75.28,144.71 -21.3,35.93 -43.76,64.2 -64.55,84.48 -0.48,0.02 -1.08,-0.03 -1.56,-0.03 15.31,-22.18 31.31,-47.82 48.24,-76.59 50.73,-88.72 104.39,-204.32 156.9,-321.01 51.65,-116.9 101.62,-234.28 143.86,-326.52 42.85,-91.91 76.42,-159.37 88.33,-179.53 9.23,-17.04 18.42,-33.98 27.55,-50.82 8.87,-17 18.19,-33.62 28.36,-49.43 19.79,-32.15 39.27,-63.79 58.42,-94.89 42.51,-59.41 82.09,-117.85 125.45,-168.98 85.64,-103.16 178.2,-182.28 258.04,-245.42 80,-63.12 147.44,-111.17 193.21,-145.3 45.88,-34.09 71.19,-53.01 71.19,-53.01 0,0 -26.21,17.6 -73.68,49.42 -47.34,32.03 -116.65,77.11 -199.2,137.81 -82.23,60.62 -178.3,137.92 -267.5,241.24 -45.14,51.18 -86.07,109.64 -129.74,169.4 -19.64,31.36 -39.61,63.24 -59.93,95.63 -10.42,16.02 -19.89,32.78 -28.95,49.89 -9.19,16.97 -18.49,34.11 -27.89,51.37 -12.01,20.33 -46.38,88.17 -90.19,180.31 -30.76,65.81 -65.55,144.31 -101.89,225.93 29.68,-82.36 110.72,-313.35 121.96,-344.18 11.89,-30.51 21.53,-51.96 25.7,-62.27 56.75,-136.33 129.35,-256.99 210.61,-355.77 80.89,-98.79 164.94,-178.72 241.29,-238.34 18.29,-16 38.03,-28.08 55.44,-41.27 17.94,-12.41 33.96,-25.68 50.61,-35.33 33.01,-19.8 60.58,-38.64 84.67,-51.17 48.34,-25 75.04,-38.83 75.04,-38.83 0,0 -27.45,12.47 -77.08,34.95 -24.78,11.45 -53.2,29.02 -87.32,47.56 -17.26,9 -33.78,21.68 -52.36,33.45 -18.04,12.59 -38.46,24.09 -57.45,39.54 -79.21,57.37 -166.75,135.69 -251,234.38 -84.44,98.35 -160.74,221.81 -218.16,359.87 -4.22,10.48 -14.12,32.17 -26.36,62.95 -11.5,30.92 -27.15,70.53 -43.6,116.19 -32.96,91.4 -71.75,206.71 -116.29,319.06 -45.64,111.42 -96.16,222.63 -139.88,306.76 -2.56,4.63 -4.82,8.9 -7.28,13.41 17.89,-46.27 347.85,-947.71 354.03,-962.28 6.57,-14.29 13.99,-28.05 20.79,-41.9 57.56,-109.47 130.45,-195.6 190.17,-268.8 29.94,-36.69 55.47,-70.87 80.71,-98.38 12.19,-14.2 25.04,-25.83 36.23,-37.26 12.28,-10.12 23.09,-20.05 33.69,-27.77 10.89,-7.33 20.6,-13.88 29.05,-19.52 8.7,-5.11 16.54,-8.6 22.68,-11.93 12.36,-6.38 18.85,-9.71 18.85,-9.71 0,0 -6.68,3 -19.36,8.63 -6.32,2.94 -14.41,6.07 -23.46,10.8 -8.74,5.24 -18.88,11.35 -30.21,18.15 -11.16,7.31 -22.51,16.8 -35.54,26.49 -11.79,11 -25.44,22.28 -38.35,36.05 -26.76,26.79 -53.88,60.07 -85.02,95.47 -62.06,70.7 -138.74,155.53 -200.21,266.62 -7.25,14.06 -15.15,28.01 -22.2,42.64 -6.62,14.89 -13.28,29.83 -20.06,45.02 -12.02,30.78 -23.04,63.09 -34.97,94.63 -23.31,63.77 -211.66,570.17 -253.7,680.44 -43.7,109.44 -76.85,224.9 -137.68,289.6 -7.92,7.53 -15.57,14.84 -22.96,21.88 -6.1,6 -13.31,10.29 -19.84,14.83 -9.08,1.7 -16.13,3.04 -20.54,3.85l2.24 8.38c-10.3,5.91 -20.65,10.29 -29.42,15.08 -12.91,7.46 -26.06,9.91 -35.49,13.8 -6.24,2.23 -11.13,3.96 -15.3,5.43 46.38,-53.27 90.04,-120.52 131.78,-186.98 55.02,-88.26 103.39,-180.91 137.69,-256.65 33.89,-75.97 52.84,-135.06 59.68,-153.06 9.86,-30.34 17.91,-60.92 26.69,-90.72 6.93,-30.34 12.75,-60.47 18.97,-89.95 10.37,-59.93 11.76,-118.7 9.58,-173.84 -4.96,-110.48 -20.76,-207.88 -26.53,-290.16 -6.42,-82.24 -3.87,-149.16 2.49,-194.89 2.52,-23.02 6.5,-40.53 9.01,-52.45 2.48,-11.96 3.77,-18.24 3.77,-18.24 0,0 -1.71,6.22 -4.92,17.96 -3.28,11.75 -8.34,29.08 -12.18,52.06 -8.97,45.55 -15.07,113.1 -12.08,196.32 2.32,83.15 14.62,181.48 16.88,290.02 0.84,54.22 -1.59,111.02 -12.34,168.54 -6.34,28.77 -12.84,58.05 -19.39,87.78 -8.79,29.11 -16.82,58.99 -26.44,88.72 -6.73,17.66 -25.77,75.46 -59.88,149.86 -34.43,74.18 -82.95,164.93 -138.09,251.63 -43.87,68.46 -88.56,135.3 -134.88,186.49 15.4,-22.23 30.35,-46.36 44.55,-71.97 22.31,-39.95 45.86,-82.1 69.38,-124.27 47.79,-84.03 93.79,-169.86 126.88,-240.12 33.3,-70.2 51.7,-125.41 58.56,-142.01 40.65,-112.87 54.54,-228.41 54.31,-331.26 -0.34,-103.16 -8.07,-194.96 -10.87,-272.13 -2.19,-77.04 -0.14,-139.64 4.86,-182.49 5.6,-42.88 8.72,-66.63 8.72,-66.63 0,0 -4.63,23.52 -13.08,66.05 -7.6,42.73 -13.17,105.54 -14.43,183.22 -0.7,77.59 3.53,169.98 1.23,271.56 -2.42,101.41 -17.53,212.45 -57.07,322.43 -6.79,16.29 -25.19,69.93 -58.68,138.76l-0.19 0.35c20.55,-54.26 36.74,-104.65 48.76,-147.84 13.22,-49.29 21.86,-89.59 26.95,-117.57 4.61,-28.08 7.15,-43.62 7.15,-43.62 0,0 -4.03,15.18 -11.39,42.64 -7.64,27.34 -19.58,66.57 -36.04,114.43 -33.77,95.26 -86.85,224.88 -162.13,359.08 -11.29,19.87 -73.59,130.83 -156.62,224.4 -41.16,46.49 -86.96,89.79 -125.65,118.37 -28.79,20.13 -54.13,31.7 -69.28,38.39 1.79,-1.72 3.4,-3.33 5.24,-5.09 29.91,-28.47 63.78,-60.67 99.05,-96.35 18.34,-17.01 34.05,-37.66 51.28,-57.29 17.38,-19.52 33.37,-40.55 49.15,-61.79 63.7,-84.22 117.53,-175.46 155.66,-250.3 18.3,-37.77 34.62,-70.57 45.93,-96.77 11.24,-26.17 19.31,-44.96 23.2,-53.83 12.51,-29.61 23.35,-59.31 34.77,-88.38 10.15,-29.8 20.14,-59.13 29.92,-87.99 16.22,-58.61 29.69,-115.85 37.92,-170.87 18.32,-109.83 26.53,-209.31 36.23,-292.32 2.36,-20.75 4.55,-40.58 6.66,-59.31 2.55,-18.66 4.98,-36.23 7.26,-52.66 4.47,-32.93 8.28,-61.28 13.28,-84.1 8.75,-46 13.56,-71.45 13.56,-71.45 0,0 -6.35,25.15 -17.84,70.56 -6.25,22.65 -11.63,50.79 -17.71,83.54 -3.1,16.39 -6.34,33.91 -9.85,52.47 -2.88,18.7 -5.97,38.38 -9.19,59.11 -27.22,165 -43.91,398.31 -150.8,630.6 -3.86,8.79 -11.91,27.27 -23.25,53.05 -11.33,25.8 -27.71,57.95 -46.07,94.99 -9.23,17.61 -19.37,36.21 -30.28,55.36 7.18,-16.25 13.92,-32.12 19.97,-47.15 32.18,-79.52 52.08,-139.75 58.99,-158.18 21.43,-61.89 44.17,-120.49 62.66,-180.54 17.91,-59.7 29.62,-118.44 39.22,-174.41 18.88,-111.96 30.14,-212.98 45.46,-296.86 14.61,-84.01 32.44,-150.77 48.14,-195.82 7.17,-22.84 14.59,-39.81 19.21,-51.54 4.67,-11.67 7.09,-17.81 7.09,-17.81 0,0 -2.86,5.94 -8.24,17.34 -5.3,11.43 -13.73,28.06 -22.15,50.5 -18.19,44.3 -39.61,110.7 -57.71,194.55 -18.85,83.76 -33.65,184.86 -54.95,295.4 -10.75,55.21 -23.41,112.88 -41.65,170.86 -18.36,57.39 -42.06,117.48 -63.34,178.93 -6.88,18.37 -27.32,78.4 -59.73,156.42 -32.2,77.99 -78.81,173.72 -143.8,255.99 -32.26,41.45 -69.8,76.93 -106.95,111.22 -18.22,18.14 -35.85,35.8 -52.76,52.66 -16.1,17.23 -31.52,33.69 -46,49.13 -57.03,62.08 -102.82,102.06 -115.77,114.54l5.17 6.09 -3.63 21.15c-25.46,-1.01 -48.24,-1.46 -67.69,-1.58 3.5,-2.28 6.85,-4.32 10.56,-6.99 27.09,-17.23 58.95,-43.37 93.96,-74.68 34.93,-31.5 71.28,-69.37 110.33,-108.71 37.66,-41.25 78.12,-84.72 113.24,-132.16 71.81,-93.67 133.65,-195.15 173.7,-280.28 11.26,-20.72 19.33,-41.21 27.5,-59.61 8.05,-18.43 15.35,-35.18 21.72,-49.81 11.77,-29.68 19.1,-51.41 23.09,-61.55 6.07,-16.94 12.91,-33.51 18.19,-50.49 5.19,-17.03 10.3,-33.91 15.46,-50.66 10.58,-33.43 19.34,-66.85 27.38,-99.84 15.88,-65.96 27.52,-130.13 38.81,-191.06 22.04,-121.9 42.77,-231.13 70.6,-320.15 26.83,-89.25 59.44,-157.92 86.01,-202.76 12.43,-23.05 24.59,-39.36 32.17,-50.86 7.69,-11.46 11.74,-17.49 11.74,-17.49 0,0 -4.41,5.81 -12.69,16.76 -8.23,11.08 -21.29,26.81 -34.9,49.31 -8.48,12.76 -17.57,27.79 -26.9,44.58 -7.37,10.68 -19.22,27.79 -35.29,51.07 -27.69,41.52 -63.7,104.63 -100.85,186.14 -35.85,82.03 -72.42,182.49 -106.11,295.79 -34.18,113.15 -66.65,238.72 -108.18,367.68 -3.01,9.75 -10.39,29.97 -20.27,58.32 -5.15,14.07 -10.3,30.45 -17.34,47.94 -7.09,17.48 -14.87,36.55 -23.18,56.94 -34.97,80.51 -82.78,180.91 -149.58,268.38 -64.81,87.19 -147.15,163.86 -207.42,227.4 -28.34,29.06 -53.98,52.97 -74.89,71.83 -7.97,4.71 -14.35,8.23 -18.23,10.45l2.07 3.96c-0.35,0.31 -0.75,0.71 -1.13,1 -3.31,0.03 -6.26,0.08 -8.57,0.07l0.21 7.29c-11.15,9.63 -19.59,16.96 -24.04,21.12l13.19 16.4 -0.39 7.39c1.75,0.16 4.26,0.39 6.85,0.63l2.33 2.95c0.72,-0.65 1.92,-1.66 2.78,-2.41 10.36,0.95 24.78,2.28 43.31,4.04 27.26,2.63 62.31,4.86 103.19,11.4 81.57,11.84 184.41,24.32 286.92,40.28 102.7,14.72 204.56,34.62 285.41,51.22 79.73,20.32 139.88,33.31 157.43,40.41 29.44,10.98 58.53,21.81 87.22,32.46 28.52,11.19 55.87,24.58 83.2,36.35 27.37,11.73 53.67,24.77 79.39,37.6 25.72,12.81 51.11,24.77 75.59,37.48 98.1,49.87 186.56,95.37 263.35,128.48 37.65,18.06 73.74,30.02 104.59,42.08 15.62,5.71 29.8,11.64 43.33,15.92 13.73,3.89 107.18,29.98 107.18,29.98 0,0 -91.58,-31.53 -104.97,-36.09 -13.19,-4.91 -27.1,-11.58 -42.31,-18.03 -30.13,-13.53 -65.18,-26.94 -101.96,-46.56 -74.82,-36.05 -161.24,-84.4 -258.31,-136.68 -24.15,-13.28 -49.56,-25.87 -75.17,-39.28 -25.65,-13.36 -51.86,-26.96 -79.51,-39.15 -27.56,-12.28 -55,-26.1 -83.98,-37.68 -29.31,-11.04 -59.08,-22.18 -89.15,-33.5 -18.01,-7.22 -78.7,-20.93 -159.46,-42.3 -81.43,-17.55 -183.91,-38.59 -286.92,-54.35 -93.53,-15.48 -187.23,-28.03 -264.49,-39.51 15.43,0.93 31.54,2.07 48.36,3.49 113.03,9.18 255.24,38.02 398.29,61.15 140.83,32.51 284.68,56.36 389.89,101.11 53.04,21.54 98.49,42.76 133.38,60.56 35.21,17.02 59.8,30.85 71.61,36.94 78.17,41.41 153.37,84.49 228.65,122.25 74.94,37.85 148.42,71.83 219.94,101.27 142.83,58.78 280.54,92.18 396.75,101.13 57.94,6.91 110.28,10.32 156.33,14.82 45.8,5.06 85.48,8.38 117.64,12.78 64.18,10.2 99.69,15.82 99.69,15.82 0,0 -35.26,-7.18 -99.03,-20.12 -32.06,-5.72 -71.54,-10.59 -117.36,-17.25 -45.7,-6.14 -98.23,-11.34 -155.5,-19.89 -115.45,-12.45 -248.89,-48.48 -389.45,-109.08 -70.16,-30.28 -142.85,-65.05 -216.89,-103.3 -74.01,-38.01 -149,-81.44 -227.64,-123.12 -11.93,-6.17 -36.51,-20.09 -72.05,-37.56 -35.13,-18.16 -81.1,-40.03 -135.16,-62.36 -108.54,-46.85 -253.37,-71.82 -394.71,-105.46 -94.28,-15.91 -188.02,-34.2 -274.26,-47.78 86.4,5.84 188.35,11.61 289.79,28.19 115.66,16.34 229.78,41.92 318.99,67.82 22.19,6.68 43.23,12.41 62.07,18.6 18.71,6.61 78.25,27.68 88.55,31.33 10.09,4.27 17.73,7.53 22.68,9.61 131.88,53 248.54,124.7 359.13,182.14 109.91,58.57 211.9,105.98 299.22,141.5 44.27,16.36 83.62,32.82 119.75,42.9 35.86,10.75 66.24,21.55 92.22,26.56 51.22,11.82 79.56,18.41 79.56,18.41 0,0 -27.93,-8.09 -78.42,-22.6 -25.5,-6.27 -55.37,-18.48 -90.45,-30.74 -35.48,-11.52 -73.94,-29.55 -117.27,-47.4 -85.47,-38.48 -185.12,-88.65 -293.41,-149.36 -108.63,-59.28 -225.01,-132.98 -359.78,-187.3 -5.01,-2.08 -12.79,-5.44 -23,-9.81 -10.47,-3.82 -70.75,-25.65 -89.77,-32.54 -19.09,-6.41 -40.36,-12.4 -62.86,-19.38 -90.29,-27.02 -205.83,-53.97 -322.33,-71.44 -116.38,-20.05 -234.77,-25.96 -326.72,-33.4 -44.39,-3.21 -82.53,-7.27 -112.67,-10.92 4.62,-5.07 10.26,-11.29 17.03,-18.64l0.06 5.42c16.15,0.38 71.33,1.76 146.08,3.56 74.72,5.56 169.04,11.8 262.96,26.98 94.17,13.35 188.06,28.28 261.42,45.86 36.89,7.99 68.33,17.55 93.24,23.73 24.34,7.86 41.76,13.47 50.05,16.16 54.74,18.09 106.39,40.05 155.53,64.61 49.09,24.11 97.62,44.77 141.97,68.94 89.84,46.09 170.75,87.54 238.67,122.41 67.62,35.62 125.24,58.97 163.92,77.02 38.98,17.37 60.53,26.99 60.53,26.99 0,0 -20.87,-11.02 -58.7,-30.9 -37.52,-20.48 -93.31,-46.75 -159.2,-85.43 -66.71,-37.29 -146.12,-81.67 -234.28,-130.94 -43.72,-25.31 -92.39,-47.31 -141.61,-72.32 -48.85,-25.26 -101.91,-48.37 -157.89,-66.84 -8.37,-2.76 -26.21,-8.64 -50.98,-16.85 -25.2,-6.51 -57.21,-16.53 -94.55,-25.04 -74.36,-18.64 -169.1,-34.67 -263.46,-49.12 -94.27,-16.2 -189.93,-23.54 -265.57,-29.71 -51.77,-1.47 -93.99,-2.65 -121.02,-3.39 11.66,-12.23 25.09,-25.81 39.89,-40.26l10.27 28.28c5.42,-2.6 18.64,-7.81 36.09,-16.56l3.23 10.68c10.07,-2.17 31.92,-9.12 65.39,-9.29 33.21,-0.84 76.98,4.56 127.09,15.04 50.25,10.45 106.53,26.63 168.37,40.03 62.45,12.12 125.76,22.87 190.17,36.89 128.25,26.58 254.96,60.4 352.61,96.24 24.42,8.93 46.67,18.71 67.34,26.94 20.59,8.37 39.46,15.61 54.99,24 31.59,15.74 54.23,27.04 64.93,32.35 34.81,19.12 67.67,40.54 100.8,60.57 32.15,22.21 63.84,44.11 95,65.6 62.32,43.21 122.81,84.58 181.57,122.38 58.67,37.92 116.22,71.38 171.11,100.76 55.2,28.81 107.96,53.12 157.57,71.88 98.88,38.39 183.9,54.35 242.63,59.72 29.27,4.13 52.33,3.27 67.78,4.04 15.5,0.46 23.63,0.68 23.63,0.68 0,0 -8.1,-0.63 -23.57,-1.84 -15.43,-1.61 -38.32,-1.77 -67.28,-7.26 -58.1,-7.85 -141.63,-27.1 -238.04,-68.31 -48.36,-20.15 -99.76,-45.77 -153.6,-75.7 -53.53,-30.54 -109.73,-64.9 -167.33,-103.69 -57.68,-38.65 -117.3,-80.71 -179.13,-124.56 -31.06,-21.8 -62.7,-43.99 -94.74,-66.53 -33.68,-20.65 -67.5,-42.73 -103.06,-62.3 -10.95,-5.52 -34.05,-17.13 -66.21,-33.36 -15.83,-8.73 -34.97,-16.19 -55.84,-24.89 -21.03,-8.49 -43.64,-18.69 -68.39,-27.96 -99.09,-37.16 -227.1,-72.41 -356.09,-100.1 -63.97,-14.5 -130.18,-26.25 -189.83,-38.29 -59.73,-13.32 -116.56,-30.11 -168.15,-41.09 -27.7,-5.95 -53.73,-10.36 -77.79,-13.12 1.49,-0.9 2.77,-1.6 4.31,-2.54 4.95,-3.15 10.32,-6.73 15.78,-10.4 0.66,-0.08 1.14,-0.16 1.79,-0.27 28.48,-4.21 66.72,-3.47 110.58,2.92 43.96,6.46 93.3,18.95 146.22,32.8 53.24,13.94 108.43,26.97 163.66,43.38 110.39,31.33 219.7,68.18 307.1,96.73 87.29,28.83 152.62,49.67 172.95,55.97 134.56,42.76 265.32,77.34 386.62,97.3 121.33,20.06 232.71,23.11 325.23,18.11 46.25,-4.23 88.16,-6.7 124.25,-14.61 36.26,-6.61 67.56,-11.22 92.29,-19.23 49.8,-13.86 77.3,-21.54 77.3,-21.54 0,0 -27.82,6.17 -78.26,17.25 -24.89,6.72 -56.39,9.83 -92.58,14.76 -36.04,6.3 -77.77,6.97 -123.58,9.4 -91.74,1.46 -201.22,-4.99 -320.58,-27.34 -119.39,-22.3 -248.29,-58.13 -382.24,-100.72 -20.27,-6.25 -85.11,-27.56 -172.15,-57.11 -87.1,-29.29 -196.33,-67.2 -307.4,-99.73 -55.12,-16.93 -111.96,-30.91 -164.17,-44.97 -49.09,-13.27 -96.53,-25.58 -140.35,-32.95 5.43,-1.9 11.37,-3.75 18.73,-4.89 10.98,-2.42 23.52,-5.3 38.11,-6.27 14.28,-1.99 30.33,-2.58 47.53,-2.86 34.41,-0.3 73.7,1.73 115.22,7.13 20.64,2.53 41.8,5.64 63.23,10.29 21.38,4.51 43.16,8.01 64.78,13.37 173.34,39.54 342.1,102.06 373.38,111.9 103.25,36.22 201.96,70.61 293.25,97.62 91.25,27.16 175.1,46.25 245.92,58.87 71.1,11.92 129.12,17.45 169.21,19.49 40.13,1.57 62.31,2.37 62.31,2.37 0,0 -22.01,-2.41 -61.93,-6.72 -39.78,-4.6 -97.05,-13.61 -166.85,-28.85 -69.67,-15.95 -151.79,-38.19 -241.65,-67.65 -89.9,-29.33 -187.59,-65.19 -291.04,-101.5 -31.37,-9.82 -199.65,-74.59 -375.4,-116.73 -21.76,-5.7 -44.17,-9.56 -65.96,-14.35 -21.66,-4.97 -43.63,-8.46 -65.01,-11.29 -42.53,-5.95 -83.42,-8.54 -119.75,-8.52 -18.3,0.16 -35.33,0.65 -51,2.68 -15.64,0.98 -29.79,4 -42.13,6.7 -12.41,2 -22.79,5.87 -31.05,9 -8.36,3.04 -14.58,5.33 -18.48,6.76l8.84 19.19c-16.57,-1.93 -32.54,-3.23 -47.42,-3.58 6.44,-5.54 12.95,-11.3 19.42,-17.63 13.31,-11.82 26.31,-25.42 39.15,-39.78l8.64 30.08c4.94,-1.7 12.9,-4.4 23.49,-8.06 6.63,-2.69 14.76,-4.91 23.47,-8.2l0.15 0.57c4.29,-0.69 11.14,-1.85 20.27,-3.33 9.08,-1.66 20.44,-3.66 34.14,-4.17 6.81,-0.43 14.07,-0.94 21.86,-1.51 7.85,0.07 16.09,0.17 24.8,0.18 17.32,-0.36 36.58,1.96 57.1,3.29 41.22,4.4 87.53,12.06 137.56,20.84 24.78,4.09 101.84,16.67 114.78,18.75l38.27 9.25c102.35,24.34 202.08,61.42 281.45,91.36 79.34,30.16 139.19,51.63 157.76,58.12 30.66,11.39 61.97,20.25 92.3,30.21 30.53,9.21 60.82,16.93 90.57,25.21 59.66,15.31 117.3,29.83 173.01,40.29 55.37,12.1 108.87,19.11 158.61,26.78 50.21,4.76 96.71,11.45 139.63,12.29 21.37,0.95 41.7,1.9 61,2.77 19.24,0.27 37.43,-0.42 54.42,-0.61 34.03,-0.33 63.21,-0.87 87.01,-3.62 47.58,-4.14 73.89,-6.4 73.89,-6.4 0,0 -26.42,0.73 -74.07,2.06 -23.78,1.43 -52.96,0.43 -86.73,-0.85 -16.89,-0.69 -34.98,-0.81 -54.08,-1.91 -19.11,-1.69 -39.26,-3.48 -60.44,-5.35 -42.42,-2.58 -88.38,-10.94 -137.85,-17.23 -49.12,-9.28 -101.86,-17.72 -156.44,-30.97 -54.97,-11.68 -111.97,-27.11 -170.98,-43.07 -29.35,-8.52 -59.53,-16.54 -89.64,-25.83 -29.86,-10.07 -60.48,-18.83 -90.96,-30.1 -18.38,-6.47 -77.44,-28.14 -156.6,-59.08 -78.78,-30.55 -178.63,-68.88 -282.83,-94.8l15.91 3.64c100.43,22.68 199.16,54.65 277.36,81.49 78.25,27.2 136.53,47.49 154.6,53.77 119.72,42.62 236.76,78.39 345.34,100.02 54.1,11.99 106.42,18.37 155.06,25.46 49.08,3.93 94.6,9.78 136.42,10.02 20.87,0.71 40.76,1.39 59.56,2 18.79,0.08 36.5,-0.61 53.09,-0.79 33.15,-0.53 61.64,-1.22 84.9,-3.41 46.47,-3.43 72.14,-5.3 72.14,-5.3 0,0 -25.73,0.35 -72.3,0.92 -23.23,0.85 -51.68,0.05 -84.69,-1.1 -16.48,-0.55 -34.11,-0.74 -52.83,-1.71 -18.66,-1.38 -38.33,-2.92 -59.02,-4.47 -41.47,-2.08 -86.37,-9.6 -134.72,-15.12 -47.99,-8.6 -99.45,-16.41 -152.64,-29.54 -106.87,-23.98 -221.39,-60.72 -341.07,-103.36 -18.02,-6.39 -76.15,-27.15 -154.26,-55.01 -78.28,-27.71 -177.61,-60.98 -279.77,-85.07l-38.23 -9.11c-12.83,-2.34 -88.64,-15.9 -112.93,-20.18 -48.2,-8.68 -94.39,-16.97 -135.78,-22.36 -6.69,-0.66 -13.01,-1.25 -19.39,-1.86 4.22,-2.39 8.79,-5.22 13.52,-8.44 29.19,-2.11 69.45,-3 117.54,2.78 41.54,4.95 88.32,13.89 137.68,25.92 49.35,11.57 101.01,27.87 152.86,42.25 103.8,28.97 207.25,61.49 289.82,86.01 82.83,24.43 144.47,42.56 163.59,48.22 63.31,19.29 126.39,34.27 186.66,50.53 30.18,8.05 59.81,15.92 89.67,21.3 29.69,6.04 58.6,12.21 87.31,15.39 114.22,16.25 218.33,19.45 305.16,15.37 43.4,-1.24 82.57,-5.07 116.88,-7.75 34.26,-4.13 63.79,-7.11 87.78,-10.65 47.84,-7.7 74.33,-11.98 74.33,-11.98 0,0 -26.66,2.77 -74.81,7.64 -24.09,2.24 -53.69,3.67 -87.92,6.15 -34.32,1.07 -73.35,3.16 -116.55,2.64 -86.23,0.58 -189.07,-6.14 -301.2,-24.71 -28.21,-3.78 -56.55,-10.43 -85.55,-16.87 -29.1,-5.74 -58.48,-14.04 -88.47,-22.42 -59.83,-16.95 -122.32,-32.24 -185.48,-51.48 -38.08,-11.63 -545.57,-166.4 -591.04,-178.18 22.03,2.69 44.32,5.67 66.59,8.92 40.26,6.9 80.73,13.1 118.94,20.21 37.92,8.83 73.83,17.26 105.65,24.7 63.56,15.64 110.28,30.22 124.92,33.96 96.61,28.52 188.75,55.75 272.51,80.48 84.49,22.96 160.72,43.45 226.08,55.09 32.61,5.95 61.63,13.29 87.9,16.1 26.11,3.11 123.99,14.65 123.99,14.65 0,0 -96.65,-18.51 -122.41,-23.35 -25.81,-4.4 -54.39,-13.43 -86.41,-21.06 -64.16,-14.9 -139.04,-38.68 -222.42,-63.99 -83.17,-26.32 -174.43,-56.32 -271.42,-84.76 -14.8,-3.74 -61.48,-18.94 -125.47,-35.43 -32.1,-7.93 -68.34,-16.92 -106.58,-26.31 -38.68,-7.71 -79.8,-14.54 -120.69,-22 -68.62,-10.89 -136.62,-18.92 -195.68,-24 16.66,-2.27 35.69,-0.94 55.77,-1.08 40.43,2.17 86.67,8.63 136.36,14.43 25.06,2.22 49.85,6.93 75.22,11.06 25.35,4.17 115.25,19.04 115.25,19.04 12.65,3.07 87.58,21.23 111.7,27.07 48.59,10.38 93.03,26.28 133.05,37.98 80.16,23.3 138.14,46.48 156.53,52.21 59.95,21.54 120.39,42.18 179.02,59.49 29.81,6.87 59.07,13.63 87.78,20.25 28.83,5.69 57.41,9.1 85.09,13.55 111.22,14.59 211.99,18.1 296.26,18.38 84.34,1.07 152.48,-0.78 199.58,-0.93 47.12,-0.57 73.17,-0.82 73.17,-0.82 0,0 -104.09,-4.68 -272.32,-12.18 -167.65,-8.03 -401.27,-24.94 -639.08,-123.99 -18.58,-5.83 -76.52,-29.51 -157.23,-53.85 -40.32,-12.18 -84.96,-28.61 -134.1,-39.67 -24.34,-6.15 -100.16,-25.25 -112.95,-28.47l-39.14 -6.87c-105.1,-19.34 -207.19,-34.68 -292.47,-41.16 -12.38,-0.03 -24.19,-0.53 -35.61,-0.52 2.67,-2.61 5.18,-4.89 7.78,-7.9 3.88,-4.33 8.32,-9.01 12.71,-13.76 9.78,-0.23 22.18,-0.46 37.46,0.3 27.6,0.91 63.48,3.57 104.86,8.87 41.36,4.9 88.13,12.17 138.04,19.58 50.65,7.21 102.33,13.87 153.73,23.18 102.83,20.53 202.6,57.26 282.52,84.64 79.74,28.31 139.65,49.24 158.46,54.9 124.02,42.31 247.78,64 359.57,77.59 27.94,4.23 55.36,6.78 82.02,9.17 26.62,2.38 52.44,5.17 77.47,6.92 50.2,2.25 96.61,5.73 139.53,6.12 85.48,-0.02 154.02,-4.1 201.48,-1.26 23.66,1.64 42.09,2.92 54.4,5.26 12.4,1.84 18.92,2.81 18.92,2.81 0,0 -6.44,-1.35 -18.71,-4.04 -12.18,-3.05 -30.56,-5.41 -54.3,-8.36 -47.43,-5.46 -116.77,-4.91 -201.36,-8.36 -42.18,-2.12 -88.64,-7.33 -138.28,-11.18 -24.82,-2.59 -50.4,-6.07 -76.75,-9.2 -26.38,-3.12 -53.52,-6.37 -81.17,-11.23 -111.11,-16.15 -231.95,-39.14 -354.07,-80.76 -18.63,-5.57 -77.67,-26.76 -157.35,-55.87 -53.21,-18.8 -115.59,-41.92 -182.55,-61.88 71.8,17.42 139.89,37.75 197.96,54.07 84.07,24.18 146.62,42.13 166.04,47.72 129.45,36.45 256.5,58.98 372.44,70.53 116.07,11.41 221.2,12.11 309.08,8.11 87.89,-4.84 158.59,-13.12 207.15,-20.29 48.45,-7.87 75.22,-12.25 75.22,-12.25 0,0 -26.97,2.83 -75.74,7.93 -48.78,4.54 -119.56,9.37 -207.01,10.63 -87.42,0.52 -191.57,-3.67 -306.11,-17.54 -114.61,-14.09 -239.22,-37.97 -367.59,-74.03 -19.33,-5.65 -81.58,-23.25 -165.17,-48.84 -83.88,-24.46 -188.95,-57.68 -297.64,-78.52 -26.86,-6.44 -54.29,-10.21 -81.35,-13.87 -26.92,-3.7 -53.98,-7.85 -79.22,-10.78 -49.47,-6.31 -96.97,-12.54 -139.64,-16.18 13.68,-1.71 28.27,-3.08 44.03,-3.71 37.69,-2.45 80.61,0.44 125.7,6.57 45.1,5.79 92.5,18.05 140.25,28.96 95.59,20.88 190.07,48.11 265.84,67.93 75.86,20.16 132.12,35.68 149.8,39.82 58.78,13.48 115.46,28.69 171.69,39.03 28.3,4.35 55.8,11.03 83.24,12.99 27.42,2.38 54.17,5.59 80.36,6.94 104.91,5.44 198.95,-1.76 277.46,-7.7 78.55,-6.86 141.83,-14.18 185.59,-18.84 43.78,-4.8 67.96,-7.46 67.96,-7.46 0,0 -97.25,4.74 -254.41,12.39 -78.48,2.39 -172.08,6.05 -275.07,-1.95 -25.74,-1.94 -51.92,-5.71 -78.73,-8.5 -26.85,-2.45 -53.59,-9.52 -81.21,-14.11 -55,-10.87 -111.64,-26.5 -169.9,-39.78 -17.57,-4.15 -73.59,-20.19 -148.97,-41 -75.62,-20.63 -170.03,-48.91 -266.27,-70.91 -47.83,-11.45 -95.52,-24.32 -142.76,-30.93 -46.93,-6.8 -92.08,-10.19 -132.05,-7.93 -0.88,0.02 -1.61,0.1 -2.45,0.12 7.63,-1.11 15.46,-2.25 23.74,-3.45 9.59,-0.6 19.56,-1.27 29.87,-1.92 41.23,-2.06 88.48,-0.93 137.74,6.79 49.16,7.6 101.66,19.79 154.12,30.32 104.5,23.74 208.59,50.99 292.02,71.59 83.48,20.38 146.01,34.51 165.67,37.94 128.95,27 255.79,43.25 370.25,38.93 28.6,-0.07 56.47,-0.15 83.61,-0.24 27.07,-0.79 53.32,-4.07 78.71,-5.92 25.33,-2.21 85.03,-7.45 90.78,-7.97 5.7,-0.99 38.98,-6.86 49.64,-8.8 42.51,-7.83 81.08,-14.04 114.59,-21.26 33.1,-8.83 157.21,-42.1 157.21,-42.1 0,0 -125.57,26.34 -158.98,33.45 -33.67,5.58 -72.31,10.02 -114.8,16.12 -10.61,1.46 -43.78,6.02 -49.45,6.76 -5.73,0.29 -65.05,3.42 -90.26,4.74 -25.17,1.05 -51.14,3.53 -77.96,3.53 -26.86,-0.58 -54.47,-1.21 -82.79,-1.87 -113.64,1.64 -236.77,-15.98 -364.87,-42.76 -19.39,-3.33 -81.28,-17.89 -164.2,-38.93 -82.9,-21.22 -186.95,-49.6 -291.97,-74.43 -52.82,-11.12 -104.95,-23.73 -156.37,-32.19 -51.3,-8.48 -100.74,-10.03 -144.36,-8.24 -8.15,0.49 -15.84,0.94 -23.56,1.38 10.73,-8.11 22.09,-17.07 34,-27.03 7.58,-0.46 20.6,-1.23 38.17,-2.26 8.38,-0.06 18.38,0.02 30.25,0.59 25.62,1.61 58.78,5.11 96.89,12.15 38.15,6.72 81.17,16.91 127.01,27.44 45.8,10.91 95.4,20.66 143.45,30.82 96.76,20.46 193.36,44.6 271.1,61.44 38.83,8.55 73.01,14.91 99.46,20.46 26.75,4.49 45.92,7.71 55.01,9.27 30.06,5.71 60.22,8.74 89.84,12.28 29.54,4.26 59.12,4.77 88.05,6.42 29,2.49 57.21,0.3 84.93,-0.32 27.63,-0.87 54.71,-1.73 81.19,-2.61 26.42,-0.29 52.07,-2.94 76.95,-5.36 24.94,-2.39 49.11,-4.73 72.46,-6.97 46.85,-3.6 90.02,-10.78 129.44,-16.83 39.36,-6.36 75.17,-10.86 106.2,-17.21 31.04,-6.4 147.21,-30.72 147.21,-30.72 0,0 -117.35,17.31 -148.6,22 -31.24,4.75 -67.15,7.47 -106.57,12.11 -39.51,4.29 -82.68,9.73 -129.35,11.65 -23.27,1.48 -47.38,3.01 -72.2,4.53 -24.77,1.7 -50.22,3.59 -76.44,3.23 -26.25,0.28 -53.05,0.58 -80.46,0.84 -27.39,0.06 -55.51,1.79 -83.62,-1.03 -28.27,-2.03 -57.06,-2.75 -86.15,-7.2 -29.07,-3.63 -58.66,-6.69 -88.31,-12.38 -8.93,-1.59 -27.86,-4.95 -54.22,-9.5 -26.19,-5.71 -59.91,-12.31 -98.42,-21.23 -77.03,-17.43 -173.34,-42.58 -270.74,-64.16 -38.52,-8.58 -75.79,-16.65 -112.28,-25.11 30.66,3.49 61.78,7.4 92.67,11.99 97.83,14.99 195.2,36.9 273.32,52.06 38.99,8.03 73.2,14.32 99.91,19.02 26.68,4.99 45.9,8.17 55.07,9.35 120.85,19.93 238.91,25.95 344.97,18.74 106.2,-7.07 200.18,-23.46 278.93,-36.8 157.17,-28.37 254.35,-45.88 254.35,-45.88 0,0 -98.34,10.07 -256.47,32.04 -79.05,9.86 -173.23,22.78 -278.08,27.07 -104.79,4.51 -219.67,-3.03 -339.25,-22.72 -9.04,-1.18 -28.05,-4.45 -54.46,-9.66 -26.42,-4.85 -60.33,-11.41 -99.11,-19.76 -77.72,-15.9 -174.99,-38.89 -274.09,-55.02 -87.99,-13.95 -174.82,-22.77 -248.88,-28.54 5.28,-0.06 10.39,-0.27 15.93,0.04 72.88,1.78 165.91,16.85 259.19,31 93.16,15.06 391.15,61.28 408.4,63.51 114.75,15.68 225.14,24.74 325.81,24.84 100.71,0.39 191.18,-8.47 266.19,-20.78 74.74,-14.02 134.13,-30.2 174.28,-43.75 39.9,-14.2 61.95,-22.04 61.95,-22.04 0,0 -22.5,6.37 -63.19,17.86 -40.78,10.97 -100.57,23.65 -175.15,34.1 -74.75,8.73 -164.28,14.03 -263.7,11.02 -99.42,-2.71 -208.44,-13.38 -322.49,-28.93 -17.12,-2.19 -72.44,-10.17 -146.62,-22.62 -74.2,-12.78 -344.12,-58.6 -384.54,-64.5 46.31,4.63 94.34,11.8 143.61,18.45 49.29,6.81 236.79,31.27 276.18,36.1 79,8.67 138.32,11.47 156.52,13.55 15.21,1.25 30.29,2.43 45.35,3.62 15.05,0.14 161.45,1.35 175.56,0.91 14.15,-0.89 69.52,-4.36 83.13,-5.3 13.39,-1.59 26.76,-3.15 39.89,-4.7 105.24,-12.68 198.17,-34.13 275.21,-54.64 76.92,-20.93 138.45,-40.06 180.88,-53.51 42.38,-13.61 65.76,-21.17 65.76,-21.17 0,0 -23.86,6.06 -66.97,17.01 -43.15,10.89 -105.54,26.67 -183,44.1 -77.5,17.01 -170.38,34.86 -274.37,44.76 -12.99,1.24 -26.14,2.48 -39.46,3.75 -13.34,0.58 -67.94,3.01 -81.82,3.61 -13.99,0.22 -28.04,-0.43 -42.3,-0.56 -28.47,-0.5 -116.24,-1.87 -131.12,-2.08 -14.86,-1.24 -29.83,-2.41 -44.88,-3.67 -18.13,-2.03 -76.68,-5.33 -155.04,-14.77 -39.12,-5.17 -373.38,-53.71 -420.4,-58.82 -29.03,-2.16 -56.91,-4.59 -83.43,-6.13 17.8,-0.93 37.67,-1.33 59.63,-0.3 73.82,1.53 167.37,18.11 262.93,26.1 94.87,11.98 190.95,13.08 267.12,16.28 76.32,-1.82 133.13,-3.15 150.74,-3.57 58.41,-3.8 115.24,-10.26 170.15,-15.31 54.48,-8.88 106.82,-18.63 156.71,-27.49 49.34,-11.46 95.68,-24.78 139.24,-36.11 10.86,-3 21.59,-5.57 31.95,-8.75 10.27,-3.63 68.75,-24.37 86.77,-30.8 72.76,-23.71 128.14,-51.74 167.18,-68.9 38.78,-17.7 60.23,-27.47 60.23,-27.47 0,0 -22.05,8.37 -61.95,23.47 -40.01,14.71 -96.46,39.41 -169.88,59.67 -18.17,5.56 -77.02,23.68 -87.31,26.85 -10.43,2.8 -21.18,4.98 -32.02,7.53 -43.58,9.59 -89.82,21.35 -138.87,31.38 -49.53,7.66 -101.5,15.75 -155.37,24.07 -54.39,4.22 -110.52,10.18 -168.18,13.96 -17.43,0.28 -73.58,1.11 -149.03,2.22 -75.31,-3.98 -170.19,-5.98 -264.14,-18.9 -17.85,-1.63 -35.74,-3.71 -53.52,-5.85 28.16,-0.16 56.58,-0.14 85.94,-0.08 178.31,7.32 356.47,-15.3 388.9,-18.52 216.85,-24.35 407.26,-81.55 539.71,-132.99 33.07,-13.2 63.61,-23.39 89.14,-35.61 25.67,-11.85 121.65,-56.49 121.65,-56.49 0,0 -98.67,38.05 -124.92,48.27 -26.04,10.68 -57.09,19.15 -90.54,30.67 -134.18,44.66 -324,94.33 -538.28,118.42 -32.16,3.13 -208.33,23.42 -384.79,14.23 -43.91,-0.58 -89.36,-1.31 -131.17,-0.93 -41.96,0.58 -81.65,1.21 -116.21,0.44 -8.05,-0.11 -15.87,-0.19 -23.41,-0.26 0.33,-0.08 0.57,-0.15 0.88,-0.25 8.73,-1.79 17.7,-3.68 26.94,-5.63 9.34,-1.18 19.02,-1.85 28.89,-2.86 19.78,-1.62 40.38,-4.43 61.65,-5.33 42.76,0.2 87.7,0.07 134.32,1.74 92.37,4.39 184.99,0.58 258.64,-1.64 73.5,-5.84 128.22,-10.18 145.18,-11.52 56.12,-6.96 110.78,-14.48 163.52,-22.09 26.21,-5.25 51.94,-10.4 77.14,-15.38 24.85,-6.3 49.27,-12.49 73.05,-18.44 94.63,-26.34 176.81,-58.83 244.52,-88.23 67.5,-30.15 120.86,-56.99 157.48,-75.87 36.52,-19.17 56.73,-29.74 56.73,-29.74 0,0 -20.86,9.17 -58.6,25.8 -37.74,16.51 -92.48,40.1 -160.91,66.89 -68.69,26.04 -151.27,54.94 -245.18,78.33 -23.57,5.39 -47.74,10.83 -72.41,16.45 -24.93,4.49 -50.32,9.08 -76.22,13.8 -52.32,6.69 -106.45,13.6 -161.95,20.72 -16.81,1.16 -70.99,4.94 -143.8,10.06 -68.62,1.32 -153.75,3.75 -239.73,-0.38 7.84,-0.58 15.38,-1.13 23.27,-1.73 20.24,-2 40.64,-4.77 61.05,-7.17 81.84,-8.84 163.2,-22.37 228.07,-32.33 64.46,-12.3 112.51,-21.45 127.41,-24.28 197.67,-39.13 371.01,-98.49 492.44,-149.19 61.4,-23.89 109.08,-47.8 142.35,-63.43 33.16,-15.91 51.5,-24.64 51.5,-24.64 0,0 -18.96,7.36 -53.21,20.64 -34.31,13.19 -83.26,33.86 -145.56,54.37 -123.51,44.02 -297.08,96.1 -493.07,134.85 -14.83,2.68 -62.52,11.27 -126.64,22.79 -64.54,9.18 -145.45,21.57 -226.78,29.36 -20.3,2.12 -40.55,4.66 -60.61,6.41 -20.12,1.28 -206.77,13.14 -223.73,14.28 46.26,-11.92 183.47,-47.93 327.07,-51.58 80.32,-4.91 160.98,-11.68 224.91,-19.64 63.95,-7.95 111.3,-15.98 125.97,-18.92 97.79,-16.07 188.39,-44.36 269.5,-68.77 81.63,-24.65 154.75,-49.47 213.93,-76.1 59.44,-25.94 104.48,-53.53 133.19,-75.55 14.25,-11.16 24.97,-20.12 31.61,-26.96 6.88,-6.59 10.51,-9.99 10.51,-9.99 0,0 -3.89,3.13 -11.27,9.08 -7.12,6.25 -18.46,14.32 -33.35,24.34 -29.99,19.64 -76.04,43.79 -135.99,66.21 -59.71,23.04 -133.04,44.26 -215.11,66.3 -82.54,22.09 -171.54,48.08 -267.84,63.92 -14.42,2.9 -61.23,10.29 -124.54,17.37 -63.36,7.13 -143.26,12.78 -223.4,16.71 -48.77,0.76 -98.42,5.33 -143.97,11.47 2.33,-2.26 4.64,-4.45 7.2,-6.9 6.11,-2.18 45.25,-16.2 58.49,-20.93 13.47,-3.18 26.78,-6.32 39.75,-9.35 25.92,-6.08 50.39,-12.24 72.95,-14.91 22.31,-3.39 41.78,-6.39 56.92,-8.7 15.26,-1.98 26.33,-2.8 31.5,-3.39 69.54,-6.48 135.74,-12.69 195.99,-18.3 30.22,-2.74 58.94,-6.34 85.73,-10.46 26.79,-3.73 51.75,-7.27 74.24,-12.67 22.54,-4.89 42.94,-9.08 60.72,-13.36 17.44,-5.53 82.59,-26.5 82.59,-26.5 0,0 -66.76,14.05 -84.49,17.86 -17.95,2.44 -38.44,5.15 -61.04,8.21 -22.48,3.63 -47.44,5.4 -74.2,7.46 -26.66,2.47 -55.27,4.55 -85.46,6 -60.26,3.95 -126.97,6.49 -196.95,14 -5.29,0.49 -16.45,1.56 -31.95,3.06 -15.51,2.08 -35.41,4.81 -58.23,7.91 -12.36,1.26 -25.63,3.62 -39.41,6.4 26.41,-6.8 53.67,-13.99 82.92,-16.98 71.05,-10.86 399.82,-56.75 441.15,-63.18 41.22,-7.15 80.79,-15.99 118.46,-23.55 74.87,-18.11 142.05,-35.92 196.5,-56.75 55.49,-17.81 97.82,-38.76 127.39,-52.1 29.46,-13.58 45.75,-21.08 45.75,-21.08 0,0 -16.9,6.09 -47.42,17 -30.53,10.95 -73.88,28.55 -129.97,42.85 -55.09,17.37 -122.43,31.58 -197.03,47 -37.64,6.21 -76.97,13.95 -118.03,20.27 -41.2,5.86 -369.69,47.87 -441.8,57.86 -22.89,2.03 -45.85,6.96 -68.35,12.29 42.09,-22.95 93.63,-47.45 147.22,-55.24 133.87,-14.97 267.94,-38.08 292.32,-42.49 163.26,-27.39 307.75,-70.63 408.39,-110.61 25.07,-10.16 48.21,-18.17 67.64,-27.55 19.48,-9.17 92.2,-43.78 92.2,-43.78 0,0 -75.36,28.07 -95.45,35.58 -19.91,7.77 -43.56,14.11 -69.06,22.55 -102.36,33.23 -246.59,69.09 -408.47,96.29 -24.38,4.38 -157.21,25.19 -291.49,38.2 -8.31,1.09 -16.55,2.55 -24.74,4.28 1.85,-0.36 2.76,-1.62 6.44,-3.55 1.62,-0.79 3.53,-1.83 5.45,-2.83 4.4,-1.63 9.05,-3.28 13.94,-4.92 37.09,-13.1 85.54,-25.91 135.39,-36.12 49.74,-10.49 100.2,-20.41 140.19,-30.53 39.66,-11.01 69.29,-19.07 78.21,-22.39 120.52,-38.1 222.2,-90.61 293.05,-131.87 35.3,-20.95 63.62,-38.27 82.69,-51.02 19.13,-12.6 29.73,-19.57 29.73,-19.57 0,0 -82.2,40.49 -118.91,58.24 -73.83,34.9 -176.96,80.31 -294.86,117.54 -8.72,3.23 -37.83,10.6 -76.78,20.6 -33.08,7.75 -74.04,15.22 -116.36,23.25 5.38,-2.14 10.69,-4.24 16.03,-6.36 96.94,-36.06 195.5,-72.2 213.21,-80.34 118.46,-50.25 216.92,-111.31 287.87,-154.7 71.19,-43.19 115.26,-69.94 115.26,-69.94 0,0 -47.25,20.77 -122.08,57.74 -74.54,37.48 -175.83,91.92 -291.58,141.03 -16.13,7.5 -103.41,37.52 -195.57,69.79 11.85,-7.73 24.94,-15.48 38.57,-24.14 17.52,-10.7 35.64,-22.42 54.79,-32.8 75.37,-43.33 152.84,-84.5 166.92,-92.18 47.15,-25.2 92.05,-49.16 131.93,-73.01 19.93,-11.84 38.92,-23.13 56.67,-33.69 17.27,-11.41 33.31,-22.06 48,-31.82 29.68,-18.72 51.53,-37.49 66.75,-49.83 15.1,-12.44 23.5,-19.34 23.5,-19.34 0,0 -9.33,5.66 -26.11,15.84 -16.76,10.2 -40.08,25.8 -71.46,41.47 -15.29,8.3 -334.81,172.61 -411.92,214.63 -12.62,6.53 -24.84,13.59 -36.86,20.65 64.22,-65.04 120.34,-121.92 133.05,-133.6 100.51,-97.45 192.44,-184.59 265.03,-240.64 34.73,-30.09 66.09,-50.02 86.57,-65.66 20.73,-15.26 32.22,-23.71 32.22,-23.71 0,0 -12.31,7.12 -34.6,20.03 -21.88,13.46 -55.41,30.63 -92.49,58.14 -77.38,50.91 -175.16,133.9 -276.18,231.79 -15.57,14.36 -260.29,252.13 -269.42,260.84 -0.52,0.43 -1.11,1.05 -1.69,1.58 -13.17,5.57 -25.84,11.15 -37.28,16.75 -1.54,0.7 -2.98,1.38 -4.47,2.05 13.02,-11.61 26.16,-23.42 39.39,-35.16 47.78,-44.47 93.85,-92.11 127.92,-131 35.07,-38.53 59.8,-67.67 67.97,-76.53 100.41,-122.84 217.09,-205.28 299.86,-268.36 83.4,-62 134.17,-101.66 134.17,-101.66 0,0 -54.67,33.85 -142.17,90.21 -44.02,27.72 -95.12,63.2 -150.25,105.05 -26.45,22.49 -55.09,45.38 -82.91,70.92 -25.71,27.37 -53.41,55.43 -79.5,85.21 -8.07,8.7 -33.59,37.94 -68.77,75.42 -34.73,38.45 -79.82,83.58 -127.66,126.79z"/>
   <path class="fil0" d="M2002.28 2313.36c-25.14,-7.36 -49.93,-14.7 -74.08,-21.81 -24.19,-6.96 -48.89,-9.72 -71.96,-14.49 -11.59,-2.18 -22.93,-4.22 -33.98,-6.25 -11.13,-0.89 -73.37,-5.54 -91.36,-6.86 -0.47,0 -0.91,0.03 -1.4,0 1.16,-0.68 2.34,-1.39 3.55,-2.14 1.59,-0.08 2.75,-0.15 4.44,-0.28 6.38,-0.38 13.44,-0.84 21.34,-1.38 7.87,-0.17 16.53,0.24 25.85,0.29 20.18,-0.28 43.86,1.37 69.83,4.28 0.24,0.05 0.46,0.09 0.69,0.15 61.76,12.1 131.88,36.76 203.63,67.82 -18.8,-6.85 -37.47,-13.91 -56.58,-19.32zm183.78 -7.59c11.73,4.42 23.73,8.85 35.53,13.25 -1.61,-0.47 -72.59,-21.45 -105.29,-31.12 -37.75,-11.48 -74.66,-21.87 -110.27,-30.68 -14.89,-5.47 -29.52,-10.64 -43.7,-15.53 5.1,1.31 174.67,47.43 187.08,50.82 12.31,3.74 24.32,8.83 36.64,13.25zm-511.92 -60.89l4.24 6.8c-3.85,1.96 -7.12,3.61 -9.22,4.72l3.79 8.23c-15.16,0.33 -27.57,0.64 -36.48,0.83 9.99,-6.89 20.57,-14.51 31.61,-22.73l0.03 1.83c1.55,0.1 3.95,0.2 6.04,0.31zm1347.84 -1944.25c11.18,-9.7 17.06,-14.86 17.06,-14.86 0,0 -48.27,37.99 -53.18,41.85 -4.5,4.36 -9.36,8.96 -14.49,13.79 -42.57,37.22 -96.5,100.53 -146.88,188.81 -49.69,88.67 -92.91,202.33 -131.72,330.05 -40.04,127.41 -76.89,269.22 -141.77,407.57 -4.71,10.55 -14.37,32.83 -29.92,63 -7.62,15.17 -16.33,32.47 -25.88,51.57 -9.76,18.97 -21.45,39.22 -33.43,61.16 -48.38,87.27 -115.19,193.55 -188.77,294.92 -18.74,25.16 -37.43,50.27 -55.82,75.1 -19.14,24.21 -251.7,307.11 -272.97,333.1 -10.04,0.52 -18.11,0.94 -23.06,1.11l1.64 20.13c-22.33,-0.15 -38.6,1.04 -46.94,0.88l0.47 8.24c-2.49,0.52 -4.89,1.11 -7.18,1.72 -6.93,-0.84 -13.09,-1.62 -18.17,-2.17 -1.88,-0.5 -3.69,-0.96 -5.37,-1.43 39.65,-37 80.55,-81.44 116.98,-128.11 53.53,-65.02 356.16,-440.82 370.24,-459.54 13.64,-19.05 26.91,-37.7 39.92,-55.92 51.15,-73.4 92.59,-142.72 124.65,-202.25 31.27,-60.02 53.19,-110.2 66.61,-145.44 12.84,-35.42 19.97,-55.07 19.97,-55.07 0,0 -8.54,19 -23.98,53.36 -15.78,34.13 -40.77,82.52 -74.78,140.33 -34.82,57.36 -78.8,124.06 -131.61,195.34 -13.34,17.72 -69.9,91.32 -84.78,110.32 -30.69,37.48 -358.39,431.8 -372.71,447.67 13.61,-16.41 26.74,-33 39.23,-48.14 32.21,-41.72 56.29,-76.72 63.43,-85.8 72.72,-102.94 133.13,-198.5 183.72,-262.98 23.84,-33.47 46.29,-57.87 61.19,-75.38 14.91,-17.59 23.12,-27.33 23.12,-27.33 0,0 -9.35,8.64 -26.23,24.28 -16.82,15.74 -42.06,38 -68.83,69.53 -56.47,60.59 -123.58,153.58 -195.71,255.64 -7,8.9 -31.53,43.22 -63.99,83.53 -16.9,19.58 -34.46,41.89 -53.46,62.57 -19.61,20.03 -57.77,59 -57.77,59 -31.59,33.69 -60.87,60.92 -84,79.04 -0.86,0.7 -1.53,1.18 -2.35,1.89 -2.14,-0.12 -3.97,-0.2 -6.01,-0.28 23.63,-19.49 48,-41.89 72.29,-66.48 33.12,-33.62 62.27,-74.92 90.08,-113.72 55.99,-79.31 114.81,-156.28 161.42,-217.79 48.87,-59.6 85.3,-103.99 96.62,-117.73 38.83,-44.49 78.52,-86.2 115.72,-127.63 18.89,-20.48 38.76,-39.84 57.45,-59.23 18.8,-19.42 36.09,-39.61 53.52,-58.7 68.24,-77.81 122.13,-154.21 163.05,-220.79 39.2,-67.62 65.94,-125.03 81.58,-165.69 14.8,-40.94 22.98,-63.57 22.98,-63.57 0,0 -9.62,22.03 -26.98,61.85 -18.03,39.42 -47.71,94.89 -89.47,159.98 -43.41,64.08 -99.35,137.36 -168.69,212.5 -17.72,18.45 -35.18,37.86 -54.2,56.8 -19.03,18.91 -38.89,37.63 -58.2,57.99 -38.17,41.36 -78.65,83.34 -117.9,128.2 -11.52,13.75 -48.6,58.16 -98.42,117.84 -47.52,61.43 -107.52,138.33 -164.31,217.03 -29.15,39.67 -56.42,77.72 -88.28,109.38 -31.87,31.65 -63.97,59.71 -94.36,82.18 -20.72,15.75 -39.94,29.12 -57.04,40.44 2.66,-2.06 5.23,-3.93 7.92,-6.08 56.29,-45.54 122.88,-107.94 178.83,-180.31 57.34,-70.27 107.08,-146.16 147.53,-205.17 40.3,-59.25 70.65,-102.75 80.83,-115.64 32.42,-44 65.33,-85.83 99.77,-123.78 34.28,-37.9 69.58,-73.13 103.51,-106.49 67.75,-66.62 130.06,-126.15 177.77,-180.61 24.02,-27.01 44.83,-52.36 62.39,-75.05 16.56,-23.5 31.99,-42.84 42.44,-60.18 20.86,-34.51 32.42,-53.58 32.42,-53.58 0,0 -12.86,18.21 -36.01,51.09 -11.45,16.5 -28.08,34.85 -45.77,57.12 -18.68,21.5 -40.57,45.49 -65.66,71.09 -49.83,51.6 -114.04,108.13 -183.89,173.07 -34.93,32.5 -71.13,67.12 -106.98,105.58 -35.74,38.25 -69.68,80.63 -102.44,125.12 -10.33,13.12 -41.49,56.84 -82.44,115.7 -41.25,58.76 -91.33,133.24 -148.43,201.69 -54.82,69.44 -120.75,129.94 -175.25,173.21 -41.34,33.14 -77.56,52.81 -98.09,61.15 16.21,-12.32 33.79,-26.2 52.4,-41.71 35.38,-29.56 74.09,-65.18 110.31,-107.35 37.08,-41.88 69.4,-89.9 103.05,-136.77 65.4,-95.13 128.55,-191.22 182.89,-264.52 53.89,-73.67 100.27,-122.99 113.65,-139.16 24.79,-24.41 48.64,-49.18 73.24,-72.45 25.96,-21.8 128.01,-105.85 152.91,-126.01 24.6,-20.57 47.89,-41.7 70.93,-61.84 91.1,-82.28 162.72,-167.78 213.81,-245.07 23.78,-39.91 46.88,-74.91 61.39,-108.9 15.91,-33.18 30.27,-61.29 38.29,-86 17.88,-48.37 27.84,-75.09 27.84,-75.09 0,0 -11.36,26.11 -31.88,73.4 -9.15,24.08 -24.89,51.44 -42.1,83.62 -15.82,32.97 -40.24,66.73 -65.05,105.15 -53.44,74.43 -126.28,155.99 -217.96,235.32 -23.26,19.43 -46.64,39.84 -71.34,59.83 -24.96,19.61 -50.55,39.61 -76.47,59.99 -25.89,21.38 -52.19,43.11 -78.91,65.12 -25.27,23.66 -49.8,48.95 -75.17,73.91 -13.57,16.44 -61.41,66.5 -116.6,140.66 -55.57,73.69 -120.02,169.72 -185.74,263.66 -33.77,46.33 -66.24,93.58 -101.89,133.06 -35.15,40.28 -72.79,74.34 -107.32,102.91 -69.36,56.99 -125.93,93.06 -141.67,104.69l10.54 15.56 -2.07 8.57c2.36,0.4 5.52,1.05 9.12,1.8l2.12 3.07c0.73,-0.54 2.05,-1.38 2.99,-2.07 11.99,2.55 28.71,6.02 50.13,8.67 31.71,4.13 72.94,7.19 119.43,8.3 46.54,1.98 98.88,1.87 152.66,9.37 53.26,7.18 109.56,23.57 165.28,39.82 111.39,33.61 217.63,83.1 298.04,129.4 80.96,45.54 137.13,86.32 154.34,99.03 113.57,84.87 218.89,175.08 320.64,247.15 51.87,34.73 101.15,67.73 147.25,98.62 47.03,29.37 91.92,54.93 132.37,79.1 80.6,48.95 148.66,83.31 194.72,108.84 46.37,24.92 72.03,38.7 72.03,38.7 0,0 -24.89,-15.14 -69.85,-42.51 -44.7,-27.77 -111.11,-65.21 -189.61,-116.96 -39.47,-25.57 -83.32,-52.54 -129.22,-83.24 -45.08,-31.8 -93.25,-65.84 -143.9,-101.68 -99.8,-73.84 -201.54,-163.52 -318.02,-250.59 -17.48,-12.97 -74.19,-54.82 -156.23,-101.87 -81.49,-47.82 -189.45,-99.27 -302.88,-134.57 -56.79,-17.02 -113.45,-34.17 -170.44,-42.38 -56.52,-8.27 -109.61,-8.51 -155.89,-10.79 -46.4,-1.45 -85.8,-4.61 -116.06,-8.6 -5.1,-0.65 -9.44,-1.41 -13.95,-2.13 10.26,-7.18 21.76,-15.52 34.42,-24.97l6.84 28.72c4.14,-1.25 10.98,-3.13 19.62,-6.17 8.14,-3.54 18.6,-7.78 29.45,-14.01 1.46,-0.78 3.03,-1.8 4.53,-2.64l4.63 7.98 -0.23 4.4c0.79,0.09 2.09,0.24 3,0.32l8.69 14.97c4.11,-2.57 11.52,-6.88 21.08,-12.65 34.26,2.64 88.63,7.24 155.37,17.11 23.93,3.94 49.39,8.18 76.09,12.58 26.53,5.39 54.26,11.01 82.75,16.8 56.36,11.73 114.12,29.64 169.71,54.17 111.64,48.32 211.97,120.69 290.08,179.63 77.88,59.51 134.52,106.27 152.52,120.19 58.78,47.45 118.34,92.27 176.78,132.72 58.36,40.94 114.21,80.91 169.01,117 54.04,37.04 107.33,69.54 156.88,100.29 25.16,14.75 49.93,28.28 73.48,41.63 11.83,6.61 23.39,13.11 34.75,19.48 11.66,5.74 77.7,38.13 97.8,47.92 20.02,9.95 40.05,16.78 58.18,24.5 36.56,14.73 67.74,28.03 94.61,35.2 52.91,16.29 82.16,25.29 82.16,25.29 0,0 -28.76,-10.45 -80.7,-29.38 -26.33,-8.36 -56.85,-23.08 -92.55,-39.23 -17.73,-8.42 -37.27,-15.97 -56.79,-26.62 -19.58,-10.48 -84.01,-44.98 -95.36,-51.09 -11.08,-6.66 -80.79,-48.95 -105.54,-63.97 -48.41,-31.99 -100.51,-65.51 -153.64,-103.5 -53.73,-36.94 -108.9,-77.81 -166.65,-119.24 -58.25,-41.25 -116.19,-85.4 -174.95,-132.86 -17.96,-13.88 -74.09,-60.86 -152.2,-121.61 -78.31,-59.97 -179.63,-134.61 -294.86,-185.63 -10.81,-4.86 -21.82,-9.33 -32.8,-13.7 7.95,2.84 15.86,5.71 23.85,8.38 97.5,35.48 189.88,84.08 261.44,126.16 70.93,43.3 121.92,78.52 137.77,89.46 104.73,73.13 200.76,148.41 288.71,216.27 87.83,68.04 167.83,128.48 236.3,177.4 68.9,48.44 126.1,85.49 166.41,109.78 40.55,23.79 62.99,36.89 62.99,36.89 0,0 -21.6,-14.42 -60.66,-40.55 -38.81,-26.46 -93.85,-66.32 -160.41,-117.32 -40.66,-31.68 -85.64,-67.7 -134.2,-106.95 36.79,27.16 73.04,53.38 108.56,78.08 108.01,76.29 211.23,136.75 300.06,182.63 45.12,21.72 85.29,42.5 122.7,56.26 36.96,14.6 68.2,28.44 95.21,35.87 53.25,16.79 82.68,26.04 82.68,26.04 0,0 -28.91,-10.71 -81.2,-30.14 -26.47,-8.62 -57.08,-23.82 -93.12,-39.91 -36.53,-15.14 -75.77,-37.39 -119.71,-60.45 -86.63,-48.68 -187.07,-111.46 -293,-189.49 -106.46,-77.25 -219.92,-167.25 -341.5,-259.23 -18.3,-13.78 -76.95,-58.97 -158.23,-116.63 -45.46,-32.78 -98.79,-68.83 -156.47,-104.42 97.24,52.38 189,109.52 264,156.9 88.12,56.17 152.64,100 172.82,113.19 133.21,89.6 260.27,175.23 379.79,247.11 119.29,72.32 231.1,130.23 327.12,173.94 96.77,42.17 177.36,70.54 233.9,87.03 56.75,15.67 88.12,24.34 88.12,24.34 0,0 -30.87,-10.16 -86.81,-28.49 -55.57,-18.95 -134.61,-50.46 -229.31,-95.58 -94,-46.56 -203.33,-107.1 -320.65,-181.27 -117.55,-73.79 -243.28,-160.58 -376.58,-250.23 -20.28,-13.26 -84.49,-57.54 -172.6,-114.65 -88.27,-56.66 -199.86,-127.44 -317.28,-188.15 -14.17,-7.4 -28.41,-14.6 -42.65,-21.68 2.63,0.85 5.32,1.57 7.96,2.47l50.43 17.66c271.27,91.38 513.55,250.85 557.06,279.22 18.3,12.03 36.48,23.9 54.57,35.75 17.93,12.04 35.32,24.6 52.8,36.69 17.42,12.19 34.81,24.27 51.95,36.25 17.16,12.04 33.39,25.23 49.91,37.62 66.05,50.09 131.1,97.03 194.51,139.6 63.36,42.53 125.08,80.96 184.61,113.73 29.39,17.01 58.99,31.33 86.92,45.97 28.72,13.12 55.58,27.11 82.51,37.75 106.34,45.54 197.51,69.05 261.08,79.51 31.71,6 56.68,7.85 73.64,9.17 16.85,1.48 25.7,2.21 25.7,2.21 0,0 -8.81,-1.16 -25.62,-3.4 -16.81,-2.08 -41.6,-5.04 -72.91,-12.28 -62.8,-12.97 -152.25,-39.69 -256.22,-88.02 -26.33,-11.28 -52.61,-25.99 -80.63,-39.66 -27.32,-15.35 -56.27,-30.19 -84.98,-47.82 -58.22,-33.91 -118.62,-73.3 -180.83,-116.64 -62.25,-43.32 -126.19,-90.79 -191.59,-141.41 -16.48,-12.54 -32.6,-25.91 -49.83,-38.2 -17.24,-12.18 -87.33,-61.95 -105.43,-74.12 -18.15,-11.95 -36.47,-23.99 -54.9,-36.08 -20.79,-13.91 -85.99,-56.72 -177.7,-108.69 52.24,27.08 102.18,55.8 151.39,82.04 54.16,28.87 104.81,60.78 154.38,88.07 98.53,55.97 187.09,106.23 259.65,151.45 35.9,23.12 68.62,43.82 96.35,63.39 27.36,20.02 51.9,36.18 70.45,51.28 37.34,29.99 57.99,46.59 57.99,46.59 0,0 -19.68,-17.81 -55.24,-49.96 -17.76,-16.22 -41.45,-33.58 -67.95,-55.09 -26.95,-20.95 -58.83,-43.2 -93.95,-67.88 -71,-48.43 -158.23,-101.9 -255.41,-160.12 -49.05,-28.49 -98.55,-61.02 -152.85,-90.87 -54.19,-29.78 -109.41,-62.49 -167.92,-92.1 -17.76,-8.75 -74.85,-37.01 -151.54,-74.98 -38.87,-17.94 -83.35,-36.72 -130.01,-57.35 -23.41,-10.07 -47.18,-21.08 -71.78,-30.98 -21.54,-8.28 -43.37,-16.68 -65.19,-25 24.05,6.69 48.15,13.68 71.95,21.64 236.55,70.14 456.01,186.62 495.45,208.39 265.56,142.94 482.29,311.66 648.06,420.81 82.69,54.96 151.31,96.84 199.77,123.83 48.68,26.62 75.63,41.24 75.63,41.24 0,0 -26.16,-15.98 -73.38,-44.99 -47.06,-29.22 -113.63,-73.88 -194.04,-131.51 -80.01,-58.59 -175.25,-128.27 -281.01,-205.65 -106.75,-76.48 -228.24,-155.64 -361.72,-228.25 -29.02,-16.06 -155.17,-84.43 -314.16,-148.49 55.1,17.79 95.45,32.68 108.37,37.3 180.53,67.01 335.2,149.04 441.89,216.6 26.51,17.14 51.53,31.35 71.85,46.09 20.37,14.73 97.1,69.91 97.1,69.91 0,0 -72.48,-60.87 -91.92,-77.04 -19.41,-16.14 -43.56,-31.86 -69.27,-50.59 -97.72,-69.75 -240.49,-153.15 -409.95,-219.36 12.44,4.16 24.57,8.22 36.3,12.31 46.89,15.33 86.97,30.98 118.32,42.88 31.53,11.53 53.56,21.19 63.95,25.75 34.57,15.16 69.41,28.9 102.11,45.52 32.88,16.31 66.52,30.34 95.92,49.99 61.58,34.72 116.49,75.94 168.37,115.76 25.26,20.86 49.9,41.18 73.82,60.96 23.42,20.51 152.76,134.68 191.04,166.67 38.54,31.74 72.58,61.38 105.2,84.1 32.1,23.25 58.72,44.67 83.28,58.19 47.56,28.99 73.9,45 73.9,45 0,0 -25.5,-17.31 -71.5,-48.58 -23.67,-14.6 -49.34,-37.19 -80.27,-61.58 -31.39,-23.86 -64.17,-54.74 -101.41,-87.6 -36.99,-33.17 -76.13,-71.07 -119.28,-110.7 -21.54,-19.89 -43.84,-40.46 -66.8,-61.57 -23.73,-20.52 -48.17,-41.55 -73.17,-63.2 -51.72,-41.39 -106.78,-84.19 -169.84,-120.59 -30.22,-20.61 -64,-35 -97.29,-51.74 -33.2,-17.05 -68.26,-31.05 -103.27,-46.37 -8.44,-3.7 -24.64,-10.87 -46.94,-19.62 48.43,16.32 91.14,30.99 124.52,44.14 37.69,14.14 64.72,24.3 77.55,29.15 42.16,16.85 83.34,34.62 124.25,51.5 40.92,16.74 79.94,36.25 119.07,53.67 38.46,18.35 78.38,34.19 116.8,50.34 37.98,17.45 77.43,28.24 115.37,40.26 152.62,45.77 295.8,61.73 415.35,66.75 29.95,0.69 58.49,0.23 85.44,0.33 26.99,0.1 52.38,0.22 76.12,-1.75 47.41,-3.35 88.36,-4.06 121.52,-8.48 66.39,-7.53 103.09,-11.68 103.09,-11.68 0,0 -36.83,2.6 -103.43,7.3 -33.21,3.13 -74.17,2.34 -121.42,4 -23.67,1.16 -48.96,0.21 -75.79,-0.77 -26.8,-0.99 -55.17,-1.37 -84.84,-2.9 -118.53,-8.46 -259.69,-27.82 -409.05,-75.3 -37.11,-12.48 -75.73,-23.6 -112.75,-41.27 -37.62,-16.34 -76.06,-32.02 -115.05,-51.01 -39.17,-17.92 -78.32,-37.76 -119.49,-54.86 -41.02,-17.16 -82.47,-35.17 -124.96,-52.12 -12.82,-4.88 -40.01,-15.28 -77.89,-29.72 -37.68,-15.04 -86.77,-32.09 -143.2,-51.39 -56.05,-20.41 -120.7,-39.06 -188.32,-60.65 -68.33,-19.28 -139.95,-40.99 -212.52,-58.8 -72.13,-19.23 -145,-35.84 -213.92,-51.85 -67.38,-14.76 -131.09,-29.65 -189.53,-38.56 16.91,0.22 34.51,0.66 53.46,1.55 24.89,2.12 51.48,4.33 79.17,6.7 27.75,2.55 56.53,7.59 86.27,11.49 59.31,9.27 121.58,22.41 184.08,33.77 62.96,9.9 124.01,27.86 182.4,43.12 58.31,15.57 114.03,28.8 161.42,47.02 47.91,16.58 152.55,52.75 163.83,56.66 11,4.68 300.65,129.33 333.21,143.63 32.77,13.84 65.63,25.47 97.29,37.81 31.47,12.74 63.12,22.62 93.8,32.35 30.78,9.36 60.02,20.52 89.51,27.38 58.42,15.41 256.53,66.32 296.29,75.31 20.1,3.6 38.61,7.82 56.01,10 17.41,1.67 33.16,4.4 47.55,4.7 14.38,0.14 27.14,0.3 38.17,0.41 11.02,-0.48 20.28,-2.16 27.81,-2.86 14.97,-1.82 22.82,-2.74 22.82,-2.74 0,0 -7.93,0.55 -22.94,1.54 -7.48,0.36 -16.77,1.58 -27.72,1.5 -10.94,-0.62 -23.55,-1.38 -37.78,-2.2 -14.15,-0.99 -29.79,-4.33 -46.89,-6.73 -17.05,-2.88 -35.28,-7.85 -54.97,-12.2 -39.17,-10.54 -83.19,-24.1 -132.32,-38.89 -49.65,-13.67 -103.21,-29.33 -160.63,-46.14 -28.98,-7.6 -57.76,-19.45 -88.04,-29.38 -30.2,-10.39 -61.31,-20.83 -92.28,-34.07 -31.16,-12.82 -63.44,-24.9 -95.75,-39.11 -32.1,-14.61 -321.84,-141.66 -332.94,-146.42 -11.36,-4.01 -116.66,-41.25 -164.87,-58.32 -47.73,-18.76 -103.81,-32.59 -162.59,-48.76 -58.85,-15.88 -120.4,-34.5 -183.72,-44.96 -63,-11.93 -125.55,-25.67 -185.6,-35.48 -30.18,-4.16 -59.34,-9.47 -87.64,-12.28 -28.38,-2.56 -55.44,-5.03 -80.85,-7.32 -51.05,-2.81 -95.51,-2.59 -129.91,-1.61 22.23,-27.18 158.55,-192.14 196.05,-238.65 18.3,-23.69 37.11,-48.02 56.24,-72.62 18.37,-25.22 37.01,-50.66 55.71,-76.16 73.47,-102.85 140.14,-210.9 188.42,-299.53 11.88,-22.23 23.53,-42.77 33.27,-62.06 9.54,-19.39 18.19,-36.94 25.81,-52.35 15.52,-30.6 25.17,-53.25 29.9,-63.91 66,-140.88 101.63,-284.98 138.97,-412.33 36.18,-128.01 75.49,-241.07 121.37,-330.18 46.65,-88.54 97.09,-153.41 137.69,-192.25 4.84,-5.09 9.43,-9.94 13.74,-14.41 4.73,-4.12 28.19,-24.65 33.8,-29.55z"/>
   <path class="fil0" d="M1815.34 2202.17c0.96,-0.84 1.98,-1.6 2.97,-2.51l-0.84 2.93c-0.72,-0.13 -1.36,-0.24 -2.12,-0.42z"/>
   <path class="fil0" d="M2188.31 1410.94c-17.84,10.35 -38.29,25.19 -62.81,41.07 -12.44,7.75 -24.48,17.81 -37.83,27.56 -13,10.21 -27.77,19.69 -41.39,32.06 -57.28,45.81 -119.29,108.06 -175.35,186.46 -54.79,78.72 -104.63,174.93 -167.45,269.25 -4.47,7.29 -14.45,22.3 -29.14,42.85 -7.23,10.37 -15.48,22.14 -24.59,35.15 -9.88,12.47 -20.66,26.17 -32.2,40.79 -46.81,57.68 -112.44,126.28 -192.63,177.51 -73.91,42.46 -150.6,72.2 -213.2,99.67 2.71,-0.22 5.28,-0.42 8.06,-0.61 38.57,-1.22 84.58,1.85 131.45,10.56l-1.56 -23.89c23.51,0.69 103.97,-6.68 212.46,6.01 27.06,2.77 55.38,9.45 85.29,14.43 30.09,4.33 60.39,13.76 91.73,22.2 15.68,4.29 31.57,8.68 47.63,13.08 15.56,5.8 31.29,11.73 47.07,17.58 31.44,12.32 64.24,22.54 94.96,37.72 126.14,53.35 243.48,124.71 333.78,184.88 45.57,29.62 83.89,57.35 113.78,78.98 30.11,21.27 51.22,37.13 61.17,44.74 66.92,49.24 130.16,99.9 192.31,146.82 62.28,46.82 123.26,90.77 182.68,130.52 118.76,79.54 232,141.79 332.16,182.34 99.97,41.18 185.61,61.87 245.35,71.46 29.85,5.58 53.33,7.32 69.25,8.9 15.9,1.61 24.24,2.43 24.24,2.43 0,0 -8.38,-0.41 -24.34,-1.23 -15.96,-0.82 -39.61,-1.45 -69.75,-5.79 -60.33,-7.01 -147.53,-24.38 -249.81,-62.79 -102.48,-37.71 -218.8,-97.54 -340.03,-175.58 -60.64,-39.04 -122.63,-82.34 -185.73,-128.81 -62.31,-47.13 -223.95,-169.09 -253.97,-190.01 -29.81,-21.31 -68.13,-48.62 -113.38,-77.59 -89.84,-58.94 -206.12,-128.42 -330.35,-179.87 -30.29,-14.7 -62.43,-24.34 -93.29,-36.24 -15.53,-5.68 -30.94,-11.33 -46.18,-16.92 -15.69,-4.16 -31.21,-8.28 -46.52,-12.39 -30.61,-8.02 -60.14,-17.07 -89.38,-21.03 -29.02,-4.64 -56.52,-10.98 -82.78,-13.55 -67.81,-7.55 -124.11,-7.1 -161.9,-6.13 0.97,0.24 1.82,0.36 2.79,0.64 63.67,15.18 121.65,48.12 163.5,77.54 42.37,29.43 70.06,55.74 78.77,63.58 58.13,52.47 106.71,108.16 151.84,157.21 45.03,49.24 86.46,92.36 124.31,125.35 38.01,32.66 71.5,56.03 95.69,70.46 24.62,13.84 38.29,21.52 38.29,21.52 0,0 -14.38,-6.29 -40.36,-17.66 -25.64,-12.27 -61.52,-32.95 -102.41,-63.5 -40.75,-30.81 -85.44,-72.18 -132.58,-119.88 -47.32,-47.58 -96.94,-101.72 -153.47,-152.75 -8.48,-7.61 -35.84,-32.78 -76.67,-60.24 -31.64,-21.45 -71.77,-44.03 -116.33,-59.37 35.21,17.32 61.35,33.19 68.51,37.25 80.49,48.35 143.28,105.94 184.55,150.6 20.89,22.09 36.45,41.22 46.93,54.62 10.26,13.46 16,20.94 16,20.94 0,0 -6.88,-6.43 -19.26,-18.01 -12.3,-11.5 -30.25,-28.1 -53.3,-47.46 -42.18,-36.15 -101.63,-82.24 -171.78,-125.9 49.52,32 91.65,69.5 127.41,105.1 38.88,38.85 72.13,75.25 102.28,103.17 14.51,14.74 28.87,26.49 41.31,37.06 6.25,5.3 12.05,10.3 17.41,14.84 5.76,4 45.19,31.63 45.19,31.63 0,0 -42.66,-22.92 -48.92,-26.29 -5.82,-4.03 -12.15,-8.43 -18.96,-13.11 -13.66,-9.45 -29.41,-20.03 -45.21,-33.6 -66.25,-50.91 -142.59,-139.2 -247.82,-203.48 -8.43,-4.82 -36.91,-21.81 -75.95,-40.98 58.55,33.96 105.72,72.05 140.1,101.56 40.64,35.03 64.3,58.26 64.3,58.26 0,0 -27.85,-18.04 -72.67,-47.1 -44.67,-29.2 -106.07,-69.65 -177.34,-105.95 -10.7,-4.89 -70.4,-34.27 -133.72,-44.04 -31.47,-3.58 -63.19,-5.21 -87.35,0.2 -12.34,1.18 -22.55,4.45 -30.45,6.84 -3.27,0.94 -5.9,1.66 -8.34,2.33 9.51,0.84 18.91,1.86 28.18,3.49 67.52,8.2 134.61,24.7 185.09,45.45 25.63,9.26 46.61,20.45 63.65,27.67 16.27,8.68 27.99,14.91 33.46,17.89 36.64,19.69 70.57,41.77 102.54,64.26 32.01,22.32 60.71,45.93 89.19,66.78 56.56,42.31 108.94,78.09 154.98,104.93 23.44,12.53 44.48,24.52 63.81,33 19.6,7.85 36.03,16.29 50.33,20.53 28.62,8.83 44.46,13.76 44.46,13.76 0,0 -16.3,-3.46 -45.71,-9.58 -14.85,-3.01 -31.94,-10.03 -52.46,-16.52 -20.26,-7.12 -42.35,-17.66 -66.95,-28.87 -48.44,-24.14 -103.62,-57.54 -162.19,-98.12 -29.51,-19.97 -59.07,-42.84 -90.86,-64.02 -31.58,-21.27 -64.95,-42.57 -100.48,-61.62 -5.34,-2.8 -16.71,-8.76 -32.5,-17.01 -16.5,-6.72 -36.87,-17.23 -61.62,-25.74 -45.77,-18.07 -105.51,-32.09 -166.81,-39.6 -44.08,-10.76 -88.64,-18.17 -133.37,-22.62 -7.73,-3.54 -15.4,-7.22 -23.14,-10.73 15.04,-1.62 30.64,-3.13 47.23,-4.09 20.53,-0.96 42.44,-1.15 64.36,0.22l-5.26 -14.58c-5.28,3.1 -9.61,5.72 -12.37,7.22l-18.27 -27.94c-30.66,10.94 -57.21,21.08 -78.42,29.84 -3.32,1.44 -6.17,2.72 -9.17,4.03 -14.33,-6.42 -28.69,-12.75 -43.1,-19.03 9.98,-4.73 22.76,-10.66 38.72,-17.44 27.78,-11.38 64.1,-24.75 105.58,-38.86 41.6,-14.13 87.87,-30.15 134.65,-51.4 11.54,-5.55 23.21,-11.19 35,-16.92 11.18,-6.64 22.46,-13.37 33.88,-20.12 22.57,-13.97 43.58,-31.99 65.55,-47.82l32.65 -24.69c9.98,-9.25 49.72,-45.81 59.47,-54.84 9.94,-8.91 19.57,-17.85 28.03,-27.77 17.55,-19.2 34.69,-37.89 51.07,-55.82 16.27,-18.07 30.14,-36.97 44.08,-53.88 28.03,-33.74 50,-65.3 67.87,-89.31 17.81,-23.98 30.19,-41.65 36.02,-50.03 33.12,-47.2 65.72,-93.22 98.26,-137.77 1.42,-1.13 2.85,-2.23 4.25,-3.38 39.67,-31.98 76.79,-68.53 112.28,-107.15 -26.35,32.07 -51.09,67.5 -78.05,102.96 -37.3,51.67 -132.02,187.55 -149.85,211.93 -17.82,24.37 -39.65,56.29 -67.86,90.9 -13.98,17.29 -27.88,36.54 -44.25,55.15 -16.65,18.47 -33.94,37.7 -51.72,57.52 -8.57,10.21 -18.39,19.51 -28.46,28.75 -9.97,9.33 -50.48,47.31 -60.71,56.88 0,0 -54.11,41.66 -64.47,49.67 29.99,-13.42 60.23,-27.92 89.11,-44.14 76.28,-47.59 140.7,-113.1 186.82,-168.74 11.38,-14.12 22.01,-27.38 31.79,-39.42 9.05,-12.68 17.28,-24.17 24.46,-34.26 14.59,-19.95 24.57,-34.72 28.96,-41.95 62.17,-93.27 112.87,-187.67 171.76,-267.79 59.68,-78.94 125.65,-139.97 185.76,-183.58 14.35,-11.79 29.75,-20.64 43.39,-30.32 14.01,-9.09 26.62,-18.54 39.59,-25.62 25.54,-14.65 46.96,-28.24 65.47,-37.49 36.8,-18.87 57.11,-29.25 57.11,-29.25 0,0 -19.55,11.75 -54.93,33.04z"/>
   <path class="fil0" d="M1899.82 1587.18c-1.56,1.5 -2.92,3.26 -4.43,4.81 27.53,-31.83 54.07,-64.54 79.73,-97.4 58.24,-41.64 116.17,-73.4 166.12,-102.3 77.53,-43.26 138.65,-80.59 178.65,-109.95 9.95,-7.39 18.85,-13.94 26.47,-19.57 7.36,-6.09 34.1,-28 34.1,-28 0,0 -25.44,23.48 -32.49,29.96 -7.33,6.12 -15.83,13.14 -25.41,21.06 -38.58,31.51 -98.4,72.19 -174.2,118.49 -74.82,47.24 -167.21,100.46 -248.54,182.89z"/>
   <path class="fil0" d="M4933.92 517.36c-29.62,24.37 -153.76,126.28 -178.39,146.52 -25.47,19.2 -201.87,151.73 -270.93,203.57 -70.56,49.84 -148.53,101.51 -231.33,157.58 -20.74,14 -41.87,28.21 -63.21,42.63 -21.38,14.44 -44.18,27.07 -66.73,41 -45.31,27.36 -275.42,165.06 -288.19,172.24 -51.18,28.89 -103.52,58.39 -156.97,88.55 -213.96,120.36 -448.05,247.03 -699.44,374.2 -251.43,126.97 -520.45,254.04 -805.41,371.03 -285.4,115.71 -587.42,219.68 -901.76,300.17 -39.34,9.86 -78.74,19.81 -118.25,29.79 -40.04,8.57 -80.08,17.11 -120.23,25.75 -80.54,18.77 -160.44,30.55 -240.81,44.3l-46.17 7.77 -76.73 9.46c-40.95,4.76 -81.85,10.81 -123,14.47 -82.35,6.09 -164.41,14.74 -247.52,16.65 -41.33,1.33 -83.09,3.98 -124.07,4.27l-174.77 0.3c137.24,-8.63 275.61,-26.99 403.32,-69.7 41.02,-13.69 82.06,-28.58 123.05,-44.13 3.69,-0.27 7.34,-0.61 11.01,-0.86 40.27,-3.47 80.22,-9.29 120.3,-13.81l75.01 -9.05 44.27 -7.28c80.16,-13.76 161.29,-25.13 238.9,-42.42 39.2,-7.98 78.36,-15.93 117.41,-23.86 38.98,-9.38 77.85,-18.76 116.65,-28.13 310.45,-75.81 609.81,-176.13 894.19,-286.92 284.66,-110.51 554.5,-231.66 807.24,-353.28 252.7,-121.77 488.46,-243.91 705.22,-358.33 54.11,-28.83 222.35,-119.29 234.68,-126.27 24.87,-14.21 261.67,-148.5 283.22,-162.32 21.58,-13.82 226.43,-143.44 298.22,-190.98 70.37,-49.6 250.38,-176.43 276.38,-194.82 25.21,-19.4 275.68,-212.68 275.68,-212.68 0,0 -31.57,25.97 -90.85,74.61z"/>
   <path class="fil0" d="M1152.97 2414.66c11.65,-8.58 130.28,-101.35 144.93,-112.86 13.99,-12.32 28.56,-25.18 43.61,-38.42 29.64,-26.94 62.2,-53.79 92.37,-83.47 29.83,-30.03 60.05,-59.68 88.02,-88.56 26.69,-30.16 51.93,-58.73 74.35,-84.04 20.98,-26.59 39.29,-49.81 53.54,-67.87 13.44,-18.78 23.06,-32.26 27.63,-38.62 15.51,-20.72 29.29,-43.25 42.57,-64.01 5.86,-9.95 12.52,-20.13 19.62,-30.38 6.83,-10.21 13.64,-20.29 20.34,-30.3 26.89,-39.79 52.29,-78.37 78.54,-113.05 12.52,-17.98 26.57,-33.61 39.19,-49.9 13.48,-15.39 26.86,-30.09 40.11,-43.91 14.28,-12.62 26.94,-26.46 41.17,-37.01 14.36,-10.59 27.1,-21.34 41.26,-30.8 110.45,-76.75 177.06,-125.85 177.06,-125.85 0,0 -73.62,39.16 -189.95,105.23 -14.5,7.88 -29.73,18.41 -45.64,28.32 -16.03,10 -30.36,23.36 -46.53,35.75 -15,13.51 -30.11,28.02 -45.23,43.29 -14.14,15.99 -29.9,31.79 -43.66,49.53 -29.09,34.56 -56.46,72.68 -84.62,111.99 -6.95,9.84 -14,19.74 -21.09,29.76 -7.03,9.76 -14.09,20.13 -21.1,31.47 -13.82,20.99 -26.6,41.53 -41.76,61.79 -4.45,6.1 -13.92,18.95 -27.1,36.86 -14.19,17.28 -32.36,39.4 -53.17,64.74 -22.3,24.22 -47.47,51.46 -74.06,80.26 -27.9,27.61 -58.03,55.95 -87.73,84.65 -30.01,28.38 -62.57,54.09 -92.02,79.84 -14.91,12.7 -29.42,25.02 -43.31,36.85 -14.54,10.98 -132.19,100.38 -143.22,109.28l35.89 49.44z"/>
  </g>
 </g>
</svg>
