<?xml version="1.0" encoding="UTF-8"?>
<!DOCTYPE svg PUBLIC "-//W3C//DTD SVG 1.1//EN" "http://www.w3.org/Graphics/SVG/1.1/DTD/svg11.dtd">
<!-- Creator: CorelDRAW 2018 (64-Bit) -->
<svg xmlns="http://www.w3.org/2000/svg" xml:space="preserve" width="72.6303mm" height="34.0945mm" version="1.1" style="shape-rendering:geometricPrecision; text-rendering:geometricPrecision; image-rendering:optimizeQuality; fill-rule:evenodd; clip-rule:evenodd"
viewBox="0 0 2432.25 1141.76"
 xmlns:xlink="http://www.w3.org/1999/xlink">
 <defs>
  <style type="text/css">
   <![CDATA[
    .fil0 {fill:#D11C69;fill-rule:nonzero}
   ]]>
  </style>
 </defs>
 <g id="Слой_x0020_1">
  <metadata id="CorelCorpID_0Corel-Layer"/>
  <path class="fil0" d="M732.05 823.4c-6.89,-3.29 -10.34,-8.93 -10.34,-17.38 0,-22.71 30.38,-81.44 91.15,-176.04 33.83,-53.25 59.36,-93.35 76.59,-120.29 17.23,-26.94 26.78,-41.97 28.66,-45.11 -38.84,37.59 -77.53,74.71 -116.06,111.36 -38.53,36.65 -77.53,73.77 -117,111.36 -49.49,45.73 -92.88,79.88 -130.15,102.43 -37.28,22.4 -69.07,33.99 -95.38,34.61 -9.4,0 -18.17,-1.25 -26.31,-3.76 -8.14,-2.5 -15.19,-7.05 -21.14,-13.63 -5.95,-6.58 -10.81,-15.5 -14.57,-26.78 -3.76,-11.28 -5.95,-25.37 -6.58,-42.29 -0.63,-23.18 19.89,-97.11 61.55,-221.78 20.52,-61.39 35.71,-113.86 45.73,-157.4 9.87,-43.54 15.19,-78.47 15.82,-104.78 0,-69.54 -20.99,-122.63 -62.96,-159.28 -41.97,-36.65 -103.99,-54.97 -186.07,-54.97 -30.7,0 -60.3,5.64 -88.8,16.91 -28.51,11.28 -54.19,23.96 -77.06,38.06 -22.87,14.1 -41.51,27.1 -55.91,39 -14.41,11.91 -22.87,18.48 -25.37,19.73 -10.02,0 -15.97,-2.5 -17.86,-7.52 0,-1.25 3.92,-5.64 11.75,-13.15 7.83,-7.52 18.64,-16.6 32.42,-27.25 13.78,-10.65 30.39,-21.77 49.81,-33.36 19.42,-11.59 40.72,-22.55 63.9,-33.05 23.18,-10.5 47.61,-19.27 73.3,-26.31 25.69,-7.05 52.31,-11.28 79.88,-12.53 38.21,-1.25 72.98,3.45 104.31,14.1 31.32,10.65 58.26,26.16 80.97,46.52 22.55,20.36 40.1,45.11 52.62,74.24 12.37,29.13 18.64,61.24 18.64,96.33 0,37.59 -20.99,124.98 -62.96,262.18 -20.68,68.29 -36.34,121.7 -46.99,160.22 -10.65,38.53 -15.98,62.49 -15.98,71.89 0,20.05 5.01,34.93 15.04,44.64 10.02,9.71 21.3,14.57 33.83,14.57 41.98,0 143.78,-77.69 305.41,-233.05 142.21,-135.95 228.98,-225.85 260.31,-269.7 18.79,-27.57 33.67,-49.34 44.64,-65.31 10.96,-15.98 18.95,-26.47 23.96,-31.48 13.78,-18.79 24.74,-28.51 32.89,-29.13 2.51,0 5.01,2.04 7.52,6.11 2.51,4.07 2.82,7.68 0.94,10.81 -2.5,4.39 -7.99,13 -16.45,25.84 -8.46,12.84 -20.67,30.7 -36.65,53.56 -15.97,22.87 -36.02,51.53 -60.14,85.99 -24.12,34.46 -52.78,75.18 -85.99,122.16 -67.03,93.97 -117,167.27 -149.89,219.9 -32.89,52.63 -49.96,85.2 -51.22,97.73 0,13.94 5.01,20.83 15.04,20.83 0.63,0 5.95,-1.57 15.98,-4.7 10.02,-3.13 20.99,-6.73 32.89,-10.96 11.91,-4.07 23.18,-7.99 33.83,-11.75 10.65,-3.76 16.6,-5.95 17.86,-6.58 -1.25,4.39 -4.54,14.25 -9.87,29.76 -5.33,15.35 -12.69,33.68 -22.09,54.97 -9.4,21.3 -20.67,44.17 -33.83,68.6 -13.16,24.43 -27.57,47.93 -43.23,70.64 -24.43,31.8 -45.89,57.95 -64.37,78.31 -18.48,20.36 -34.92,36.81 -49.33,49.49 -12.53,10.5 -23.5,17.54 -32.89,20.99 -9.4,3.45 -15.97,4.54 -19.73,3.45 -1.25,-1.41 -2.5,-2.97 -3.76,-4.86 -1.25,-1.88 -1.25,-4.38 0,-7.36 -2.51,-5.79 -1.25,-12.06 3.76,-18.79 3.13,-2.04 7.05,-4.7 11.75,-8.14 4.7,-3.45 10.18,-7.36 16.45,-11.59 17.54,-13.31 34.77,-26.94 51.69,-41.04 16.91,-14.1 33.2,-31.17 48.87,-51.06 6.89,-8.93 15.5,-20.36 25.84,-34.46 10.34,-14.1 20.83,-29.91 31.48,-47.46 10.65,-17.54 20.83,-36.65 30.54,-57.32 9.71,-20.67 17.39,-42.29 23.03,-64.84 -5.64,3.91 -14.41,7.83 -26.31,11.59 -11.9,3.91 -24.12,7.36 -36.65,10.65 -12.53,3.13 -23.81,5.64 -33.83,7.21 -10.02,1.56 -15.66,1.41 -16.91,-0.47z"/>
  <path class="fil0" d="M1328.29 657.48c0.73,5.12 -0.37,9.15 -3.3,12.08 -60.78,39.54 -113.51,68.65 -158.18,87.33 -44.67,18.67 -87.51,28.38 -128.52,29.11 -50.53,0 -76.16,-26 -76.89,-77.99 0,-32.22 18.68,-69.93 56.02,-113.14 38.81,-41.01 72.5,-61.88 101.06,-62.61 6.59,0 13.91,1.65 21.97,4.94 8.05,3.3 12.82,12.63 14.28,28.01 0,6.59 -1.83,13.18 -5.49,19.77 -3.66,6.59 -8.6,13.36 -14.83,20.32 -6.23,6.96 -13.18,13.91 -20.87,20.87 -7.69,6.96 -15.19,13.37 -22.52,19.22 -10.98,10.25 -23.07,19.96 -36.25,29.11 -13.18,9.15 -28.19,18.12 -45.04,26.91 -1.46,9.52 -0.37,16.3 3.3,20.32 3.66,4.03 9.52,8.97 17.57,14.83 12.45,8.05 26,12.08 40.64,12.08 24.16,0 57.3,-6.41 99.41,-19.22 42.11,-12.82 90.99,-37.9 146.64,-75.24 2.2,-2.2 4.58,-3.11 7.14,-2.75 2.56,0.37 3.84,2.38 3.84,6.04zm-221.89 -80.19c0,-3.66 -4.76,-6.59 -14.28,-8.79 -12.45,0 -28.93,11.35 -49.43,34.05 -10.25,10.25 -17.94,21.23 -23.07,32.95 -5.13,11.72 -7.69,21.6 -7.69,29.66 1.46,0 6.23,-1.28 14.28,-3.84 8.06,-2.57 14.65,-5.68 19.77,-9.34 19.04,-10.99 33.5,-23.62 43.39,-37.9 9.89,-14.28 15.56,-26.55 17.03,-36.8z"/>
  <path class="fil0" d="M1565.56 769.52c-41.74,0 -62.61,-21.97 -62.61,-65.91 0,-8.05 1.46,-17.57 4.39,-28.56 2.93,-10.98 6.23,-19.41 9.89,-25.27 -13.18,8.06 -27.46,14.83 -42.84,20.32 -15.38,5.49 -30.76,10.43 -46.14,14.83 -15.38,4.39 -30.57,8.42 -45.59,12.08 -15.01,3.66 -29.11,7.69 -42.29,12.08 -6.59,8.06 -13.73,16.3 -21.42,24.72 -7.69,8.42 -15.01,15.93 -21.97,22.52 -6.96,6.59 -13,12.08 -18.12,16.48 -5.13,4.39 -8.42,6.59 -9.89,6.59 -0.73,0 -3.3,-1.28 -7.69,-3.84 -4.39,-2.56 -6.59,-5.31 -6.59,-8.24 0,-5.13 3.3,-13.55 9.89,-25.26 6.59,-11.72 17.21,-27.83 31.85,-48.33 11.72,-17.57 20.87,-31.85 27.46,-42.84 6.59,-10.99 11.72,-20.14 15.38,-27.46 3.66,-7.32 6.77,-13.73 9.34,-19.22 2.56,-5.49 6.41,-11.53 11.53,-18.12 2.93,-4.39 8.79,-8.06 17.57,-10.99 8.79,-2.93 15.01,-5.12 18.68,-6.59 8.05,0 13.73,2.2 17.03,6.59 3.3,4.39 3.84,9.89 1.65,16.48 -2.93,8.05 -10.62,19.22 -23.07,33.5 -12.45,14.28 -24.53,33.14 -36.25,56.57 10.98,-3.66 23.98,-7.69 39,-12.08 15.01,-4.39 30.57,-9.16 46.68,-14.28 16.11,-5.13 31.86,-10.44 47.23,-15.93 15.38,-5.49 28.93,-11.16 40.64,-17.03 13.91,-17.57 28.38,-31.85 43.39,-42.84 15.01,-10.98 26.91,-16.48 35.7,-16.48 3.66,0 6.59,4.76 8.79,14.28 0,0 -11.35,13.55 -34.05,40.64 -21.23,26.36 -32.22,51.26 -32.95,74.7 0,26.37 18.31,41.01 54.92,43.94 8.05,0.73 19.59,0 34.6,-2.2 15.01,-2.2 32.59,-6.41 52.73,-12.63 20.14,-6.23 41.92,-14.46 65.36,-24.72 23.43,-10.25 47.23,-23.43 71.4,-39.54 1.46,0 3.3,-0.18 5.49,-0.55 2.2,-0.37 4.03,1.65 5.49,6.04 1.46,2.2 1.46,4.39 0,6.59 -1.46,2.2 -2.93,4.03 -4.39,5.49 -55.66,32.95 -105.63,56.94 -149.94,71.95 -44.3,15.01 -84.4,22.52 -120.28,22.52z"/>
  <path class="fil0" d="M2432.25 666.26c0,5.86 -1.1,9.89 -3.3,12.08 -50.53,32.95 -96.11,56.94 -136.76,72.13 -40.64,15.19 -74.88,24.16 -102.7,27.1 -10.25,1.46 -20.5,1.65 -30.76,0.55 -10.25,-1.1 -19.41,-3.66 -27.46,-8.06 -8.06,-4.21 -14.65,-10.8 -19.77,-19.41 -5.13,-8.6 -7.69,-20.32 -7.69,-34.97 0,-16.11 6.23,-34.96 18.68,-56.57 12.45,-21.6 25.26,-40.46 38.44,-56.57 -10.25,3.66 -21.97,7.87 -35.15,12.63 -13.18,4.76 -27.1,9.34 -41.74,13.73 -5.13,10.25 -11.35,20.5 -18.67,30.76 -7.32,10.25 -15.75,21.23 -25.27,32.95 -56.39,66.64 -114.61,100.33 -174.65,101.06 -40.28,0 -60.78,-20.14 -61.51,-60.42 0,-19.04 7.14,-41.38 21.42,-67.01 14.28,-25.63 32.41,-54.92 54.37,-87.88 14.65,-20.5 28.74,-39.36 42.29,-56.57 13.55,-17.21 24.71,-35.34 33.5,-54.37 10.25,-21.24 23.07,-35.88 38.45,-43.94 15.38,-8.05 28.93,-13.55 40.64,-16.48 5.13,-1.46 11.35,-2.56 18.68,-3.3 7.32,-0.73 11.35,3.3 12.08,12.08 0,8.06 -6.96,19.77 -20.87,35.15 -13.91,15.38 -33.69,34.42 -59.32,57.12 -34.42,30.76 -63.53,63.53 -87.33,98.31 -23.8,34.78 -37.53,66.09 -41.19,93.92 -1.47,13.91 1.65,26.18 9.34,36.8 7.69,10.62 22.52,15.19 44.49,13.73 20.5,-1.46 40.28,-8.79 59.31,-21.97 19.04,-13.18 38.08,-33.69 57.12,-61.51 3.66,-5.13 6.77,-9.7 9.34,-13.73 2.57,-4.03 4.58,-8.24 6.04,-12.64 -16.11,6.59 -29.3,10.25 -39.55,10.99 -10.25,0.73 -19.41,0.37 -27.46,-1.1 -2.2,-0.73 -4.95,-2.02 -8.24,-3.85 -3.3,-1.83 -6.41,-4.57 -9.34,-8.24 -2.93,-3.66 -4.94,-7.87 -6.04,-12.63 -1.1,-4.76 -0.91,-10.07 0.55,-15.93 3.66,-15.38 13.55,-28.74 29.66,-40.1 16.11,-11.35 33.69,-18.49 52.72,-21.42 9.52,-1.46 19.04,-1.65 28.56,-0.55 9.52,1.1 17.57,4.03 24.16,8.79 6.59,4.76 10.62,11.53 12.08,20.32 1.47,8.79 -0.73,20.5 -6.59,35.15 29.29,-8.06 53.83,-17.39 73.6,-28.01 19.77,-10.62 35.89,-17.76 48.33,-21.42 9.52,0 14.28,3.3 14.28,9.89 0,5.86 -11.72,21.97 -35.15,48.33 -20.5,26.36 -31.49,51.26 -32.96,74.7 0,14.65 3.11,26.55 9.34,35.7 6.23,9.15 16.3,14.46 30.21,15.93 10.25,0 23.25,-1.1 38.99,-3.3 15.75,-2.2 33.32,-6.23 52.73,-12.08 19.41,-5.86 40.1,-14.46 62.06,-25.82 21.97,-11.35 43.94,-26.18 65.91,-44.49 0.73,-0.73 3.66,-1.1 8.79,-1.1 1.47,0 2.57,1.83 3.3,5.49zm-378.97 -46.14c10.25,-21.24 8.79,-36.98 -4.39,-47.23 -7.32,-5.86 -15.56,-8.24 -24.72,-7.14 -9.15,1.1 -16.66,4.58 -22.52,10.43 -5.86,5.86 -9.89,12.09 -12.08,18.68 -2.2,6.59 -1.47,13.55 2.2,20.87 5.13,10.98 14.28,15.93 27.46,14.83 13.18,-1.1 24.53,-4.58 34.05,-10.43z"/>
 </g>
</svg>
