<?xml version="1.0" encoding="UTF-8"?>
<!DOCTYPE svg PUBLIC "-//W3C//DTD SVG 1.1//EN" "http://www.w3.org/Graphics/SVG/1.1/DTD/svg11.dtd">
<!-- Creator: CorelDRAW 2018 (64-Bit) -->
<svg xmlns="http://www.w3.org/2000/svg" xml:space="preserve" width="205.417mm" height="104.704mm" version="1.1" style="shape-rendering:geometricPrecision; text-rendering:geometricPrecision; image-rendering:optimizeQuality; fill-rule:evenodd; clip-rule:evenodd"
viewBox="0 0 16121.19 8217.15"
 xmlns:xlink="http://www.w3.org/1999/xlink">
 <defs>
  <style type="text/css">
   <![CDATA[
    .fil1 {fill:#2B2A29;fill-rule:nonzero}
    .fil0 {fill:#D11C69;fill-rule:nonzero}
    .fil2 {fill:#FEFEFE;fill-rule:nonzero}
   ]]>
  </style>
 </defs>
 <g id="Слой_x0020_1">
  <metadata id="CorelCorpID_0Corel-Layer"/>
  <g id="_1046007184">
   <path class="fil0" d="M7117.65 3044.89c0,21.62 -78.04,112.87 -234.14,273.77 -144.09,144.09 -263.56,264.16 -358.42,360.22 -94.86,96.05 -167.51,170.5 -217.94,223.34 -141.69,146.49 -274.97,292.98 -399.84,439.47 -124.88,146.49 -244.95,292.98 -360.22,439.48 -48.03,64.83 -83.46,120.07 -106.26,165.69 -22.83,45.64 -36.63,80.46 -41.44,104.47 0,7.2 1.21,15.01 3.6,23.41 2.41,8.41 4.8,19.82 7.2,34.22 2.41,14.42 3.6,27.01 3.6,37.84 0,10.8 0,18.61 0,23.41 -28.81,76.84 -85.25,117.67 -169.31,122.47 -4.8,-28.81 -8.4,-53.43 -10.81,-73.84 -2.39,-20.42 -4.8,-40.23 -7.2,-59.44 0,-115.26 67.25,-244.94 201.73,-389.04l1199.54 -1325.61c-204.13,132.08 -362.63,198.12 -475.5,198.12 -112.88,0 -169.31,-58.84 -169.31,-176.51 0,-93.65 38.42,-204.12 115.26,-331.41 76.86,-105.67 140.5,-170.5 190.93,-194.51 38.42,-2.41 60.04,9.6 64.83,36.01 0,-4.8 -42.03,42.03 -126.08,140.5 -79.24,96.05 -122.47,190.91 -129.68,284.57 0,74.44 63.64,114.06 190.93,118.87 96.05,0 244.95,-82.85 446.67,-248.55 199.33,-163.29 313.39,-246.15 342.2,-248.55 24.02,0 37.23,7.2 39.62,21.61zm1566.96 183.71c7.2,-4.8 15.01,-7.81 23.42,-9 8.41,-1.2 15.01,4.21 19.81,16.21 4.8,16.8 -1.19,28.81 -18,36.01 -64.85,40.83 -141.69,85.86 -230.55,135.09 -88.85,49.22 -179.51,94.25 -271.96,135.09 -92.47,40.82 -181.92,74.44 -268.37,100.85 -86.45,26.41 -158.5,38.42 -216.13,36.02 -24.01,0 -48.63,-3.6 -73.84,-10.8 -25.22,-7.22 -48.04,-19.23 -68.45,-36.03 -20.41,-16.81 -37.23,-37.83 -50.43,-63.04 -13.21,-25.22 -18.61,-57.04 -16.21,-95.46 2.39,-21.61 14.4,-48.03 36.02,-79.25 21.61,-31.22 57.63,-67.24 108.06,-108.06 38.43,-31.22 81.66,-65.45 129.68,-102.67 48.03,-37.23 92.47,-71.45 133.28,-102.66 26.42,-19.21 37.22,-36.03 32.42,-50.43 -4.8,-14.42 -13.2,-22.81 -25.21,-25.22 -7.21,-2.39 -19.23,-2.39 -36.02,0 -16.82,2.41 -34.82,7.2 -54.04,14.41 -19.21,7.21 -38.42,15.02 -57.64,23.43 -19.21,8.39 -33.61,15.01 -43.23,19.8 -19.21,9.61 -42.62,22.22 -70.24,37.83 -27.62,15.61 -55.84,32.43 -84.65,50.43 -28.82,18 -57.04,36.02 -84.66,54.03 -27.62,18.02 -52.24,33.02 -73.84,45.04 -7.2,2.39 -13.22,-3.6 -18.02,-18.02 -2.39,-7.2 -3.6,-13.2 -3.6,-18.01 50.43,-33.61 106.87,-69.64 169.31,-108.06 62.44,-38.43 124.28,-73.85 185.52,-106.26 61.25,-32.43 117.07,-59.44 167.49,-81.06 50.45,-21.61 88.86,-33.61 115.28,-36.02 48.03,-4.8 77.44,4.21 88.26,27.01 10.81,22.83 13.8,47.43 8.99,73.86 -7.2,33.61 -30.62,70.24 -70.24,109.86 -39.62,39.63 -99.05,84.65 -178.3,135.08 -62.44,40.83 -114.68,79.85 -156.69,117.08 -42.03,37.22 -65.45,65.44 -70.26,84.65 -12.01,52.84 -6,90.66 18.02,113.47 24.01,22.81 58.84,37.84 104.46,45.03 55.23,9.6 119.48,3.6 192.72,-18.02 73.25,-21.61 150.7,-50.42 232.35,-86.45 81.64,-36.03 163.3,-77.44 244.95,-124.27 81.64,-46.83 158.5,-90.66 230.54,-131.49zm1610.19 21.62c4.81,19.2 0,32.42 -14.4,39.62 -165.7,103.26 -324.81,191.51 -477.3,264.75 -152.49,73.25 -285.18,109.88 -398.04,109.88 -129.68,0 -198.12,-97.27 -205.33,-291.78 -21.61,12.01 -54.64,30.62 -99.06,55.83 -44.43,25.21 -91.26,51.04 -140.5,77.44 -49.22,26.42 -98.45,49.83 -147.68,70.25 -49.23,20.41 -89.45,31.82 -120.67,34.22 -45.63,4.8 -87.05,-1.19 -124.28,-18.01 -37.22,-16.81 -60.63,-51.63 -70.24,-104.47 0,-105.66 98.46,-235.34 295.38,-389.03 100.85,-74.45 196.92,-130.87 288.18,-169.31 91.25,-38.42 168.1,-57.63 230.54,-57.63 88.85,-2.4 134.48,19.2 136.89,64.84 0,43.23 -15.61,78.05 -46.83,104.46 -24.01,21.61 -54.03,32.42 -90.06,32.42 -2.39,-2.41 -4.8,-7.2 -7.2,-14.42 -2.41,-4.8 -4.8,-10.2 -7.2,-16.2 -2.41,-6.01 -6.01,-13.82 -10.81,-23.43 -14.41,-36.01 -43.23,-55.23 -86.45,-57.64 -93.66,0 -202.93,52.84 -327.8,158.51 -120.08,100.85 -180.11,192.11 -180.11,273.76 0,19.21 3.6,36.63 10.81,52.24 7.2,15.61 20.41,24.62 39.62,27.01 67.24,4.8 133.89,-6 199.92,-32.42 66.04,-26.42 136.28,-64.83 210.73,-115.26 31.22,-21.62 85.26,-74.45 162.1,-158.5 48.03,-57.64 90.06,-85.25 126.08,-82.86 28.82,0 43.23,12.02 43.23,36.03 0,21.61 -20.41,68.43 -61.23,140.48 -38.44,67.24 -57.64,116.46 -57.64,147.7 0,88.85 43.23,134.47 129.68,136.88 76.85,0 154.9,-12.01 234.15,-36.02 79.25,-24.01 153.7,-52.83 223.34,-86.45 69.64,-33.63 131.49,-66.64 185.51,-99.06 54.03,-32.43 93.05,-57.03 117.07,-73.84 7.2,-7.2 14.41,-12.61 21.62,-16.21 7.2,-3.6 13.2,1.81 18,16.21zm900.55 -1008.63c0,2.41 -253.34,292.98 -760.06,871.74 45.63,-24.01 91.25,-48.03 136.89,-72.04 45.62,-24.02 92.45,-49.23 140.48,-75.65 115.28,-50.42 219.74,-76.84 313.39,-79.25 100.86,0 154.9,44.44 162.1,133.28 0,57.64 -48.04,138.09 -144.09,241.35 -45.63,48.03 -96.06,91.86 -151.29,131.49 -55.23,39.62 -117.67,79.85 -187.31,120.67 -139.29,72.05 -250.96,109.27 -335.01,111.68 -19.21,0 -34.82,-3.6 -46.83,-10.82 -12.01,-7.2 -24.01,-16.79 -36.02,-28.8 -21.61,-21.62 -32.43,-49.24 -32.43,-82.86 0,-67.24 22.82,-103.26 68.45,-108.07 24.01,0 39.62,7.2 46.83,21.62 7.2,9.6 16.81,26.41 28.82,50.42 16.81,36.02 54.03,54.03 111.66,54.03 74.45,0 180.12,-57.64 317,-172.91 139.28,-108.06 208.93,-204.13 208.93,-288.18 0,-38.42 -43.23,-61.23 -129.68,-68.43 -81.66,0 -164.5,26.41 -248.55,79.25 -33.63,21.61 -83.46,58.84 -149.5,111.66 -66.03,52.84 -148.29,121.28 -246.74,205.33 -124.89,105.67 -253.37,231.14 -385.44,376.43 -132.09,145.29 -270.18,313.99 -414.26,506.12 -244.95,341 -378.23,559.53 -399.84,655.6l0 129.68c0,33.61 -12.01,57.63 -36.03,72.04 -19.2,14.41 -42.02,24.01 -68.44,28.81 -14.41,0 -28.22,-1.19 -41.42,-3.6 -13.21,-2.39 -25.82,-8.41 -37.83,-18 -24.01,-12.01 -39.62,-32.43 -46.83,-61.25 0,-43.23 15.61,-81.65 46.83,-115.26 26.42,-48.03 47.43,-83.46 63.04,-106.26 15.61,-22.82 24.62,-36.63 27.01,-41.44 76.86,-141.68 188.53,-309.78 335.01,-504.31 146.5,-194.51 329.01,-419.05 547.54,-673.61 103.27,-122.48 256.36,-297.79 459.28,-525.92 202.93,-228.14 461.69,-512.72 776.28,-853.72 31.22,-31.22 57.64,-48.03 79.26,-50.44 12.01,0 21.61,13.21 28.8,39.62zm1869.55 1008.63c9.6,-4.81 18.61,-10.22 27.02,-16.21 8.41,-6 15.01,-1.81 19.81,12.61 7.2,16.81 1.21,32.42 -18,46.82 -86.45,64.84 -173.51,123.08 -261.17,174.7 -87.65,51.63 -171.7,94.86 -252.16,129.68 -80.44,34.83 -154.3,60.64 -221.54,77.45 -67.23,16.8 -123.67,24.01 -169.29,21.61 -28.83,-2.39 -58.25,-9.6 -88.26,-21.61 -30.02,-12.01 -56.44,-30.03 -79.26,-54.03 -22.81,-24.01 -41.41,-55.23 -55.83,-93.67 -14.41,-38.42 -20.4,-85.25 -18.01,-140.49 -28.82,31.22 -63.64,62.44 -104.46,93.66 -40.82,31.22 -84.04,58.84 -129.68,82.85 -45.63,24.01 -90.06,43.23 -133.28,57.64 -43.23,14.4 -81.64,21.61 -115.26,21.61 -38.43,0 -74.45,-12.61 -108.07,-37.82 -33.62,-25.22 -50.43,-65.44 -50.43,-120.68 -2.39,-81.65 33.61,-162.09 108.06,-241.34 33.63,-36.02 85.26,-79.85 154.9,-131.49 69.64,-51.63 158.51,-112.27 266.57,-181.92 14.42,0 24.01,5.41 28.82,16.21 4.81,10.81 3.6,23.41 -3.59,37.83 -31.22,19.21 -62.44,39.62 -93.66,61.23 -31.22,21.62 -63.64,45.63 -97.27,72.05 -60.03,50.43 -103.86,97.86 -131.48,142.28 -27.62,44.42 -43.82,87.05 -48.63,127.88 -7.2,72.05 15.61,114.07 68.45,126.08 43.23,9.61 93.05,-1.81 149.49,-34.22 56.43,-32.42 120.67,-77.45 192.72,-135.09 26.41,-21.61 59.43,-54.03 99.06,-97.25 39.62,-43.23 87.04,-102.06 142.28,-176.51 84.06,-110.47 145.29,-165.7 183.72,-165.7 31.22,0 48.04,13.2 50.43,39.62 0,26.42 -45.62,81.65 -136.89,165.7 -86.45,81.65 -129.67,151.29 -129.67,208.92 0,81.66 13.8,140.5 41.41,176.52 27.62,36.01 65.45,62.44 113.47,79.23 67.25,21.62 142.29,19.23 225.14,-7.2 82.85,-26.42 174.71,-66.04 275.58,-118.88 40.83,-21.61 88.85,-48.01 144.08,-79.23 55.23,-31.22 106.87,-70.84 154.9,-118.87zm806.9 360.22c-136.89,0 -205.33,-72.04 -205.33,-216.13 0,-26.42 4.8,-57.64 14.4,-93.66 9.61,-36.02 20.41,-63.64 32.42,-82.85 -43.22,26.42 -90.05,48.63 -140.48,66.65 -50.43,18.01 -100.87,34.22 -151.3,48.63 -50.42,14.4 -100.25,27.62 -149.49,39.62 -49.22,12.01 -95.45,25.21 -138.67,39.62 -21.62,26.41 -45.03,53.43 -70.26,81.05 -25.21,27.62 -49.22,52.23 -72.04,73.84 -22.81,21.61 -42.62,39.62 -59.43,54.04 -16.82,14.4 -27.62,21.61 -32.43,21.61 -2.39,0 -10.8,-4.21 -25.21,-12.61 -14.42,-8.41 -21.62,-17.4 -21.62,-27.01 0,-16.82 10.81,-44.44 32.43,-82.85 21.61,-38.42 56.43,-91.26 104.46,-158.51 38.42,-57.63 68.45,-104.46 90.06,-140.48 21.62,-36.02 38.43,-66.04 50.42,-90.06 12.01,-24.01 22.23,-45.02 30.63,-63.04 8.41,-18.01 21.01,-37.82 37.82,-59.44 9.61,-14.4 28.82,-26.41 57.63,-36.02 28.83,-9.6 49.24,-16.8 61.25,-21.61 26.42,0 45.02,7.2 55.84,21.61 10.81,14.42 12.6,32.42 5.4,54.04 -9.61,26.42 -34.82,63.04 -75.64,109.86 -40.83,46.83 -80.46,108.66 -118.87,185.52 36.02,-12.01 78.64,-25.22 127.87,-39.62 49.24,-14.42 100.27,-30.03 153.09,-46.83 52.84,-16.81 104.47,-34.23 154.9,-52.24 50.43,-18.02 94.86,-36.63 133.28,-55.84 45.62,-57.63 93.05,-104.46 142.28,-140.48 49.22,-36.02 88.25,-54.04 117.07,-54.04 12.01,0 21.62,15.62 28.83,46.84 0,0 -37.23,44.42 -111.68,133.28 -69.64,86.45 -105.66,168.1 -108.06,244.94 0,86.45 60.03,134.48 180.11,144.09 26.41,2.4 64.23,0 113.47,-7.2 49.22,-7.22 106.87,-21.02 172.91,-41.44 66.03,-20.41 137.48,-47.43 214.32,-81.04 76.86,-33.63 154.9,-76.86 234.15,-129.68 4.8,0 10.8,-0.6 18,-1.81 7.21,-1.21 13.22,5.41 18.02,19.81 4.8,7.2 4.8,14.41 0,21.62 -4.8,7.2 -9.61,13.2 -14.42,18 -182.51,108.07 -346.4,186.72 -491.7,235.94 -145.29,49.24 -276.76,73.85 -394.43,73.85zm2204.55 -381.84c7.2,-4.8 15.01,-7.81 23.41,-9 8.41,-1.2 15.01,4.21 19.82,16.21 4.8,16.8 -1.19,28.81 -18,36.01 -64.85,40.83 -141.69,85.86 -230.55,135.09 -88.85,49.22 -179.51,94.25 -271.96,135.09 -92.47,40.82 -181.92,74.44 -268.37,100.85 -86.45,26.41 -158.5,38.42 -216.13,36.02 -24.01,0 -48.63,-3.6 -73.84,-10.8 -25.22,-7.22 -48.04,-19.23 -68.45,-36.03 -20.41,-16.81 -37.23,-37.83 -50.43,-63.04 -13.21,-25.22 -18.61,-57.04 -16.21,-95.46 2.39,-21.61 14.4,-48.03 36.02,-79.25 21.61,-31.22 57.63,-67.24 108.06,-108.06 38.43,-31.22 81.66,-65.45 129.68,-102.67 48.03,-37.23 92.46,-71.45 133.27,-102.66 26.43,-19.21 37.23,-36.03 32.43,-50.43 -4.81,-14.42 -13.2,-22.81 -25.21,-25.22 -7.22,-2.39 -19.23,-2.39 -36.02,0 -16.82,2.41 -34.82,7.2 -54.05,14.41 -19.2,7.21 -38.42,15.02 -57.63,23.43 -19.21,8.39 -33.61,15.01 -43.23,19.8 -19.21,9.61 -42.62,22.22 -70.24,37.83 -27.62,15.61 -55.84,32.43 -84.65,50.43 -28.82,18 -57.04,36.02 -84.66,54.03 -27.62,18.02 -52.24,33.02 -73.84,45.04 -7.2,2.39 -13.22,-3.6 -18.02,-18.02 -2.39,-7.2 -3.6,-13.2 -3.6,-18.01 50.43,-33.61 106.87,-69.64 169.31,-108.06 62.44,-38.43 124.28,-73.85 185.52,-106.26 61.24,-32.43 117.07,-59.44 167.49,-81.06 50.45,-21.61 88.86,-33.61 115.28,-36.02 48.03,-4.8 77.44,4.21 88.26,27.01 10.8,22.83 13.8,47.43 8.99,73.86 -7.2,33.61 -30.62,70.24 -70.24,109.86 -39.62,39.63 -99.05,84.65 -178.3,135.08 -62.44,40.83 -114.68,79.85 -156.69,117.08 -42.03,37.22 -65.45,65.44 -70.26,84.65 -12.01,52.84 -6,90.66 18.02,113.47 24.01,22.81 58.84,37.84 104.46,45.03 55.23,9.6 119.48,3.6 192.72,-18.02 73.25,-21.61 150.7,-50.42 232.35,-86.45 81.64,-36.03 163.3,-77.44 244.95,-124.27 81.64,-46.83 158.5,-90.66 230.54,-131.49z"/>
   <path class="fil1" d="M10181.54 5280.61l0 -636.82 198.2 0c66.73,0 118.8,14.28 155.99,42.63 37.18,28.34 55.88,70.76 55.88,127.23 0,32.57 -8.44,61.1 -25.12,85.83 -16.68,24.73 -40.21,42.61 -70.56,53.47 35.19,7.84 63.32,25.93 84.44,54.08 21.1,28.14 31.76,60.5 31.76,97.08 0,57.69 -17.71,101.52 -53.08,131.46 -35.39,29.96 -83.82,45.03 -145.34,45.03l-232.17 0zm71.16 -59.09l160.81 0c40.81,0 72.16,-10.26 94.27,-30.56 22.11,-20.3 33.17,-49.65 33.17,-87.84 0,-35.58 -11.07,-63.73 -33.37,-84.44 -22.3,-20.7 -53.67,-31.16 -94.07,-31.16l-160.81 0 0 234zm0 -294.29l131.27 0c44.42,0 78.39,-9.24 101.71,-27.94 23.11,-18.69 34.78,-46.43 34.78,-83.42 0,-37.18 -11.87,-64.92 -35.39,-83.22 -23.72,-18.29 -58.69,-27.33 -105.33,-27.33l-127.04 0 0 221.92zm765.67 353.38l0 -856.31 92.26 0 238 749.78 3.42 0 238.61 -749.78 92.26 0 0 856.31 -71.16 0 0 -375.9 7.02 -349.97 -3.41 -0.41 -241.61 726.27 -46.84 0 -241.02 -725.26 -3.61 0.6 7.24 348.77 0 375.9 -71.16 0zm840.24 0l0 -636.82 71.17 0 0 500.94 3.61 0.6 265.34 -501.54 71.16 0 0 636.82 -71.16 0 0 -500.33 -3.63 -0.6 -265.33 500.93 -71.17 0zm578.31 0l0 -636.82 71.17 0 0 284.64 268.96 0 0 -284.64 71.15 0 0 636.82 -71.15 0 0 -290.66 -268.96 0 0 290.66 -71.17 0zm547.56 -268.76l0 -98.89c0,-81.82 19.71,-149.36 59.29,-202.02 39.6,-52.86 96.09,-79.2 169.66,-79.2 59.1,0 108.15,20.71 146.74,62.12 38.6,41.41 57.29,95.88 56.08,163.42l-1.2 2.42 -62.72 0c0,-50.45 -13.26,-90.46 -39.8,-120.41 -26.33,-29.95 -59.5,-44.82 -99.1,-44.82 -54.87,0 -95.08,20.7 -120.2,62.12 -25.14,41.19 -37.6,93.47 -37.6,156.58l0 98.7c0,63.92 12.46,116.39 37.6,157.6 25.12,41.19 65.33,61.71 120.2,61.71 36.79,0 69.15,-13.07 97.1,-39.4 27.93,-26.33 41.8,-62.72 41.8,-108.95l62.12 0 1.81 2.61c1.21,58.9 -18.69,108.15 -59.29,147.75 -40.82,39.6 -88.65,59.5 -143.53,59.5 -73.57,0 -130.06,-26.13 -169.66,-78.61 -39.59,-52.26 -59.29,-119.79 -59.29,-202.21zm562.44 268.76l0 -636.82 71.17 0 0 281.03 72.97 0 186.73 -281.03 87.65 0 -216.7 305.95 238.01 330.86 -91.26 0 -202.63 -290.66 -74.78 0 0 290.66 -71.17 0zm496.32 -262.73l0 -105.93c0,-80.6 21.9,-147.34 65.92,-200.41 43.82,-53.27 96.7,-79.81 158.6,-79.81 66.74,0 118.61,23.92 155.39,71.56 36.98,47.85 55.48,111.97 55.48,192.37l0 70.16 -364.24 0 0 52.26c0,61.1 14.68,111.77 44.02,152.36 29.35,40.42 69.15,60.72 119.21,60.72 34.97,0 65.13,-6.04 90.25,-18.3 25.33,-12.05 47.03,-29.34 65.13,-51.66l28.94 50.05c-19.1,24.72 -44.03,44.42 -74.38,59.29 -30.55,14.68 -67.14,22.12 -109.95,22.12 -68.76,0 -125.25,-25.73 -168.87,-77.39 -43.62,-51.66 -65.52,-117.4 -65.52,-197.4zm71.15 -113.58l293.08 0 0 -27.12c0,-52.47 -12.27,-96.09 -36.99,-130.66 -24.73,-34.78 -58.89,-52.06 -102.72,-52.06 -44.22,0 -80.6,20.09 -108.95,60.51 -28.55,40.39 -43.23,90.24 -44.43,149.34z"/>
   <path class="fil0" d="M3859.94 3267.65c-2.81,56.44 2.12,102.28 14.82,137.56 12.71,35.26 29.63,62.78 50.79,82.53 21.17,19.75 45.15,32.45 71.95,38.09 26.81,5.63 54.32,8.47 82.53,8.47 93.12,0 253.95,-79.01 482.5,-237.02 228.54,-158.01 526.22,-410.55 893.03,-757.6 634.87,-609.47 1025.66,-1015.78 1172.38,-1218.95 84.65,-124.15 152.37,-222.19 203.15,-294.14 50.8,-71.95 86.06,-120.63 105.81,-146.03 67.72,-84.65 117.1,-126.97 148.14,-126.97 11.28,0 23.28,8.47 35.98,25.4 12.69,16.92 14.81,32.44 6.35,46.55 -22.58,39.51 -114.27,179.16 -275.11,419.01 -160.82,239.84 -392.2,572.78 -694.11,998.86 -149.55,211.61 -274.4,390.78 -374.57,537.5 -100.17,146.73 -180.58,269.46 -241.26,368.22 -60.65,98.76 -104.39,175.65 -131.2,230.67 -26.8,55.01 -40.2,96.63 -40.2,124.85 0,64.9 21.16,97.34 63.47,97.34 8.47,0 20.47,-1.4 35.98,-4.22 15.52,-2.83 34.58,-8.48 57.14,-16.93 -39.5,53.6 -78.29,92.4 -116.39,116.38 -38.09,23.99 -76.88,38.8 -116.38,44.44 -31.05,5.64 -59.25,-1.41 -84.66,-21.16 -25.4,-19.75 -38.09,-47.96 -38.09,-84.65 0,-25.4 2.12,-53.61 6.36,-84.65 4.23,-31.03 15.51,-69.83 33.86,-116.39 18.33,-46.55 46.54,-104.39 84.64,-173.52 38.09,-69.13 90.99,-157.31 158.71,-264.53 76.19,-118.5 152.37,-230.66 228.55,-336.47 76.19,-105.81 143.91,-199.63 203.16,-281.46 59.25,-81.83 107.93,-148.14 146.01,-198.92 38.09,-50.78 58.55,-80.42 61.37,-88.87 -172.12,169.29 -359.75,342.82 -562.91,520.58 -203.16,177.76 -393.62,351.28 -571.38,520.59 -222.9,205.96 -419.71,353.4 -590.42,442.27 -170.7,88.89 -315.3,134.73 -433.81,137.56 -39.51,0 -79.01,-7.06 -118.51,-21.17 -39.5,-14.11 -74.07,-37.39 -103.7,-69.83 -29.63,-32.45 -50.78,-74.78 -63.49,-126.98 -12.7,-52.2 -13.4,-116.39 -2.11,-192.57 2.83,-28.22 21.16,-79.7 55.02,-154.48 33.86,-74.78 78.3,-167.89 133.31,-279.34 55.03,-111.46 119.93,-240.54 194.7,-387.26 74.76,-146.73 155.89,-307.56 243.35,-482.5 -87.46,81.82 -181.99,169.29 -283.56,262.41 -101.58,93.12 -205.27,187.63 -311.08,283.57 -105.81,95.93 -210.21,191.15 -313.21,285.68 -102.98,94.53 -198.21,184.11 -285.68,268.76 -445.81,403.49 -785.81,608.06 -1020.01,613.7 -42.33,0 -82.54,-5.64 -120.62,-16.94 -38.09,-11.29 -71.95,-31.03 -101.58,-59.25 -29.62,-28.21 -52.2,-67.71 -67.7,-118.5 -15.52,-50.79 -21.88,-115.68 -19.05,-194.69 2.82,-56.44 26.81,-166.48 71.95,-330.13 45.15,-163.65 114.28,-386.55 207.39,-668.72 183.41,-550.21 276.52,-945.23 279.33,-1185.07 0,-310.37 -93.82,-548.09 -281.45,-713.16 -187.63,-165.06 -466.27,-247.6 -835.89,-247.6 -118.51,0 -241.95,25.4 -370.35,76.18 -128.38,50.8 -246.18,107.93 -353.4,171.42 -107.21,63.48 -196.8,122.04 -268.75,175.65 -71.95,53.6 -113.58,83.24 -124.86,88.88 -45.15,0 -70.54,-11.29 -76.18,-33.86 0,-8.45 19.04,-30.33 57.14,-65.59 38.09,-35.28 90.28,-76.89 156.59,-124.86 66.31,-47.97 144.6,-98.75 234.9,-152.37 90.29,-53.61 186.93,-102.98 289.91,-148.84 103,-45.85 210.21,-84.65 321.67,-116.38 111.45,-31.75 223.61,-47.97 336.48,-47.97 172.11,-2.83 329.41,20.45 471.91,69.84 142.49,49.37 264.53,119.2 366.1,210.2 101.58,90.29 179.88,200.33 234.91,330.13 55.01,129.79 82.53,274.4 82.53,432.41 0,81.82 -23.28,221.49 -69.84,419.01 -46.55,198.21 -119.22,452.16 -217.97,763.23 -93.12,307.56 -163.65,548.81 -211.62,722.34 -47.96,173.52 -71.95,280.05 -71.95,320.25 0,53.62 6.36,97.35 19.05,131.2 12.7,33.86 29.63,60.67 50.78,80.42 21.17,19.75 44.44,33.86 69.84,42.33 25.39,8.45 52.2,12.7 80.42,12.7 186.23,0 646.14,-347.07 1379.77,-1041.17 321.66,-307.56 579.13,-562.22 772.41,-763.96 193.28,-201.74 325.19,-353.4 395.72,-454.97 172.12,-248.31 276.52,-395.04 313.21,-440.18 64.9,-81.82 112.87,-122.74 143.9,-122.74 11.29,0 22.58,8.47 33.86,25.39 11.28,16.93 14.1,32.45 8.47,46.56 -39.51,53.61 -94.53,131.9 -165.07,234.9 -70.55,102.98 -148.14,220.07 -232.79,351.29 -84.64,131.2 -171.42,272.27 -260.3,423.23 -88.88,150.96 -170,301.21 -243.37,450.77 -56.43,110.04 -112.86,222.19 -169.29,336.47 -56.43,114.27 -107.93,218.68 -154.48,313.19 -46.56,94.53 -85.36,175.65 -116.39,243.37 -31.04,67.72 -46.56,111.46 -46.56,131.2z"/>
  </g>
  <g id="_1046014096">
   <path class="fil2" d="M7711.5 6549.73l1.4 3.03c-2.5,0.81 -4.85,1.63 -7.24,2.43 1.67,-1.55 5.54,-5.22 5.84,-5.45zm-117.04 70.17c4.65,-4.59 9.46,-9.39 14.36,-14.24l4.34 11.03c1.77,-0.57 4.62,-1.56 8.35,-2.85l1.58 5.91c-12.22,0.81 -22.57,1.47 -30.51,2 0.6,-0.6 1.23,-1.21 1.88,-1.86zm-153.55 66.17c0.25,-0.17 0.52,-0.41 0.79,-0.6l0.43 0.4c-0.46,0.09 -0.84,0.12 -1.22,0.2zm-26.65 18.97c1.77,-1.22 3.43,-2.39 5.27,-3.63 5.92,-4.14 12.03,-8.56 18.19,-13.07l1.08 4.76c-4.95,4.15 -9.68,7.94 -14.24,11.4 -3.59,0.16 -6.94,0.36 -10.3,0.55zm161.67 -62.37c-2.01,0.41 -3.82,0.75 -5.78,1.21 2.85,-2.82 5.61,-5.56 8.62,-8.52l0.57 6.64c-1.11,0.2 -2.32,0.46 -3.41,0.67zm413.19 -236.66c-0.21,0.03 -0.42,0.09 -0.62,0.12 0.12,-0.09 0.33,-0.18 0.48,-0.27l0.14 0.15zm-6.21 1.33l0.09 0.16c-0.42,0.12 -0.82,0.21 -1.25,0.35 0.37,-0.2 0.78,-0.37 1.15,-0.5zm-1294.1 617.54c-1.15,1.38 -2.3,2.97 -3.48,4.38 -10.06,12.68 -20.4,23.12 -30.25,32.11 11.38,-11.67 22.7,-23.8 33.72,-36.49zm-92.32 92.77l1.28 2.76c-2.82,0.03 -5.63,0.11 -8.29,0.25 4.29,-3.29 8.72,-7.09 13.11,-10.71l1.75 3.46c-3.24,1.66 -6.04,3.12 -7.85,4.24zm-24.89 -164.43c-9.35,12.38 -19.14,24.23 -29.05,35.89 53.77,-72.28 91.88,-154.17 119.61,-219.55 6.62,-16.68 12.8,-32.31 18.45,-46.55 5.63,-14.28 9.67,-27.59 13.78,-39.05 7.83,-23.03 13.71,-39.51 16.14,-47.37 33.66,-104.42 58.35,-205.56 83.59,-296.47 24.91,-91.04 51.27,-171.65 77.25,-238.01 26.98,-65.87 53.16,-117.48 73.5,-151.79 7.32,-11.98 13.42,-21.94 18.33,-29.98 -16.14,30.61 -32.97,68.2 -48.07,112.42 -25.25,71.28 -44.78,159.24 -64.49,256.52 -10.09,48.61 -20.27,99.62 -33.38,151.71 -6.68,25.98 -13.82,52.35 -22.37,78.68 -4.09,13.26 -8.22,26.6 -12.38,40.01 -4.19,13.4 -9.63,26.47 -14.42,39.86 -3.12,7.96 -9,25.07 -18.48,48.43 -5.11,11.49 -10.96,24.68 -17.44,39.15 -6.56,14.46 -13.04,30.54 -22.02,46.82 -32.17,66.79 -81.53,146.2 -138.56,219.27zm1466.66 -644.83c-0.54,0.49 -1.12,0.99 -1.72,1.48 36.79,-43.39 62.89,-78.23 70.95,-87.35 44.69,-55.49 86.48,-108.62 126.92,-154.72 40.43,-46.12 79.09,-85.5 114.51,-115.43 8.59,-7.73 17.7,-13.99 25.83,-20.55 8.35,-6.24 15.74,-12.86 23.65,-17.58 15.53,-9.81 28.39,-19.44 39.91,-25.39 23,-12.28 35.7,-19.11 35.7,-19.11 0,0 -13.32,5.67 -37.33,15.98 -12.13,5.09 -25.64,13.73 -42.1,22.55 -8.41,4.25 -16.27,10.39 -25.15,16.18 -8.65,6.05 -18.29,11.85 -27.48,19.17 -37.74,28.16 -79.08,66.24 -121.56,111.49 -42.5,45.28 -85.72,97.92 -130.34,153.35 -13.38,15.17 -77.91,100.31 -156.4,175.78 38.68,-44.99 75.87,-90.93 106.01,-127.37 30.72,-37.2 108.15,-128.79 130.82,-155.19 23.36,-25.73 45.86,-50.6 67.32,-74.2 44.55,-45.62 84.78,-86.74 121.85,-117.76 35.25,-33.21 67.45,-55.54 88.83,-72.2 21.5,-16.54 33.42,-25.69 33.42,-25.69 0,0 -12.64,8.13 -35.39,22.83 -22.65,14.98 -56.68,35.14 -94,66.46 -39.19,29.1 -81.72,68.58 -128.24,113.18 -22.32,23.22 -45.9,47.49 -69.77,73.11 -23.1,26.22 -292.31,338.59 -301.9,348.98 -19.42,20.61 -39,38.94 -56.14,55.63 -7.57,7.09 -14.53,13.77 -21.11,20.12 -19.02,7.9 -34.71,14.97 -46.52,20.4 35.44,-35.14 74.75,-77.03 114.41,-120.18 92.19,-101.8 178.75,-208.06 195.59,-226.75 54.4,-63.37 106.47,-123.26 155.96,-175.75 49.39,-52.61 96.26,-97.57 136.99,-133.89 41.27,-35.68 76.1,-63.02 100.82,-80.98 24.93,-17.81 38.73,-27.63 38.73,-27.63 0,0 -14.48,8.8 -40.69,24.74 -26.02,16.26 -62.63,41.48 -106.02,75.24 -42.86,34.45 -92.12,77.81 -143.41,129.36 -51.37,51.46 -104.84,110.86 -159.37,174.33 -16.87,18.71 -104.94,124.08 -197.44,223.87 -46.55,49.47 -94.14,99.09 -132.8,135.46 -9.83,9.02 -18.97,17.42 -27.33,25.1 -8.35,7.72 -16.86,13.24 -23.75,18.8l-0.24 0.22c8.3,-8.26 51.42,-50.97 64.75,-64.23 13.49,-13.09 26.94,-26.56 39.54,-41.13 51.71,-56.67 99.56,-116.32 136.62,-164.54 36.86,-48.29 64.23,-84.21 72.72,-95.37 56.29,-74.04 109.42,-144.66 160.68,-206.41 51.07,-61.92 100.39,-114.73 144,-156.95 44.33,-41.41 82.24,-72.85 109.44,-93.27 27.46,-20.15 42.63,-31.31 42.63,-31.31 0,0 -15.86,10.13 -44.65,28.46 -28.49,18.76 -68.37,48.13 -114.98,87.84 -45.86,40.5 -97.73,91.94 -150.85,152.98 -53.26,60.88 -107.79,131.05 -164.06,205.08 -8.5,11.1 -35.85,47.01 -73.38,94.51 -37.37,47.55 -85.57,106.33 -136.96,161.47 -12.46,14.1 -25.97,27.37 -39.55,40.3 -13.4,13.1 -153.56,149.68 -168.37,164.16 -1.29,0.42 -2.38,0.75 -3.61,1.17 17.68,-19.92 35.68,-42.19 54.39,-65.19 12.36,-15.42 25.06,-30.29 38.17,-45.86 13.26,-15.7 26.71,-31.55 40.12,-47.41 109.19,-126.05 202.05,-264.68 220.62,-288.78 60.07,-81.6 112.96,-162.72 170.51,-227.62 57.57,-65.2 117.19,-116.97 169.09,-158 52.06,-40.93 95.57,-72.45 125.57,-94.33 30.05,-21.79 46.7,-33.86 46.7,-33.86 0,0 -17.34,11.02 -48.67,30.98 -31.19,20.15 -76.32,49.36 -130.39,88.25 -53.87,39.06 -116.06,89.27 -176.32,154.29 -13.69,14.7 -27.01,30.32 -40.18,46.44 10.57,-14.11 21.13,-27.97 31.71,-41.19 49.39,-62.09 97.9,-114.85 142.7,-154.93 10.62,-10.64 22.13,-19.18 32.25,-28.17 10.45,-8.62 19.81,-17.41 29.58,-24.28 19.24,-14.13 35.17,-27.37 49.37,-36.48 28.06,-18.72 43.6,-29.05 43.6,-29.05 0,0 -16.22,9.3 -45.56,26.14 -14.77,8.23 -31.48,20.52 -51.62,33.7 -10.25,6.4 -20.08,14.72 -31.06,22.89 -10.67,8.49 -22.73,16.6 -33.93,26.82 -47.08,38.38 -98.36,89.91 -149.98,151.42 -51.74,61.44 -102.89,133.47 -154.28,210 -7.82,11.46 -32.99,48.45 -66.72,98.16 -30.21,43.64 -66.91,97.43 -107.73,149.39 19.89,-30.83 38.18,-60.5 54.36,-86.94 35.51,-58.39 61.55,-101.81 70.08,-114.97 114.64,-173.91 212.61,-337.41 307.41,-435.31 46.79,-49.46 91.55,-82.47 124.84,-100.99 8.38,-4.49 15.59,-9.06 22.32,-12.04 6.76,-2.92 31.21,-13.38 31.21,-13.38 0,0 -25.08,9 -32.07,11.47 -6.91,2.59 -14.4,6.8 -23.12,10.85 -34.54,16.78 -81.63,47.99 -131.16,96.16 -49.96,47.69 -101.4,112.17 -153.82,186.34 -26.26,37.02 -52.74,76.63 -80.39,117.34 -27.72,40.32 -56.78,83.18 -84.19,127.68 -8.31,13.39 -35.1,56.54 -71.08,114.54 -36.05,57.71 -81.56,129.99 -133.6,196.82 -13.43,16.38 -26.84,32.74 -40.06,48.89 -6.93,7.54 -13.84,15.08 -20.67,22.55 -6.86,7.41 -14.53,13.93 -21.62,20.78 -10.76,9.82 -21.64,18.87 -32.48,27.65 6.76,-8.56 13.66,-17.35 20.4,-26.48 20.43,-29.78 42.36,-61.07 62.53,-93.04 81.6,-127.89 155.85,-260.08 170.91,-283.39 47.54,-79.08 93.69,-153.68 139.14,-219.16 45.31,-65.59 90.06,-121.76 129.67,-167.23 40.38,-44.77 75.17,-79.16 100.21,-101.89 25.24,-22.51 39.21,-35.02 39.21,-35.02 0,0 -14.77,11.56 -41.48,32.37 -26.49,21.18 -63.37,53.7 -106.16,96.95 -42.01,43.89 -89.4,98.91 -136.81,163.87 -47.59,64.83 -95.3,139.28 -142.97,218.59 -15.1,23.42 -90.96,154.93 -173.31,280.95 -20.49,31.77 -42.23,62.11 -62.53,91.09 -3.47,4.61 -6.98,8.97 -10.45,13.39 4.91,-8.62 9.86,-17.23 14.93,-25.8 40.88,-72.19 79.55,-145.54 110.65,-203.72 31.16,-58.11 54.36,-101.35 61.55,-114.79 48.54,-88.51 96.06,-172.04 143.27,-245.47 47,-73.56 93.74,-136.79 135.27,-188.15 42.23,-50.75 79,-89.73 105.49,-115.56 26.75,-25.61 41.56,-39.8 41.56,-39.8 0,0 -15.66,13.26 -43.95,37.24 -27.95,24.34 -66.94,61.54 -111.62,110.84 -43.94,49.91 -93.41,112.05 -142.52,185.06 -49.36,72.86 -98.42,156.25 -147.13,245.06 -7.32,13.39 -133.55,245.15 -174.9,316.5 -9.97,16.57 -19.61,33.43 -29.41,49.76 11.54,-20.82 22.58,-42.32 33.31,-63.96 35.35,-73.54 64.08,-149.31 89.55,-208.3 12.27,-29.76 23.9,-55.12 32.99,-74.9 8.78,-19.95 16.1,-33.68 19.53,-40.22 43.63,-87.42 100.48,-162.59 148.97,-232.6 26.24,-33.58 51.18,-65.52 74.53,-95.41 11.13,-15.41 24.38,-28.16 35.83,-41.52 11.75,-13.13 23.01,-25.73 33.77,-37.76 41.66,-49.51 81.28,-83.79 106.73,-109.52 25.9,-25.36 40.23,-39.37 40.23,-39.37 0,0 -15.17,13.11 -42.58,36.76 -26.87,24.2 -68.54,56.58 -112.53,104.44 -11.3,11.62 -23.15,23.83 -35.5,36.56 -12.04,13 -25.88,25.37 -37.61,40.49 -24.38,29.4 -50.47,60.83 -77.9,93.94 -26.57,33.72 -51.6,71.31 -78.99,109.26 -6.64,9.58 -13.77,18.98 -20.19,29.09 -6.26,10.21 -12.58,20.5 -18.95,30.9 -13.33,20.42 -24.27,42.5 -35.77,64.61 -3.51,6.64 -11.07,20.6 -20.08,40.69 -9.4,19.97 -21.43,45.54 -34.03,75.3 -26.18,59.06 -55.67,134.48 -91.12,206.32 -18.11,35.76 -36.99,71.15 -57.27,102.52 -5.02,7.9 -9.5,15.98 -14.76,23.41 -5.56,7.16 -11.07,14.2 -16.42,21.08 -11.07,13.56 -20.21,27.52 -31.44,38.73 -29.27,32.95 -54.96,58.15 -71.1,73.91 -5.64,3.76 -10.74,7.05 -14.97,9.76 -1.24,0.27 -2.47,0.57 -3.66,0.86 5.84,-6.6 11.81,-13.55 17.85,-20.77 24.3,-29.38 50.05,-63.86 74.53,-101.94 12.27,-19.02 24.55,-38.68 36.02,-59.36 11.42,-20.66 24.27,-40.95 34.74,-62.4 43.99,-85.06 78.33,-173.84 108.15,-243.16 28.8,-69.78 53.15,-120.06 60.21,-135.98 12.89,-25.7 26.38,-50.66 39.22,-75.54 13.84,-24.25 28.84,-47.28 42.77,-70.45 30.23,-44.92 61.59,-86.95 93.2,-125.55 63.18,-77.33 126.68,-141.44 181.27,-193.98 55.13,-51.87 101.07,-92.65 133.03,-120.6 32,-27.92 49.68,-43.35 49.68,-43.35 0,0 -18.47,14.47 -51.91,40.66 -33.27,26.34 -81.12,64.99 -138.4,115.04 -56.69,50.7 -122.65,113.28 -188.2,190.12 -32.76,38.42 -65.23,80.38 -96.44,125.73 -14.52,23.43 -30.08,46.94 -44.32,71.55 -13.18,25.15 -27.03,50.53 -40.12,76.62 -7.05,15.99 -32.15,66.86 -61.59,136.56 -30.43,69.22 -65.48,157.42 -109.37,240.51 -10.46,21.02 -23.21,40.7 -34.54,60.85 -11.32,20.11 -23.64,39.44 -35.85,58.05 -24.29,37.17 -49.65,70.57 -73.31,98.81 -11.91,14.06 -23.3,26.9 -34.42,37.88 -5.92,6.45 -11.79,12.05 -17.45,17.27 18.05,-26.62 36.41,-56.63 55.74,-87.86 22.26,-34.59 45.68,-72.86 68.62,-111.36 42.64,-78.75 75.21,-161.69 100.91,-227.45 25.47,-65.6 44.44,-114.46 50.3,-129.59 40.21,-99.83 85.45,-191.6 139.86,-266.93 53.7,-75.83 110.88,-137.52 160.66,-187.43 50.92,-48.8 94.47,-85.96 125.38,-110.63 31.17,-24.36 48.43,-37.82 48.43,-37.82 0,0 -17.99,12.49 -50.56,35.03 -32.26,23.05 -77.71,58.16 -130.94,105.25 -52.05,48.27 -111.96,108.66 -168.28,184.56 -57.13,75.42 -104.87,169.07 -145.3,269.54 -6,15.12 -25.34,63.94 -51.4,129.52 -26.13,65.25 -59.25,146.98 -101.52,223.46 -22.61,37.17 -45.57,74.06 -68.84,109.61 -22.41,35.53 -43.05,68.91 -63.02,96.95 -5.01,6.98 -9.81,13.76 -14.43,20.25 -4.98,6.19 -17.29,21.74 -18.86,23.61 -4.8,1.01 -8.95,1.83 -11.62,2.37l2.28 8.4c-4.15,4.5 -8.17,8.66 -11.75,12.66 -7.48,8.72 -15.09,14.54 -20.8,19.78 -4.94,4.4 -8.58,7.69 -11.33,10.09 -4.23,0.89 -8.49,1.74 -12.42,2.56 13.74,-13.67 27.92,-29.59 42.37,-47.82 23.98,-29.97 48.28,-65.61 73.94,-102.4 23.86,-39.14 51.33,-79.22 71.35,-123.09 22.88,-42.54 40.06,-87.43 58.15,-129.24 16.36,-42.32 71.1,-184.26 80.97,-207.99 9.88,-23.8 16.36,-41.17 20.34,-48.89 45.18,-106.73 104.9,-199.95 166.3,-279.42 61.37,-79.47 124.65,-144.65 179.19,-197.82 55.34,-52.46 101.58,-93.41 133.75,-121.58 32.19,-28.07 49.99,-43.59 49.99,-43.59 0,0 -18.58,14.55 -52.23,40.92 -33.51,26.52 -81.62,65.41 -139.12,116.02 -56.7,51.38 -122.53,115.14 -186.45,194.37 -63.66,78.87 -126.06,173.74 -171.92,282.1 -4.09,7.9 -10.68,25.27 -20.8,49.21 -10.12,23.96 -22.73,54.77 -36.33,90.26 -13.97,35.29 -29.74,75.14 -46.4,117.19 -18.23,41.12 -35.63,85.47 -58.33,126.8 -20,42.92 -46.99,81.42 -70.32,119.24 -26.24,37.03 -50.34,71.75 -73.71,100.57 -3.88,4.87 -7.71,9.31 -11.56,13.8 17.74,-31.67 34.37,-67.21 52.55,-103.95 20.32,-43.09 145.51,-316.47 180.4,-388.19 34.78,-71.72 62.09,-124.37 71.07,-140.41 57.49,-107.67 118.04,-207 180.38,-292.18 61.83,-85.69 127.96,-154.46 186.56,-208.51 30.53,-25.69 57.14,-50.43 83.75,-67.8 25.97,-18.29 47.56,-35.37 67.47,-45.74 38.67,-22.76 60.05,-35.33 60.05,-35.33 0,0 -22.01,11.51 -61.81,32.33 -20.54,9.49 -42.86,25.62 -69.76,42.94 -27.57,16.45 -55.27,40.23 -87.01,65.12 -61.02,52.48 -130.14,120.25 -194.37,205.65 -64.7,84.86 -127.1,184.55 -184.97,292.95 -9.07,16.16 -36.91,68.93 -72.41,140.74 -35.61,71.69 -77.84,162.83 -120.29,253.51 -21.1,45.42 -42.61,90.46 -63.07,133 -21.44,42.55 -40.34,82.97 -60.36,116.02 -17.08,28.81 -35.08,51.48 -51.75,67.73 -0.38,0.02 -0.86,-0.02 -1.25,-0.02 12.27,-17.78 25.11,-38.34 38.68,-61.4 40.67,-71.13 83.69,-163.81 125.8,-257.37 41.41,-93.72 81.47,-187.83 115.34,-261.79 34.35,-73.68 61.27,-127.77 70.82,-143.94 7.4,-13.66 14.77,-27.24 22.08,-40.75 7.11,-13.63 14.58,-26.96 22.74,-39.63 15.87,-25.77 31.49,-51.15 46.84,-76.08 34.08,-47.63 65.81,-94.48 100.58,-135.48 68.66,-82.71 142.87,-146.14 206.88,-196.77 64.14,-50.6 118.21,-89.13 154.9,-116.5 36.78,-27.33 57.08,-42.5 57.08,-42.5 0,0 -21.02,14.11 -59.07,39.62 -37.95,25.68 -93.52,61.82 -159.71,110.48 -65.92,48.6 -142.95,110.58 -214.46,193.41 -36.19,41.03 -69.01,87.91 -104.02,135.82 -15.74,25.15 -31.76,50.71 -48.05,76.67 -8.36,12.85 -15.95,26.28 -23.21,40 -7.37,13.61 -14.82,27.35 -22.36,41.19 -9.63,16.3 -37.18,70.69 -72.31,144.56 -24.66,52.76 -52.55,115.7 -81.69,181.14 23.8,-66.03 88.77,-251.22 97.78,-275.94 9.54,-24.46 17.26,-41.66 20.6,-49.92 45.5,-109.3 103.7,-206.04 168.86,-285.24 64.86,-79.2 132.24,-143.29 193.45,-191.09 14.66,-12.83 30.49,-22.52 44.45,-33.09 14.39,-9.95 27.22,-20.59 40.57,-28.32 26.46,-15.88 48.57,-30.98 67.89,-41.02 38.75,-20.04 60.16,-31.13 60.16,-31.13 0,0 -22.01,10 -61.8,28.02 -19.87,9.18 -42.65,23.27 -70,38.13 -13.84,7.21 -27.08,17.38 -41.98,26.82 -14.46,10.09 -30.83,19.31 -46.06,31.7 -63.51,46 -133.69,108.79 -201.24,187.91 -67.7,78.85 -128.87,177.84 -174.91,288.52 -3.38,8.41 -11.32,25.79 -21.13,50.47 -9.22,24.79 -21.77,56.54 -34.96,93.16 -26.42,73.28 -57.53,165.73 -93.23,255.81 -36.6,89.33 -77.1,178.5 -112.15,245.94 -2.06,3.71 -3.86,7.13 -5.84,10.75 14.35,-37.1 278.89,-759.82 283.84,-771.5 5.27,-11.46 11.21,-22.49 16.67,-33.59 46.15,-87.76 104.59,-156.82 152.47,-215.51 24.01,-29.41 44.47,-56.82 64.71,-78.87 9.77,-11.39 20.08,-20.71 29.05,-29.87 9.85,-8.11 18.51,-16.07 27.01,-22.26 8.73,-5.88 16.51,-11.13 23.29,-15.65 6.98,-4.1 13.26,-6.9 18.18,-9.57 9.91,-5.12 15.12,-7.79 15.12,-7.79 0,0 -5.35,2.4 -15.52,6.92 -5.07,2.35 -11.55,4.87 -18.81,8.66 -7.01,4.2 -15.14,9.1 -24.22,14.55 -8.95,5.86 -18.05,13.47 -28.5,21.24 -9.45,8.82 -20.4,17.86 -30.75,28.9 -21.46,21.48 -43.2,48.16 -68.17,76.54 -49.76,56.69 -111.23,124.7 -160.52,213.76 -5.82,11.27 -12.15,22.45 -17.8,34.19 -5.31,11.94 -10.65,23.91 -16.08,36.09 -9.64,24.67 -18.47,50.58 -28.03,75.87 -18.69,51.13 -169.7,457.13 -203.4,545.54 -35.03,87.74 -61.61,180.31 -110.38,232.18 -6.35,6.04 -12.49,11.9 -18.41,17.54 -4.89,4.81 -10.67,8.25 -15.91,11.89 -7.28,1.37 -12.93,2.44 -16.47,3.08l1.8 6.72c-8.26,4.74 -16.56,8.25 -23.59,12.09 -10.35,5.98 -20.89,7.94 -28.46,11.07 -5,1.79 -8.92,3.18 -12.27,4.36 37.18,-42.71 72.19,-96.62 105.65,-149.91 44.11,-70.77 82.89,-145.05 110.39,-205.77 27.17,-60.91 42.36,-108.29 47.85,-122.71 7.9,-24.32 14.36,-48.84 21.4,-72.74 5.56,-24.33 10.23,-48.49 15.21,-72.12 8.31,-48.05 9.43,-95.17 7.68,-139.37 -3.98,-88.57 -16.65,-166.67 -21.27,-232.63 -5.15,-65.94 -3.1,-119.59 1.99,-156.25 2.02,-18.46 5.21,-32.49 7.22,-42.05 1.99,-9.59 3.02,-14.62 3.02,-14.62 0,0 -1.37,4.98 -3.95,14.4 -2.63,9.42 -6.69,23.32 -9.76,41.74 -7.19,36.52 -12.09,90.68 -9.68,157.4 1.86,66.67 11.72,145.5 13.53,232.52 0.67,43.47 -1.27,89.01 -9.9,135.13 -5.09,23.07 -10.3,46.54 -15.55,70.37 -7.05,23.34 -13.48,47.29 -21.2,71.13 -5.4,14.16 -20.66,60.5 -48.01,120.15 -27.6,59.47 -66.5,132.23 -110.71,201.74 -35.17,54.89 -71,108.48 -108.14,149.52 12.34,-17.82 24.34,-37.17 35.72,-57.7 17.89,-32.03 36.77,-65.82 55.63,-99.63 38.31,-67.37 75.19,-136.19 101.73,-192.51 26.7,-56.29 41.45,-100.55 46.95,-113.86 32.59,-90.5 43.73,-183.13 43.54,-265.58 -0.27,-82.71 -6.47,-156.31 -8.71,-218.17 -1.76,-61.76 -0.11,-111.95 3.9,-146.31 4.49,-34.38 6.99,-53.42 6.99,-53.42 0,0 -3.71,18.86 -10.48,52.96 -6.09,34.26 -10.56,84.62 -11.57,146.9 -0.57,62.2 2.83,136.28 0.99,217.72 -1.94,81.31 -14.06,170.33 -45.75,258.51 -5.45,13.06 -20.19,56.07 -47.05,111.25l-0.15 0.28c16.47,-43.5 29.45,-83.9 39.09,-118.53 10.6,-39.51 17.52,-71.83 21.61,-94.26 3.7,-22.52 5.73,-34.97 5.73,-34.97 0,0 -3.23,12.17 -9.14,34.19 -6.13,21.92 -15.7,53.37 -28.9,91.74 -27.08,76.38 -69.63,180.29 -129.99,287.89 -9.05,15.93 -59,104.89 -125.57,179.91 -33,37.27 -69.72,71.99 -100.74,94.91 -23.08,16.14 -43.4,25.41 -55.55,30.78 1.44,-1.38 2.72,-2.67 4.2,-4.08 23.98,-22.82 51.14,-48.64 79.41,-77.25 14.71,-13.64 27.3,-30.19 41.12,-45.93 13.94,-15.65 26.75,-32.51 39.4,-49.54 51.07,-67.52 94.23,-140.68 124.8,-200.67 14.67,-30.29 27.76,-56.58 36.82,-77.59 9.01,-20.99 15.48,-36.05 18.6,-43.16 10.03,-23.74 18.72,-47.55 27.88,-70.86 8.14,-23.89 16.14,-47.41 23.99,-70.55 13,-46.99 23.8,-92.88 30.4,-136.99 14.69,-88.05 21.27,-167.81 29.05,-234.37 1.89,-16.64 3.65,-32.54 5.34,-47.55 2.04,-14.96 3.99,-29.05 5.82,-42.22 3.59,-26.4 6.64,-49.13 10.65,-67.43 7.02,-36.88 10.87,-57.28 10.87,-57.28 0,0 -5.09,20.16 -14.3,56.57 -5.01,18.16 -9.32,40.72 -14.2,66.97 -2.49,13.14 -5.09,27.19 -7.9,42.07 -2.31,14.99 -4.79,30.77 -7.37,47.39 -21.83,132.29 -35.21,319.34 -120.91,505.58 -3.09,7.05 -9.55,21.86 -18.64,42.54 -9.08,20.69 -22.22,46.46 -36.93,76.16 -7.4,14.12 -15.53,29.03 -24.27,44.39 5.75,-13.03 11.16,-25.75 16.01,-37.8 25.8,-63.76 41.75,-112.05 47.29,-126.82 17.18,-49.62 35.41,-96.6 50.24,-144.75 14.36,-47.87 23.75,-94.96 31.45,-139.83 15.14,-89.77 24.16,-170.76 36.45,-238.01 11.72,-67.35 26.01,-120.88 38.6,-157 5.74,-18.31 11.69,-31.92 15.4,-41.32 3.74,-9.35 5.68,-14.28 5.68,-14.28 0,0 -2.29,4.76 -6.61,13.9 -4.25,9.17 -11.01,22.5 -17.76,40.49 -14.58,35.52 -31.75,88.75 -46.27,155.98 -15.12,67.16 -26.98,148.21 -44.06,236.84 -8.62,44.26 -18.77,90.5 -33.39,136.99 -14.72,46.01 -33.72,94.19 -50.78,143.45 -5.52,14.73 -21.9,62.85 -47.89,125.41 -25.82,62.53 -63.18,139.28 -115.29,205.24 -25.87,33.23 -55.96,61.68 -85.75,89.17 -14.61,14.54 -28.74,28.7 -42.3,42.22 -12.91,13.81 -25.27,27.01 -36.88,39.39 -45.72,49.77 -82.44,81.82 -92.82,91.83l4.14 4.88 -2.91 16.96c-20.41,-0.81 -38.68,-1.17 -54.27,-1.26 2.81,-1.83 5.49,-3.46 8.47,-5.6 21.72,-13.81 47.26,-34.77 75.33,-59.87 28,-25.25 57.15,-55.62 88.45,-87.16 30.19,-33.07 62.63,-67.92 90.79,-105.96 57.57,-75.1 107.16,-156.46 139.26,-224.71 9.03,-16.61 15.5,-33.04 22.05,-47.79 6.45,-14.78 12.31,-28.21 17.41,-39.94 9.43,-23.8 15.31,-41.22 18.51,-49.35 4.87,-13.58 10.35,-26.86 14.58,-40.48 4.16,-13.66 8.26,-27.19 12.39,-40.61 8.48,-26.8 15.51,-53.59 21.95,-80.05 12.73,-52.88 22.06,-104.33 31.12,-153.18 17.67,-97.73 34.29,-185.31 56.6,-256.68 21.51,-71.56 47.65,-126.61 68.96,-162.56 9.97,-18.48 19.71,-31.56 25.79,-40.78 6.17,-9.19 9.41,-14.02 9.41,-14.02 0,0 -3.54,4.66 -10.17,13.44 -6.6,8.88 -17.07,21.5 -27.98,39.53 -6.8,10.23 -14.09,22.28 -21.57,35.74 -5.91,8.56 -15.41,22.28 -28.29,40.94 -22.2,33.29 -51.07,83.89 -80.86,149.24 -28.74,65.77 -58.06,146.31 -85.07,237.14 -27.41,90.72 -53.44,191.39 -86.74,294.79 -2.42,7.82 -8.33,24.03 -16.25,46.76 -4.13,11.28 -8.26,24.42 -13.9,38.43 -5.68,14.02 -11.92,29.3 -18.58,45.65 -28.03,64.55 -66.37,145.05 -119.93,215.17 -51.96,69.9 -117.98,131.38 -166.3,182.32 -22.72,23.3 -43.28,42.47 -60.05,57.59 -6.39,3.77 -11.51,6.6 -14.61,8.38l1.66 3.18c-0.28,0.25 -0.6,0.57 -0.9,0.8 -2.65,0.02 -5.02,0.06 -6.87,0.05l0.16 5.85c-8.94,7.72 -15.7,13.6 -19.27,16.94l10.57 13.15 -0.31 5.93c1.4,0.13 3.41,0.31 5.49,0.5l1.87 2.36c0.58,-0.52 1.54,-1.33 2.23,-1.93 8.3,0.76 19.87,1.83 34.72,3.24 21.86,2.11 49.95,3.9 82.73,9.14 65.4,9.5 147.85,19.49 230.03,32.29 82.34,11.8 164.01,27.76 228.82,41.07 63.92,16.29 112.15,26.71 126.22,32.4 23.61,8.81 46.92,17.49 69.93,26.02 22.87,8.97 44.8,19.71 66.71,29.14 21.94,9.4 43.03,19.86 63.65,30.14 20.62,10.27 40.97,19.86 60.6,30.05 78.65,39.99 149.58,76.46 211.14,103.01 30.18,14.48 59.12,24.07 83.86,33.74 12.53,4.58 23.89,9.33 34.74,12.76 11.01,3.12 85.93,24.04 85.93,24.04 0,0 -73.43,-25.28 -84.16,-28.94 -10.57,-3.94 -21.72,-9.28 -33.92,-14.46 -24.16,-10.85 -52.26,-21.6 -81.74,-37.33 -59.99,-28.9 -129.27,-67.67 -207.1,-109.58 -19.36,-10.65 -39.73,-20.74 -60.26,-31.49 -20.56,-10.71 -41.58,-21.61 -63.75,-31.38 -22.09,-9.85 -44.1,-20.92 -67.33,-30.21 -23.5,-8.85 -47.37,-17.78 -71.47,-26.86 -14.44,-5.79 -63.1,-16.78 -127.84,-33.91 -65.29,-14.07 -147.45,-30.94 -230.03,-43.57 -74.99,-12.41 -150.11,-22.48 -212.05,-31.67 12.37,0.75 25.29,1.66 38.77,2.8 90.62,7.36 204.64,30.48 319.33,49.03 112.91,26.06 228.24,45.19 312.59,81.06 42.53,17.27 78.97,34.28 106.94,48.56 28.23,13.65 47.94,24.74 57.42,29.62 62.67,33.2 122.96,67.74 183.32,98.01 60.08,30.35 118.99,57.59 176.34,81.2 114.51,47.13 224.92,73.9 318.09,81.08 46.45,5.54 88.42,8.27 125.33,11.88 36.72,4.06 68.54,6.72 94.32,10.25 51.46,8.18 79.92,12.68 79.92,12.68 0,0 -28.27,-5.75 -79.4,-16.13 -25.7,-4.58 -57.35,-8.49 -94.09,-13.83 -36.64,-4.92 -78.75,-9.09 -124.67,-15.95 -92.56,-9.98 -199.54,-38.87 -312.24,-87.45 -56.25,-24.27 -114.53,-52.15 -173.89,-82.82 -59.34,-30.47 -119.46,-65.3 -182.51,-98.71 -9.57,-4.94 -29.27,-16.1 -57.77,-30.11 -28.17,-14.56 -65.02,-32.09 -108.37,-50 -87.02,-37.56 -203.14,-57.58 -316.46,-84.55 -75.59,-12.75 -150.74,-27.42 -219.89,-38.31 69.27,4.69 151.01,9.31 232.34,22.6 92.73,13.1 184.22,33.61 255.75,54.37 17.79,5.35 34.66,9.95 49.76,14.91 15,5.3 62.74,22.19 70.99,25.12 8.09,3.42 14.21,6.04 18.18,7.71 105.74,42.49 199.26,99.98 287.93,146.03 88.12,46.95 169.89,84.97 239.9,113.44 35.5,13.11 67.04,26.31 96.01,34.4 28.75,8.62 53.11,17.28 73.94,21.29 41.07,9.48 63.79,14.76 63.79,14.76 0,0 -22.39,-6.48 -62.87,-18.12 -20.44,-5.03 -44.4,-14.82 -72.52,-24.64 -28.45,-9.24 -59.28,-23.69 -94.02,-38 -68.52,-30.85 -148.42,-71.07 -235.24,-119.74 -87.1,-47.53 -180.4,-106.62 -288.45,-150.16 -4.02,-1.67 -10.26,-4.36 -18.44,-7.86 -8.4,-3.06 -56.73,-20.56 -71.97,-26.09 -15.3,-5.14 -32.36,-9.94 -50.4,-15.54 -72.39,-21.66 -165.02,-43.27 -258.43,-57.27 -93.31,-16.07 -188.23,-20.81 -261.94,-26.78 -35.59,-2.57 -66.17,-5.83 -90.33,-8.76 3.7,-4.07 8.22,-9.05 13.66,-14.94l0.05 4.35c12.95,0.31 57.19,1.41 117.12,2.86 59.9,4.46 135.53,9.46 210.83,21.63 75.5,10.7 150.78,22.67 209.59,36.77 29.58,6.4 54.79,14.07 74.75,19.02 19.52,6.3 33.48,10.8 40.13,12.96 43.89,14.5 85.3,32.11 124.7,51.8 39.36,19.33 78.27,35.9 113.82,55.27 72.03,36.96 136.9,70.18 191.35,98.14 54.21,28.56 100.41,47.28 131.42,61.75 31.25,13.92 48.53,21.64 48.53,21.64 0,0 -16.73,-8.84 -47.06,-24.78 -30.08,-16.42 -74.81,-37.48 -127.64,-68.49 -53.48,-29.9 -117.15,-65.48 -187.83,-104.98 -35.05,-20.29 -74.07,-37.93 -113.54,-57.98 -39.16,-20.26 -81.71,-38.78 -126.59,-53.59 -6.71,-2.21 -21.02,-6.93 -40.87,-13.51 -20.2,-5.22 -45.86,-13.26 -75.8,-20.08 -59.62,-14.94 -135.57,-27.8 -211.23,-39.38 -75.58,-12.99 -152.27,-18.87 -212.92,-23.82 -41.51,-1.18 -75.36,-2.13 -97.02,-2.72 9.35,-9.8 20.11,-20.7 31.98,-32.28l8.23 22.67c4.35,-2.09 14.94,-6.26 28.94,-13.28l2.59 8.56c8.08,-1.74 25.59,-7.31 52.42,-7.45 26.63,-0.67 61.72,3.66 101.89,12.05 40.28,8.38 85.41,21.35 134.99,32.09 50.07,9.72 100.82,18.33 152.47,29.58 102.82,21.31 204.41,48.42 282.7,77.16 19.58,7.16 37.42,15 53.99,21.6 16.5,6.71 31.64,12.52 44.09,19.24 25.33,12.62 43.48,21.68 52.06,25.94 27.91,15.33 54.25,32.51 80.82,48.56 25.77,17.81 51.18,35.36 76.16,52.6 49.97,34.64 98.46,67.81 145.57,98.12 47.04,30.4 93.18,57.23 137.18,80.79 44.25,23.1 86.56,42.59 126.33,57.63 79.27,30.78 147.44,43.57 194.53,47.88 23.47,3.31 41.96,2.62 54.34,3.24 12.42,0.37 18.95,0.54 18.95,0.54 0,0 -6.49,-0.5 -18.9,-1.48 -12.37,-1.29 -30.72,-1.42 -53.94,-5.82 -46.58,-6.29 -113.55,-21.73 -190.85,-54.76 -38.77,-16.16 -79.98,-36.7 -123.15,-60.69 -42.92,-24.49 -87.98,-52.03 -134.15,-83.13 -46.25,-30.98 -94.04,-64.71 -143.62,-99.87 -24.9,-17.48 -50.27,-35.27 -75.96,-53.34 -27.01,-16.56 -54.12,-34.26 -82.62,-49.94 -8.78,-4.43 -27.3,-13.73 -53.08,-26.75 -12.69,-7 -28.03,-12.98 -44.77,-19.96 -16.86,-6.8 -34.99,-14.98 -54.83,-22.41 -79.45,-29.79 -182.07,-58.05 -285.5,-80.25 -51.29,-11.62 -104.37,-21.05 -152.2,-30.7 -47.89,-10.68 -93.45,-24.14 -134.81,-32.95 -22.21,-4.77 -43.08,-8.3 -62.37,-10.52 1.19,-0.72 2.22,-1.28 3.45,-2.03 3.97,-2.53 8.27,-5.4 12.65,-8.33 0.53,-0.06 0.91,-0.13 1.44,-0.22 22.83,-3.37 53.49,-2.79 88.66,2.34 35.25,5.18 74.8,15.19 117.23,26.3 42.69,11.18 86.93,21.62 131.21,34.78 88.5,25.12 176.14,54.66 246.22,77.55 69.98,23.11 122.36,39.82 138.66,44.87 107.88,34.28 212.72,62.01 309.97,78.01 97.28,16.08 186.57,18.53 260.75,14.52 37.08,-3.39 70.68,-5.37 99.61,-11.72 29.07,-5.3 54.17,-8.99 73.99,-15.41 39.92,-11.11 61.98,-17.27 61.98,-17.27 0,0 -22.3,4.94 -62.74,13.83 -19.96,5.39 -45.21,7.88 -74.23,11.83 -28.9,5.05 -62.35,5.59 -99.08,7.53 -73.55,1.17 -161.32,-4 -257.02,-21.92 -95.72,-17.88 -199.06,-46.6 -306.46,-80.75 -16.25,-5.01 -68.24,-22.09 -138.02,-45.79 -69.83,-23.48 -157.41,-53.88 -246.46,-79.96 -44.19,-13.58 -89.77,-24.78 -131.62,-36.05 -39.36,-10.64 -77.39,-20.51 -112.52,-26.42 4.36,-1.52 9.12,-3.01 15.01,-3.92 8.81,-1.94 18.86,-4.25 30.55,-5.03 11.45,-1.59 24.31,-2.07 38.11,-2.29 27.59,-0.24 59.09,1.39 92.38,5.71 16.55,2.02 33.51,4.52 50.69,8.25 17.14,3.62 34.6,6.42 51.94,10.72 138.97,31.7 274.27,81.82 299.35,89.72 82.78,29.04 161.92,56.61 235.11,78.27 73.16,21.78 140.39,37.08 197.17,47.2 57,9.56 103.52,13.99 135.66,15.63 32.18,1.26 49.96,1.9 49.96,1.9 0,0 -17.65,-1.93 -49.65,-5.38 -31.89,-3.69 -77.81,-10.91 -133.77,-23.13 -55.85,-12.78 -121.7,-30.62 -193.74,-54.24 -72.08,-23.51 -150.4,-52.27 -233.34,-81.38 -25.15,-7.87 -160.07,-59.8 -300.97,-93.59 -17.45,-4.57 -35.41,-7.67 -52.88,-11.51 -17.37,-3.99 -34.98,-6.78 -52.12,-9.05 -34.1,-4.77 -66.88,-6.84 -96.01,-6.83 -14.67,0.13 -28.32,0.52 -40.89,2.15 -12.54,0.78 -23.88,3.21 -33.78,5.37 -9.95,1.6 -18.27,4.71 -24.89,7.21 -6.7,2.44 -11.69,4.28 -14.82,5.42l7.09 15.38c-13.29,-1.55 -26.09,-2.59 -38.02,-2.87 5.16,-4.44 10.38,-9.06 15.57,-14.13 10.67,-9.48 21.1,-20.38 31.38,-31.89l6.93 24.12c3.96,-1.37 10.34,-3.53 18.84,-6.46 5.31,-2.16 11.83,-3.94 18.82,-6.58l0.12 0.46c3.44,-0.56 8.93,-1.48 16.25,-2.67 7.28,-1.33 16.39,-2.94 27.37,-3.34 5.46,-0.35 11.28,-0.75 17.52,-1.21 6.29,0.05 12.9,0.13 19.89,0.14 13.88,-0.29 29.33,1.57 45.78,2.64 33.05,3.53 70.18,9.67 110.29,16.71 19.87,3.28 81.65,13.37 92.03,15.03l30.69 7.42c82.06,19.52 162.01,49.25 225.65,73.25 63.61,24.18 111.59,41.39 126.49,46.59 24.58,9.14 49.69,16.24 74,24.22 24.48,7.38 48.76,13.58 72.61,20.21 47.83,12.27 94.04,23.91 138.71,32.3 44.4,9.7 87.29,15.32 127.16,21.47 40.25,3.81 77.54,9.18 111.94,9.86 17.13,0.76 33.43,1.52 48.91,2.22 15.43,0.22 30.01,-0.34 43.63,-0.49 27.28,-0.27 50.67,-0.7 69.76,-2.9 38.15,-3.32 59.24,-5.13 59.24,-5.13 0,0 -21.18,0.59 -59.39,1.65 -19.06,1.15 -42.46,0.35 -69.53,-0.68 -13.54,-0.55 -28.04,-0.65 -43.36,-1.53 -15.32,-1.36 -31.48,-2.79 -48.45,-4.29 -34.01,-2.07 -70.86,-8.77 -110.52,-13.81 -39.38,-7.44 -81.67,-14.2 -125.43,-24.83 -44.07,-9.36 -89.77,-21.74 -137.08,-34.53 -23.53,-6.83 -47.72,-13.26 -71.86,-20.71 -23.94,-8.08 -48.49,-15.1 -72.92,-24.13 -14.74,-5.19 -62.09,-22.56 -125.55,-47.37 -63.16,-24.49 -143.22,-55.23 -226.76,-76.01l12.75 2.92c80.52,18.18 159.68,43.82 222.37,65.33 62.74,21.81 109.46,38.08 123.95,43.11 95.98,34.17 189.82,62.85 276.87,80.19 43.38,9.61 85.32,14.73 124.32,20.41 39.35,3.15 75.84,7.84 109.37,8.04 16.73,0.57 32.68,1.11 47.76,1.6 15.07,0.06 29.27,-0.49 42.57,-0.64 26.58,-0.42 49.42,-0.98 68.07,-2.73 37.25,-2.75 57.84,-4.25 57.84,-4.25 0,0 -20.63,0.28 -57.97,0.74 -18.62,0.68 -41.44,0.04 -67.9,-0.88 -13.22,-0.44 -27.35,-0.6 -42.36,-1.37 -14.96,-1.11 -30.73,-2.34 -47.32,-3.59 -33.25,-1.66 -69.24,-7.7 -108.01,-12.13 -38.48,-6.9 -79.74,-13.15 -122.37,-23.69 -85.68,-19.23 -177.5,-48.68 -273.45,-82.87 -14.45,-5.12 -61.05,-21.77 -123.68,-44.11 -62.76,-22.22 -142.39,-48.89 -224.3,-68.21l-30.65 -7.31c-10.29,-1.88 -71.06,-12.75 -90.54,-16.18 -38.64,-6.96 -75.68,-13.61 -108.86,-17.92 -5.36,-0.53 -10.43,-1 -15.55,-1.49 3.38,-1.91 7.05,-4.18 10.84,-6.76 23.4,-1.7 55.68,-2.4 94.24,2.23 33.31,3.97 70.81,11.14 110.38,20.78 39.57,9.28 80.98,22.34 122.55,33.87 83.22,23.23 166.16,49.3 232.36,68.96 66.41,19.59 115.83,34.12 131.16,38.66 50.76,15.47 101.33,27.48 149.65,40.51 24.2,6.45 47.95,12.76 71.9,17.08 23.8,4.84 46.99,9.79 70,12.34 91.58,13.03 175.04,15.59 244.66,12.32 34.8,-1 66.2,-4.07 93.71,-6.22 27.47,-3.31 51.15,-5.7 70.37,-8.54 38.35,-6.18 59.59,-9.61 59.59,-9.61 0,0 -21.38,2.22 -59.97,6.13 -19.31,1.8 -43.05,2.94 -70.49,4.93 -27.52,0.86 -58.81,2.53 -93.45,2.12 -69.13,0.46 -151.58,-4.92 -241.48,-19.81 -22.62,-3.03 -45.34,-8.37 -68.59,-13.52 -23.33,-4.6 -46.88,-11.25 -70.93,-17.97 -47.97,-13.59 -98.07,-25.85 -148.7,-41.27 -30.53,-9.32 -437.41,-133.41 -473.86,-142.86 17.67,2.16 35.54,4.54 53.39,7.15 32.28,5.53 64.72,10.5 95.36,16.21 30.4,7.08 59.19,13.84 84.7,19.8 50.96,12.54 88.42,24.23 100.16,27.22 77.46,22.87 151.33,44.69 218.48,64.53 67.74,18.41 128.86,34.84 181.26,44.17 26.14,4.77 49.41,10.66 70.48,12.91 20.93,2.5 99.41,11.75 99.41,11.75 0,0 -77.49,-14.84 -98.14,-18.72 -20.7,-3.53 -43.6,-10.77 -69.28,-16.88 -51.44,-11.94 -111.47,-31.02 -178.32,-51.3 -66.68,-21.1 -139.85,-45.16 -217.61,-67.96 -11.87,-3 -49.29,-15.19 -100.6,-28.4 -25.73,-6.36 -54.79,-13.57 -85.45,-21.1 -31.02,-6.18 -63.98,-11.65 -96.77,-17.63 -55.01,-8.73 -109.53,-15.17 -156.88,-19.24 13.36,-1.82 28.61,-0.75 44.71,-0.86 32.41,1.74 69.49,6.92 109.32,11.57 20.09,1.78 39.97,5.56 60.3,8.87 20.33,3.34 92.4,15.26 92.4,15.26 10.14,2.46 70.22,17.02 89.55,21.7 38.96,8.32 74.59,21.07 106.67,30.45 64.27,18.68 110.75,37.26 125.5,41.86 48.06,17.27 96.52,33.82 143.52,47.69 23.9,5.51 47.36,10.92 70.37,16.24 23.11,4.56 46.03,7.3 68.22,10.86 89.17,11.69 169.96,14.51 237.53,14.74 67.62,0.86 122.25,-0.63 160.01,-0.75 37.78,-0.46 58.66,-0.66 58.66,-0.66 0,0 -83.46,-3.75 -218.33,-9.76 -134.41,-6.44 -321.71,-20 -512.38,-99.41 -14.9,-4.68 -61.35,-23.66 -126.05,-43.17 -32.33,-9.76 -68.11,-22.94 -107.51,-31.81 -19.52,-4.93 -80.3,-20.24 -90.56,-22.82l-31.38 -5.51c-84.26,-15.51 -166.11,-27.81 -234.48,-33 -9.93,-0.02 -19.39,-0.42 -28.55,-0.42 2.14,-2.1 4.15,-3.92 6.24,-6.33 3.11,-3.47 6.67,-7.22 10.19,-11.03 7.84,-0.19 17.78,-0.37 30.03,0.24 22.13,0.73 50.89,2.86 84.07,7.11 33.16,3.93 70.66,9.76 110.67,15.7 40.61,5.78 82.04,11.12 123.25,18.58 82.44,16.46 162.43,45.91 226.51,67.86 63.93,22.7 111.96,39.48 127.04,44.02 99.43,33.92 198.66,51.31 288.28,62.2 22.4,3.39 44.39,5.44 65.76,7.35 21.34,1.91 42.04,4.14 62.11,5.55 40.24,1.81 77.46,4.59 111.87,4.91 68.54,-0.02 123.48,-3.29 161.54,-1.01 18.97,1.32 33.75,2.34 43.61,4.21 9.94,1.48 15.17,2.25 15.17,2.25 0,0 -5.16,-1.08 -15,-3.24 -9.76,-2.45 -24.5,-4.34 -43.53,-6.7 -38.02,-4.38 -93.62,-3.94 -161.44,-6.7 -33.82,-1.7 -71.06,-5.88 -110.87,-8.96 -19.9,-2.08 -40.41,-4.87 -61.54,-7.38 -21.15,-2.5 -42.91,-5.11 -65.08,-9 -89.08,-12.95 -185.97,-31.38 -283.87,-64.75 -14.93,-4.47 -62.27,-21.46 -126.16,-44.8 -42.66,-15.08 -92.68,-33.61 -146.36,-49.62 57.57,13.97 112.16,30.26 158.71,43.35 67.4,19.38 117.56,33.78 133.12,38.26 103.78,29.23 205.65,47.28 298.6,56.54 93.06,9.15 177.34,9.71 247.8,6.51 70.47,-3.88 127.15,-10.52 166.08,-16.27 38.85,-6.31 60.3,-9.82 60.3,-9.82 0,0 -21.62,2.27 -60.73,6.36 -39.11,3.64 -95.86,7.51 -165.97,8.52 -70.09,0.42 -153.59,-2.94 -245.42,-14.06 -91.88,-11.29 -191.79,-30.44 -294.71,-59.35 -15.5,-4.53 -65.41,-18.64 -132.43,-39.15 -67.25,-19.61 -151.49,-46.24 -238.63,-62.95 -21.53,-5.16 -43.53,-8.19 -65.22,-11.12 -21.58,-2.97 -43.28,-6.29 -63.51,-8.64 -39.66,-5.06 -77.74,-10.05 -111.95,-12.97 10.97,-1.37 22.67,-2.47 35.3,-2.97 30.21,-1.96 64.63,0.35 100.78,5.27 36.16,4.65 74.16,14.47 112.45,23.22 76.64,16.74 152.38,38.57 213.14,54.47 60.82,16.17 105.92,28.61 120.1,31.93 47.13,10.81 92.57,23 137.65,31.29 22.69,3.48 44.73,8.84 66.74,10.41 21.98,1.91 43.43,4.48 64.42,5.56 84.11,4.36 159.5,-1.41 222.45,-6.18 62.98,-5.5 113.71,-11.37 148.8,-15.11 35.1,-3.85 54.49,-5.98 54.49,-5.98 0,0 -77.97,3.8 -203.97,9.94 -62.92,1.91 -137.96,4.85 -220.54,-1.56 -20.64,-1.55 -41.63,-4.58 -63.12,-6.81 -21.53,-1.96 -42.97,-7.64 -65.11,-11.31 -44.1,-8.71 -89.51,-21.24 -136.22,-31.89 -14.09,-3.33 -59,-16.19 -119.44,-32.87 -60.63,-16.54 -136.32,-39.22 -213.48,-56.85 -38.35,-9.18 -76.58,-19.5 -114.46,-24.8 -37.62,-5.45 -73.83,-8.17 -105.87,-6.36 -0.71,0.02 -1.29,0.08 -1.96,0.09 6.11,-0.89 12.39,-1.81 19.03,-2.76 7.69,-0.48 15.68,-1.02 23.94,-1.54 33.06,-1.65 70.94,-0.75 110.43,5.45 39.41,6.09 81.5,15.87 123.57,24.31 83.79,19.03 167.23,40.88 234.12,57.4 66.93,16.34 117.06,27.66 132.83,30.42 103.38,21.64 205.08,34.67 296.84,31.21 22.93,-0.05 45.28,-0.12 67.03,-0.2 21.7,-0.64 42.75,-3.26 63.11,-4.75 20.31,-1.77 68.18,-5.97 72.78,-6.39 4.57,-0.79 31.25,-5.5 39.8,-7.06 34.08,-6.28 65.01,-11.25 91.87,-17.05 26.53,-7.08 126.04,-33.75 126.04,-33.75 0,0 -100.67,21.12 -127.46,26.82 -27,4.47 -57.97,8.04 -92.04,12.93 -8.51,1.17 -35.1,4.83 -39.65,5.42 -4.59,0.24 -52.15,2.74 -72.37,3.8 -20.18,0.84 -41,2.83 -62.5,2.83 -21.53,-0.46 -43.67,-0.97 -66.38,-1.5 -91.11,1.32 -189.83,-12.81 -292.53,-34.28 -15.55,-2.67 -65.16,-14.35 -131.64,-31.21 -66.46,-17.01 -149.89,-39.77 -234.08,-59.68 -42.35,-8.92 -84.15,-19.02 -125.37,-25.8 -41.13,-6.8 -80.76,-8.04 -115.74,-6.61 -6.54,0.39 -12.7,0.75 -18.89,1.11 8.6,-6.51 17.71,-13.69 27.26,-21.67 6.07,-0.37 16.51,-0.99 30.6,-1.81 6.72,-0.05 14.74,0.02 24.25,0.47 20.54,1.29 47.13,4.1 77.68,9.74 30.58,5.38 65.08,13.56 101.83,22 36.72,8.75 76.49,16.57 115.01,24.71 77.58,16.4 155.02,35.76 217.35,49.26 31.13,6.85 58.54,11.95 79.74,16.4 21.45,3.6 36.82,6.18 44.11,7.43 24.1,4.58 48.28,7.01 72.03,9.84 23.69,3.41 47.4,3.82 70.59,5.15 23.25,1.99 45.86,0.24 68.09,-0.26 22.15,-0.7 43.86,-1.39 65.09,-2.1 21.18,-0.24 41.74,-2.35 61.69,-4.3 20,-1.91 39.37,-3.79 58.09,-5.59 37.56,-2.89 72.17,-8.64 103.77,-13.49 31.56,-5.1 60.26,-8.7 85.14,-13.8 24.89,-5.13 118.03,-24.63 118.03,-24.63 0,0 -94.08,13.88 -119.14,17.64 -25.04,3.81 -53.84,5.99 -85.44,9.71 -31.67,3.44 -66.28,7.8 -103.7,9.34 -18.65,1.19 -37.98,2.41 -57.89,3.63 -19.86,1.37 -40.26,2.88 -61.29,2.59 -21.05,0.23 -42.54,0.46 -64.51,0.67 -21.96,0.05 -44.51,1.44 -67.05,-0.82 -22.67,-1.62 -45.75,-2.21 -69.07,-5.78 -23.31,-2.91 -47.03,-5.36 -70.8,-9.93 -7.16,-1.27 -22.34,-3.97 -43.47,-7.61 -21,-4.58 -48.03,-9.87 -78.9,-17.02 -61.76,-13.98 -138.97,-34.14 -217.06,-51.44 -30.88,-6.88 -60.77,-13.35 -90.02,-20.13 24.58,2.8 49.53,5.93 74.3,9.61 78.43,12.02 156.5,29.59 219.13,41.74 31.26,6.44 58.69,11.48 80.1,15.25 21.39,4 36.8,6.55 44.15,7.49 96.89,15.98 191.55,20.81 276.58,15.02 85.14,-5.67 160.49,-18.81 223.63,-29.5 126.01,-22.74 203.92,-36.78 203.92,-36.78 0,0 -78.84,8.08 -205.63,25.69 -63.38,7.9 -138.89,18.26 -222.95,21.7 -84.01,3.62 -176.12,-2.43 -271.99,-18.22 -7.25,-0.95 -22.49,-3.57 -43.67,-7.75 -21.18,-3.88 -48.37,-9.15 -79.46,-15.85 -62.31,-12.75 -140.3,-31.18 -219.75,-44.11 -70.55,-11.18 -140.16,-18.25 -199.54,-22.88 4.23,-0.05 8.33,-0.22 12.77,0.03 58.43,1.43 133.02,13.51 207.8,24.85 74.69,12.07 313.6,49.13 327.43,50.92 92,12.57 180.5,19.83 261.21,19.92 80.74,0.31 153.28,-6.79 213.42,-16.66 59.92,-11.24 107.54,-24.21 139.73,-35.07 31.99,-11.39 49.67,-17.67 49.67,-17.67 0,0 -18.04,5.11 -50.66,14.32 -32.69,8.8 -80.63,18.96 -140.42,27.34 -59.93,7 -131.71,11.25 -211.42,8.84 -79.71,-2.17 -167.12,-10.73 -258.55,-23.19 -13.73,-1.76 -58.08,-8.15 -117.55,-18.14 -59.49,-10.25 -275.9,-46.98 -308.3,-51.71 37.13,3.71 75.64,9.46 115.14,14.79 39.51,5.46 189.84,25.07 221.42,28.94 63.34,6.95 110.9,9.2 125.49,10.86 12.2,1 24.28,1.95 36.36,2.9 12.06,0.11 129.45,1.08 140.75,0.73 11.35,-0.71 55.74,-3.49 66.65,-4.25 10.74,-1.27 21.46,-2.53 31.98,-3.77 84.37,-10.16 158.88,-27.37 220.65,-43.81 61.67,-16.78 111,-32.11 145.02,-42.9 33.97,-10.91 52.72,-16.98 52.72,-16.98 0,0 -19.13,4.86 -53.7,13.64 -34.59,8.73 -84.62,21.39 -146.72,35.36 -62.13,13.64 -136.6,27.95 -219.97,35.89 -10.41,1 -20.95,1.99 -31.64,3.01 -10.7,0.46 -54.47,2.41 -65.6,2.9 -11.21,0.17 -22.48,-0.35 -33.91,-0.45 -22.82,-0.4 -93.2,-1.5 -105.12,-1.66 -11.91,-1 -23.91,-1.93 -35.98,-2.94 -14.53,-1.62 -61.48,-4.28 -124.3,-11.84 -31.36,-4.14 -299.35,-43.06 -337.06,-47.16 -23.28,-1.73 -45.63,-3.68 -66.89,-4.91 14.27,-0.75 30.2,-1.07 47.81,-0.24 59.18,1.22 134.19,14.52 210.81,20.92 76.06,9.61 153.09,10.48 214.16,13.05 61.19,-1.46 106.73,-2.53 120.85,-2.86 46.83,-3.05 92.39,-8.22 136.41,-12.27 43.68,-7.12 85.65,-14.93 125.64,-22.04 39.56,-9.19 76.71,-19.87 111.64,-28.95 8.7,-2.4 17.31,-4.47 25.62,-7.02 8.23,-2.91 55.12,-19.54 69.56,-24.69 58.33,-19.01 102.74,-41.48 134.04,-55.24 31.09,-14.19 48.29,-22.02 48.29,-22.02 0,0 -17.68,6.71 -49.67,18.82 -32.07,11.8 -77.33,31.6 -136.2,47.84 -14.57,4.46 -61.75,18.98 -70,21.53 -8.37,2.24 -16.98,3.99 -25.67,6.04 -34.94,7.69 -72.01,17.12 -111.34,25.16 -39.71,6.14 -81.38,12.63 -124.56,19.3 -43.6,3.38 -88.61,8.16 -134.84,11.19 -13.98,0.23 -58.99,0.89 -119.49,1.78 -60.38,-3.19 -136.45,-4.8 -211.77,-15.15 -14.31,-1.31 -28.65,-2.97 -42.91,-4.69 22.58,-0.13 45.36,-0.11 68.91,-0.06 142.96,5.87 285.79,-12.27 311.8,-14.85 173.86,-19.53 326.52,-65.38 432.71,-106.62 26.51,-10.58 51,-18.76 71.46,-28.55 20.58,-9.5 97.54,-45.29 97.54,-45.29 0,0 -79.11,30.51 -100.16,38.7 -20.88,8.56 -45.77,15.35 -72.59,24.59 -107.58,35.8 -259.76,75.63 -431.56,94.95 -25.78,2.51 -167.03,18.78 -308.51,11.41 -35.21,-0.46 -71.64,-1.05 -105.16,-0.75 -33.64,0.46 -65.46,0.97 -93.17,0.35 -6.45,-0.09 -12.72,-0.15 -18.77,-0.21 0.27,-0.06 0.46,-0.12 0.71,-0.2 7,-1.44 14.19,-2.95 21.6,-4.51 7.49,-0.95 15.25,-1.48 23.16,-2.29 15.86,-1.3 32.37,-3.56 49.43,-4.27 34.28,0.16 70.31,0.05 107.69,1.4 74.05,3.52 148.31,0.46 207.36,-1.32 58.93,-4.69 102.8,-8.16 116.39,-9.24 44.99,-5.58 88.82,-11.61 131.1,-17.71 21.02,-4.21 41.64,-8.33 61.85,-12.33 19.93,-5.05 39.5,-10.01 58.57,-14.79 75.87,-21.12 141.76,-47.17 196.04,-70.73 54.12,-24.17 96.9,-45.69 126.26,-60.83 29.28,-15.37 45.48,-23.84 45.48,-23.84 0,0 -16.72,7.35 -46.98,20.69 -30.25,13.24 -74.15,32.15 -129.01,53.63 -55.07,20.88 -121.28,44.05 -196.57,62.8 -18.9,4.32 -38.27,8.68 -58.05,13.18 -19.99,3.6 -40.35,7.28 -61.11,11.07 -41.95,5.36 -85.35,10.9 -129.85,16.61 -13.48,0.93 -56.91,3.96 -115.29,8.07 -55.01,1.06 -123.27,3.01 -192.21,-0.31 6.29,-0.46 12.33,-0.9 18.65,-1.39 16.23,-1.6 32.58,-3.82 48.95,-5.74 65.62,-7.09 130.84,-17.93 182.85,-25.92 51.68,-9.86 90.21,-17.19 102.15,-19.46 158.48,-31.37 297.46,-78.97 394.81,-119.61 49.23,-19.16 87.45,-38.32 114.13,-50.86 26.59,-12.75 41.29,-19.75 41.29,-19.75 0,0 -15.2,5.9 -42.66,16.55 -27.51,10.57 -66.76,27.15 -116.7,43.59 -99.03,35.29 -238.18,77.04 -395.31,108.11 -11.89,2.15 -50.13,9.03 -101.53,18.27 -51.74,7.36 -116.61,17.3 -181.82,23.54 -16.28,1.7 -32.51,3.74 -48.59,5.14 -16.13,1.03 -165.77,10.53 -179.37,11.45 37.09,-9.56 147.1,-38.42 262.23,-41.35 64.39,-3.94 129.07,-9.36 180.32,-15.74 51.27,-6.37 89.23,-12.81 101,-15.17 78.4,-12.89 151.04,-35.57 216.07,-55.13 65.44,-19.76 124.07,-39.66 171.52,-61.01 47.65,-20.8 83.77,-42.92 106.79,-60.57 11.43,-8.95 20.02,-16.13 25.34,-21.61 5.52,-5.28 8.43,-8.01 8.43,-8.01 0,0 -3.12,2.51 -9.03,7.28 -5.71,5.01 -14.8,11.48 -26.74,19.52 -24.05,15.74 -60.96,35.11 -109.03,53.08 -47.87,18.47 -106.66,35.49 -172.46,53.15 -66.17,17.71 -137.53,38.55 -214.74,51.25 -11.56,2.32 -49.09,8.25 -99.85,13.92 -50.8,5.71 -114.86,10.25 -179.11,13.4 -39.1,0.61 -78.9,4.28 -115.43,9.2 1.87,-1.81 3.72,-3.57 5.78,-5.53 4.9,-1.75 36.28,-12.99 46.89,-16.78 10.8,-2.55 21.47,-5.07 31.87,-7.49 20.78,-4.87 40.4,-9.81 58.48,-11.95 17.89,-2.72 33.5,-5.12 45.64,-6.98 12.24,-1.59 21.11,-2.24 25.25,-2.72 55.75,-5.2 108.83,-10.17 157.13,-14.68 24.23,-2.2 47.25,-5.09 68.73,-8.39 21.48,-2.99 41.49,-5.83 59.52,-10.16 18.07,-3.92 34.43,-7.28 48.68,-10.71 13.99,-4.43 66.21,-21.24 66.21,-21.24 0,0 -53.52,11.26 -67.74,14.32 -14.39,1.95 -30.82,4.13 -48.94,6.58 -18.03,2.91 -38.03,4.33 -59.49,5.98 -21.38,1.98 -44.31,3.65 -68.51,4.81 -48.31,3.17 -101.8,5.2 -157.9,11.22 -4.24,0.39 -13.19,1.25 -25.62,2.46 -12.43,1.67 -28.39,3.85 -46.69,6.34 -9.91,1.01 -20.55,2.9 -31.6,5.13 21.17,-5.45 43.03,-11.21 66.48,-13.62 56.96,-8.7 320.55,-45.5 353.69,-50.65 33.05,-5.73 64.77,-12.82 94.98,-18.88 60.03,-14.52 113.89,-28.8 157.54,-45.5 44.49,-14.28 78.43,-31.08 102.13,-41.77 23.62,-10.89 36.68,-16.9 36.68,-16.9 0,0 -13.55,4.88 -38.02,13.63 -24.48,8.78 -59.23,22.89 -104.21,34.35 -44.17,13.92 -98.16,25.32 -157.96,37.68 -30.18,4.98 -61.71,11.18 -94.63,16.25 -33.03,4.7 -296.4,38.38 -354.21,46.39 -18.35,1.62 -36.76,5.58 -54.8,9.86 33.75,-18.4 75.07,-38.04 118.03,-44.29 107.33,-12 214.82,-30.53 234.37,-34.07 130.89,-21.96 246.73,-56.62 327.43,-88.68 20.1,-8.15 38.65,-14.57 54.23,-22.08 15.62,-7.35 73.92,-35.1 73.92,-35.1 0,0 -60.42,22.51 -76.53,28.53 -15.96,6.23 -34.92,11.31 -55.37,18.08 -82.07,26.64 -197.7,55.39 -327.49,77.2 -19.55,3.51 -126.04,20.19 -233.7,30.62 -6.66,0.87 -13.27,2.05 -19.83,3.43 1.48,-0.29 2.21,-1.29 5.16,-2.85 1.3,-0.64 2.83,-1.47 4.37,-2.27 3.52,-1.31 7.26,-2.63 11.18,-3.95 29.74,-10.5 68.58,-20.77 108.55,-28.96 39.88,-8.41 80.33,-16.36 112.4,-24.48 31.8,-8.83 55.56,-15.29 62.71,-17.95 96.62,-30.54 178.15,-72.65 234.95,-105.73 28.3,-16.79 51,-30.69 66.3,-40.9 15.34,-10.1 23.83,-15.69 23.83,-15.69 0,0 -65.9,32.46 -95.34,46.7 -59.19,27.98 -141.88,64.39 -236.4,94.24 -6.99,2.59 -30.33,8.5 -61.56,16.51 -26.52,6.22 -59.36,12.2 -93.29,18.64 4.32,-1.72 8.57,-3.4 12.86,-5.1 77.72,-28.91 156.74,-57.89 170.94,-64.41 94.98,-40.28 173.91,-89.24 230.79,-124.03 57.08,-34.63 92.41,-56.07 92.41,-56.07 0,0 -37.88,16.65 -97.88,46.3 -59.76,30.05 -140.97,73.69 -233.77,113.07 -12.93,6.01 -82.91,30.08 -156.8,55.96 9.5,-6.2 20,-12.41 30.92,-19.35 14.05,-8.58 28.57,-17.97 43.93,-26.3 60.43,-34.74 122.54,-67.74 133.82,-73.9 37.8,-20.2 73.8,-39.41 105.78,-58.54 15.98,-9.5 31.2,-18.54 45.43,-27.01 13.84,-9.15 26.71,-17.69 38.49,-25.51 23.8,-15.01 41.31,-30.06 53.52,-39.95 12.11,-9.97 18.84,-15.51 18.84,-15.51 0,0 -7.48,4.54 -20.93,12.7 -13.44,8.18 -32.14,20.69 -57.29,33.25 -12.26,6.66 -268.43,138.39 -330.25,172.08 -10.12,5.23 -19.92,10.89 -29.56,16.56 51.49,-52.14 96.48,-97.75 106.67,-107.11 80.58,-78.13 154.28,-147.99 212.48,-192.93 27.84,-24.12 52.99,-40.1 69.41,-52.64 16.62,-12.24 25.84,-19.01 25.84,-19.01 0,0 -9.87,5.71 -27.74,16.06 -17.54,10.79 -44.43,24.56 -74.16,46.62 -62.04,40.82 -140.43,107.35 -221.42,185.83 -12.49,11.51 -208.69,202.14 -216.01,209.13 -0.42,0.35 -0.89,0.84 -1.36,1.26 -10.56,4.47 -20.72,8.94 -29.89,13.43 -1.23,0.57 -2.39,1.11 -3.59,1.64 10.44,-9.31 20.97,-18.78 31.58,-28.19 38.31,-35.65 75.25,-73.85 102.56,-105.03 28.12,-30.89 47.94,-54.25 54.5,-61.36 80.5,-98.48 174.05,-164.58 240.41,-215.15 66.87,-49.71 107.57,-81.5 107.57,-81.5 0,0 -43.83,27.14 -113.98,72.33 -35.29,22.23 -76.26,50.67 -120.46,84.22 -21.21,18.03 -44.17,36.38 -66.47,56.86 -20.62,21.94 -42.82,44.44 -63.74,68.32 -6.47,6.98 -26.93,30.42 -55.13,60.47 -27.84,30.83 -63.99,67.01 -102.35,101.66z"/>
   <path class="fil2" d="M6215.66 7416.95c-20.15,-5.9 -40.03,-11.79 -59.39,-17.49 -19.39,-5.58 -39.2,-7.79 -57.69,-11.62 -9.29,-1.75 -18.39,-3.38 -27.24,-5.01 -8.92,-0.71 -58.82,-4.44 -73.25,-5.5 -0.38,0 -0.73,0.02 -1.12,0 0.93,-0.54 1.88,-1.11 2.85,-1.72 1.27,-0.06 2.21,-0.12 3.56,-0.23 5.12,-0.31 10.78,-0.67 17.11,-1.11 6.31,-0.13 13.26,0.2 20.73,0.24 16.18,-0.23 35.17,1.1 55.99,3.43 0.2,0.04 0.37,0.07 0.56,0.12 49.51,9.7 105.74,29.47 163.26,54.37 -15.08,-5.49 -30.04,-11.15 -45.36,-15.49zm147.35 -6.08c9.4,3.55 19.02,7.09 28.49,10.63 -1.29,-0.38 -58.2,-17.19 -84.41,-24.95 -30.26,-9.21 -59.86,-17.53 -88.41,-24.6 -11.94,-4.39 -23.67,-8.53 -35.03,-12.45 4.09,1.05 140.04,38.02 149.99,40.75 9.87,3 19.5,7.08 29.38,10.63zm-410.43 -48.81l3.4 5.45c-3.08,1.57 -5.71,2.9 -7.39,3.78l3.04 6.6c-12.16,0.27 -22.11,0.51 -29.25,0.67 8.01,-5.53 16.49,-11.63 25.34,-18.22l0.02 1.47c1.24,0.08 3.17,0.16 4.84,0.25zm1080.62 -1558.79c8.96,-7.78 13.68,-11.91 13.68,-11.91 0,0 -38.7,30.46 -42.64,33.55 -3.61,3.49 -7.5,7.18 -11.62,11.06 -34.13,29.84 -77.37,80.6 -117.76,151.38 -39.84,71.09 -74.49,162.22 -105.6,264.61 -32.1,102.15 -61.65,215.84 -113.66,326.77 -3.77,8.46 -11.52,26.32 -23.99,50.51 -6.11,12.16 -13.09,26.03 -20.75,41.34 -7.82,15.21 -17.19,31.45 -26.8,49.03 -38.78,69.97 -92.36,155.18 -151.34,236.45 -15.02,20.17 -30.01,40.31 -44.76,60.21 -15.34,19.41 -201.8,246.22 -218.85,267.06 -8.05,0.42 -14.52,0.75 -18.49,0.89l1.32 16.14c-17.9,-0.12 -30.94,0.83 -37.63,0.71l0.38 6.61c-1.99,0.42 -3.92,0.89 -5.75,1.38 -5.56,-0.67 -10.49,-1.3 -14.57,-1.74 -1.51,-0.4 -2.96,-0.77 -4.31,-1.15 31.79,-29.67 64.58,-65.3 93.79,-102.71 42.92,-52.13 285.55,-353.43 296.84,-368.43 10.93,-15.27 21.57,-30.22 32,-44.84 41.01,-58.84 74.23,-114.42 99.94,-162.16 25.07,-48.12 42.65,-88.35 53.41,-116.61 10.3,-28.39 16.01,-44.15 16.01,-44.15 0,0 -6.84,15.23 -19.23,42.78 -12.65,27.37 -32.69,66.16 -59.95,112.51 -27.92,45.99 -63.18,99.47 -105.52,156.61 -10.7,14.2 -56.04,73.21 -67.97,88.45 -24.6,30.05 -287.34,346.19 -298.82,358.91 10.91,-13.15 21.44,-26.46 31.45,-38.6 25.83,-33.45 45.13,-61.51 50.86,-68.79 58.3,-82.53 106.73,-159.15 147.3,-210.84 19.11,-26.83 37.11,-46.4 49.06,-60.44 11.95,-14.1 18.54,-21.91 18.54,-21.91 0,0 -7.49,6.93 -21.03,19.46 -13.48,12.62 -33.72,30.47 -55.19,55.74 -45.28,48.58 -99.08,123.14 -156.91,204.96 -5.61,7.13 -25.28,34.65 -51.3,66.97 -13.55,15.7 -27.63,33.58 -42.86,50.16 -15.72,16.06 -46.32,47.3 -46.32,47.3 -25.33,27.01 -48.8,48.85 -67.34,63.37 -0.69,0.57 -1.22,0.95 -1.88,1.51 -1.72,-0.09 -3.19,-0.16 -4.82,-0.23 18.95,-15.63 38.49,-33.58 57.96,-53.3 26.56,-26.96 49.92,-60.07 72.22,-91.17 44.89,-63.58 92.05,-125.29 129.41,-174.61 39.19,-47.79 68.39,-83.37 77.47,-94.39 31.13,-35.67 62.95,-69.11 92.78,-102.32 15.15,-16.42 31.08,-31.94 46.06,-47.49 15.08,-15.57 28.94,-31.75 42.91,-47.06 54.71,-62.38 97.92,-123.64 130.72,-177.02 31.43,-54.21 52.86,-100.24 65.41,-132.84 11.87,-32.82 18.43,-50.96 18.43,-50.96 0,0 -7.71,17.67 -21.63,49.59 -14.46,31.6 -38.25,76.08 -71.73,128.26 -34.81,51.37 -79.65,110.13 -135.24,170.37 -14.2,14.79 -28.21,30.36 -43.45,45.54 -15.26,15.16 -31.18,30.17 -46.66,46.49 -30.6,33.16 -63.06,66.82 -94.53,102.79 -9.24,11.03 -38.97,46.63 -78.9,94.47 -38.1,49.25 -86.2,110.91 -131.74,174.01 -23.37,31.81 -45.24,62.31 -70.78,87.69 -25.55,25.37 -51.29,47.87 -75.65,65.88 -16.61,12.63 -32.02,23.35 -45.73,32.42 2.13,-1.65 4.19,-3.15 6.35,-4.87 45.13,-36.51 98.52,-86.54 143.38,-144.56 45.97,-56.34 85.85,-117.18 118.28,-164.49 32.31,-47.5 56.64,-82.38 64.8,-92.72 25.99,-35.28 52.38,-68.81 79.99,-99.24 27.48,-30.39 55.78,-58.63 82.98,-85.38 54.32,-53.41 104.28,-101.14 142.53,-144.8 19.26,-21.65 35.94,-41.98 50.02,-60.17 13.28,-18.84 25.65,-34.34 34.03,-48.25 16.72,-27.66 25.99,-42.96 25.99,-42.96 0,0 -10.31,14.6 -28.87,40.96 -9.18,13.23 -22.52,27.94 -36.7,45.79 -14.97,17.23 -32.53,36.47 -52.64,56.99 -39.95,41.37 -91.43,86.69 -147.43,138.76 -28,26.06 -57.03,53.81 -85.77,84.65 -28.65,30.67 -55.86,64.64 -82.13,100.31 -8.28,10.52 -33.27,45.57 -66.1,92.76 -33.07,47.11 -73.22,106.83 -119,161.7 -43.95,55.67 -96.81,104.17 -140.5,138.87 -33.14,26.57 -62.18,42.34 -78.64,49.03 13,-9.88 27.09,-21.01 42.01,-33.44 28.36,-23.7 59.4,-52.26 88.44,-86.07 29.73,-33.57 55.64,-72.08 82.62,-109.65 52.43,-76.27 103.07,-153.31 146.63,-212.08 43.2,-59.06 80.39,-98.6 91.12,-111.57 19.88,-19.57 39,-39.43 58.72,-58.08 20.81,-17.48 102.63,-84.86 122.59,-101.03 19.72,-16.49 38.39,-33.43 56.87,-49.58 73.04,-65.97 130.46,-134.51 171.42,-196.48 19.06,-32 37.58,-60.06 49.22,-87.31 12.75,-26.6 24.27,-49.14 30.7,-68.95 14.34,-38.78 22.32,-60.2 22.32,-60.2 0,0 -9.11,20.93 -25.56,58.84 -7.34,19.31 -19.96,41.24 -33.75,67.04 -12.68,26.43 -32.26,53.5 -52.15,84.3 -42.84,59.68 -101.25,125.07 -174.75,188.67 -18.65,15.58 -37.4,31.94 -57.2,47.97 -20.01,15.72 -40.53,31.75 -61.31,48.09 -20.76,17.14 -41.85,34.56 -63.26,52.21 -20.26,18.97 -39.92,39.25 -60.26,59.26 -10.88,13.18 -49.24,53.32 -93.49,112.78 -44.55,59.08 -96.22,136.07 -148.92,211.39 -27.08,37.14 -53.11,75.03 -81.69,106.68 -28.18,32.29 -58.36,59.6 -86.05,82.51 -55.61,45.69 -100.96,74.61 -113.58,83.93l8.45 12.48 -1.66 6.87c1.89,0.32 4.43,0.84 7.31,1.44l1.7 2.46c0.59,-0.43 1.64,-1.11 2.39,-1.66 9.61,2.04 23.02,4.83 40.19,6.95 25.42,3.31 58.48,5.77 95.75,6.66 37.31,1.59 79.27,1.5 122.4,7.51 42.7,5.76 87.84,18.9 132.51,31.93 89.3,26.95 174.48,66.62 238.95,103.74 64.91,36.51 109.94,69.2 123.74,79.4 91.05,68.04 175.5,140.37 257.07,198.15 41.59,27.84 81.09,54.3 118.06,79.07 37.71,23.54 73.69,44.04 106.13,63.42 64.62,39.25 119.19,66.79 156.11,87.26 37.18,19.98 57.75,31.03 57.75,31.03 0,0 -19.96,-12.14 -56,-34.08 -35.83,-22.26 -89.08,-52.28 -152.02,-93.77 -31.64,-20.5 -66.8,-42.12 -103.6,-66.74 -36.14,-25.5 -74.76,-52.79 -115.37,-81.52 -80.01,-59.2 -161.58,-131.1 -254.97,-200.91 -14.02,-10.4 -59.48,-43.95 -125.25,-81.67 -65.33,-38.34 -151.89,-79.59 -242.83,-107.89 -45.53,-13.65 -90.96,-27.4 -136.65,-33.97 -45.31,-6.63 -87.88,-6.82 -124.99,-8.65 -37.2,-1.16 -68.79,-3.7 -93.05,-6.9 -4.09,-0.52 -7.57,-1.13 -11.18,-1.71 8.22,-5.75 17.45,-12.45 27.59,-20.02l5.49 23.03c3.32,-1 8.81,-2.51 15.73,-4.94 6.53,-2.84 14.91,-6.24 23.61,-11.23 1.17,-0.63 2.43,-1.44 3.63,-2.12l3.71 6.4 -0.19 3.53c0.64,0.07 1.68,0.2 2.4,0.26l6.97 12c3.3,-2.06 9.24,-5.52 16.9,-10.14 27.47,2.12 71.06,5.81 124.56,13.72 19.19,3.15 39.6,6.56 61,10.08 21.27,4.32 43.5,8.83 66.35,13.47 45.19,9.4 91.49,23.76 136.06,43.43 89.51,38.74 169.95,96.77 232.57,144.02 62.44,47.71 107.85,85.2 122.28,96.36 47.13,38.04 94.87,73.98 141.74,106.41 46.79,32.82 91.57,64.87 135.5,93.81 43.33,29.7 86.05,55.75 125.78,80.41 20.17,11.83 40.03,22.67 58.92,33.38 9.49,5.3 18.76,10.51 27.86,15.62 9.35,4.6 62.3,30.57 78.41,38.42 16.05,7.97 32.11,13.45 46.65,19.64 29.31,11.81 54.31,22.47 75.85,28.22 42.42,13.06 65.87,20.28 65.87,20.28 0,0 -23.06,-8.38 -64.7,-23.55 -21.11,-6.7 -45.58,-18.51 -74.2,-31.45 -14.21,-6.75 -29.88,-12.8 -45.53,-21.34 -15.7,-8.41 -67.35,-36.06 -76.46,-40.96 -8.88,-5.34 -64.77,-39.25 -84.62,-51.29 -38.82,-25.65 -80.58,-52.52 -123.18,-82.98 -43.08,-29.62 -87.31,-62.38 -133.61,-95.6 -46.7,-33.07 -93.16,-68.47 -140.27,-106.52 -14.4,-11.13 -59.4,-48.79 -122.03,-97.5 -62.78,-48.08 -144.02,-107.93 -236.41,-148.83 -8.66,-3.9 -17.49,-7.48 -26.3,-10.99 6.37,2.28 12.71,4.58 19.12,6.72 78.17,28.45 152.24,67.41 209.6,101.15 56.87,34.71 97.75,62.96 110.45,71.72 83.97,58.63 160.95,118.98 231.47,173.39 70.42,54.55 134.55,103.01 189.45,142.23 55.24,38.84 101.1,68.54 133.42,88.02 32.51,19.07 50.5,29.58 50.5,29.58 0,0 -17.32,-11.56 -48.63,-32.51 -31.12,-21.21 -75.25,-53.17 -128.61,-94.06 -32.6,-25.4 -68.66,-54.28 -107.6,-85.75 29.49,21.78 58.56,42.8 87.03,62.6 86.59,61.17 169.35,109.64 240.57,146.42 36.17,17.41 68.38,34.08 98.37,45.1 29.63,11.71 54.68,22.8 76.34,28.76 42.69,13.46 66.28,20.88 66.28,20.88 0,0 -23.18,-8.59 -65.1,-24.16 -21.22,-6.91 -45.76,-19.09 -74.66,-32 -29.29,-12.14 -60.75,-29.98 -95.97,-48.46 -69.45,-39.03 -149.98,-89.37 -234.91,-151.92 -85.35,-61.94 -176.32,-134.09 -273.79,-207.84 -14.67,-11.05 -61.69,-47.28 -126.86,-93.51 -36.45,-26.28 -79.2,-55.19 -125.45,-83.71 77.96,41.99 151.53,87.8 211.66,125.8 70.65,45.03 122.37,80.18 138.56,90.75 106.8,71.83 208.67,140.49 304.5,198.12 95.64,57.98 185.28,104.41 262.26,139.45 77.59,33.81 142.2,56.55 187.53,69.78 45.49,12.56 70.65,19.52 70.65,19.52 0,0 -24.75,-8.15 -69.6,-22.84 -44.55,-15.19 -107.93,-40.46 -183.85,-76.63 -75.36,-37.33 -163.02,-85.87 -257.08,-145.33 -94.25,-59.16 -195.05,-128.75 -301.92,-200.62 -16.26,-10.63 -67.74,-46.13 -138.38,-91.92 -70.77,-45.42 -160.23,-102.17 -254.38,-150.85 -11.36,-5.93 -22.77,-11.71 -34.19,-17.38 2.11,0.68 4.26,1.26 6.38,1.98l40.43 14.16c217.49,73.26 411.74,201.12 446.62,223.86 14.68,9.65 29.25,19.16 43.75,28.66 14.38,9.65 28.32,19.72 42.33,29.41 13.97,9.77 27.91,19.46 41.65,29.06 13.76,9.65 26.77,20.22 40.02,30.16 52.96,40.16 105.11,77.79 155.95,111.92 50.8,34.1 100.28,64.91 148.01,91.19 23.56,13.64 47.29,25.12 69.69,36.85 23.03,10.52 44.56,21.74 66.15,30.26 85.26,36.51 158.35,55.36 209.32,63.75 25.42,4.81 45.44,6.29 59.04,7.35 13.51,1.19 20.6,1.77 20.6,1.77 0,0 -7.06,-0.93 -20.54,-2.72 -13.48,-1.66 -33.35,-4.04 -58.45,-9.84 -50.35,-10.4 -122.07,-31.82 -205.42,-70.57 -21.11,-9.04 -42.18,-20.84 -64.64,-31.8 -21.9,-12.31 -45.11,-24.2 -68.13,-38.34 -46.68,-27.19 -95.1,-58.77 -144.98,-93.52 -49.91,-34.74 -101.17,-72.79 -153.61,-113.37 -13.22,-10.05 -26.13,-20.77 -39.95,-30.62 -13.82,-9.76 -70.02,-49.67 -84.53,-59.43 -14.55,-9.58 -29.24,-19.24 -44.02,-28.93 -16.67,-11.15 -68.94,-45.47 -142.47,-87.14 41.88,21.71 81.93,44.73 121.38,65.77 43.42,23.14 84.03,48.73 123.77,70.61 79,44.87 150,85.17 208.17,121.42 28.79,18.54 55.01,35.14 77.25,50.82 21.94,16.05 41.61,29.01 56.48,41.12 29.94,24.05 46.49,37.36 46.49,37.36 0,0 -15.77,-14.28 -44.29,-40.06 -14.24,-13 -33.23,-26.92 -54.48,-44.17 -21.61,-16.79 -47.17,-34.63 -75.33,-54.43 -56.92,-38.83 -126.86,-81.7 -204.77,-128.38 -39.33,-22.84 -79.01,-48.92 -122.55,-72.85 -43.45,-23.87 -87.72,-50.1 -134.62,-73.84 -14.24,-7.02 -60.01,-29.67 -121.5,-60.12 -31.16,-14.39 -66.83,-29.44 -104.24,-45.98 -18.77,-8.08 -37.83,-16.9 -57.55,-24.84 -17.27,-6.64 -34.77,-13.37 -52.27,-20.04 19.28,5.36 38.6,10.97 57.68,17.35 189.66,56.23 365.6,149.62 397.23,167.08 212.91,114.6 386.67,249.87 519.58,337.38 66.29,44.07 121.31,77.64 160.16,99.28 39.03,21.34 60.63,33.06 60.63,33.06 0,0 -20.97,-12.81 -58.83,-36.07 -37.73,-23.43 -91.1,-59.23 -155.57,-105.44 -64.15,-46.97 -140.5,-102.84 -225.3,-164.88 -85.58,-61.32 -182.99,-124.78 -290.01,-183 -23.27,-12.88 -124.41,-67.69 -251.87,-119.05 44.18,14.26 76.53,26.2 86.89,29.91 144.74,53.73 268.75,119.49 354.28,173.66 21.25,13.74 41.31,25.14 57.6,36.96 16.33,11.81 77.85,56.05 77.85,56.05 0,0 -58.11,-48.8 -73.69,-61.76 -15.56,-12.94 -34.92,-25.55 -55.54,-40.56 -78.35,-55.92 -192.81,-122.79 -328.67,-175.87 9.97,3.34 19.7,6.59 29.1,9.87 37.59,12.29 69.73,24.84 94.86,34.38 25.28,9.24 42.94,16.99 51.27,20.65 27.72,12.16 55.65,23.17 81.86,36.49 26.36,13.07 53.34,24.32 76.9,40.08 49.37,27.84 93.39,60.88 134.99,92.81 20.26,16.72 40.01,33.02 59.18,48.88 18.78,16.44 122.48,107.98 153.16,133.63 30.9,25.45 58.19,49.21 84.34,67.43 25.73,18.64 47.08,35.81 66.77,46.66 38.13,23.25 59.25,36.08 59.25,36.08 0,0 -20.44,-13.88 -57.32,-38.95 -18.98,-11.71 -39.56,-29.81 -64.35,-49.37 -25.17,-19.13 -51.45,-43.89 -81.31,-70.23 -29.66,-26.6 -61.03,-56.98 -95.63,-88.75 -17.27,-15.95 -35.15,-32.44 -53.55,-49.36 -19.02,-16.45 -38.62,-33.31 -58.66,-50.67 -41.47,-33.18 -85.61,-67.5 -136.17,-96.68 -24.23,-16.53 -51.31,-28.06 -78,-41.48 -26.62,-13.67 -54.72,-24.89 -82.8,-37.18 -6.76,-2.97 -19.75,-8.71 -37.63,-15.73 38.83,13.08 73.07,24.85 99.83,35.39 30.21,11.34 51.89,19.48 62.17,23.37 33.8,13.51 66.82,27.76 99.61,41.29 32.8,13.42 64.09,29.06 95.46,43.03 30.83,14.72 62.84,27.41 93.64,40.36 30.45,13.99 62.08,22.64 92.5,32.28 122.36,36.7 237.16,49.49 333.01,53.52 24.01,0.56 46.89,0.18 68.5,0.27 21.64,0.08 41.99,0.17 61.03,-1.4 38.01,-2.68 70.84,-3.26 97.43,-6.8 53.23,-6.04 82.66,-9.36 82.66,-9.36 0,0 -29.52,2.09 -82.92,5.85 -26.63,2.51 -59.46,1.88 -97.35,3.21 -18.98,0.93 -39.26,0.16 -60.77,-0.62 -21.49,-0.79 -44.23,-1.1 -68.02,-2.32 -95.03,-6.78 -208.21,-22.3 -327.95,-60.37 -29.75,-10.01 -60.71,-18.92 -90.39,-33.09 -30.16,-13.1 -60.98,-25.67 -92.24,-40.9 -31.41,-14.37 -62.79,-30.28 -95.8,-43.98 -32.89,-13.76 -66.12,-28.2 -100.19,-41.78 -10.28,-3.92 -32.07,-12.25 -62.45,-23.83 -30.21,-12.05 -69.56,-25.73 -114.81,-41.2 -44.94,-16.36 -96.77,-31.31 -150.99,-48.63 -54.79,-15.46 -112.2,-32.86 -170.39,-47.14 -57.83,-15.41 -116.25,-28.73 -171.51,-41.57 -54.02,-11.83 -105.1,-23.77 -151.95,-30.91 13.55,0.17 27.67,0.53 42.86,1.24 19.96,1.7 41.27,3.47 63.47,5.37 22.25,2.05 45.32,6.08 69.16,9.21 47.55,7.43 97.47,17.96 147.58,27.08 50.48,7.93 99.43,22.34 146.24,34.57 46.75,12.49 91.42,23.09 129.41,37.69 38.41,13.29 122.3,42.29 131.35,45.42 8.82,3.75 241.04,103.69 267.15,115.15 26.28,11.1 52.62,20.42 78,30.32 25.23,10.21 50.6,18.14 75.2,25.94 24.67,7.5 48.12,16.45 71.76,21.95 46.84,12.35 205.67,53.17 237.55,60.38 16.11,2.89 30.95,6.27 44.91,8.02 13.96,1.34 26.59,3.53 38.13,3.77 11.53,0.11 21.76,0.24 30.6,0.33 8.84,-0.38 16.26,-1.73 22.3,-2.29 12,-1.46 18.29,-2.2 18.29,-2.2 0,0 -6.36,0.44 -18.4,1.23 -6,0.29 -13.44,1.26 -22.23,1.2 -8.77,-0.49 -18.88,-1.11 -30.29,-1.77 -11.35,-0.79 -23.88,-3.47 -37.59,-5.4 -13.67,-2.31 -28.28,-6.29 -44.07,-9.78 -31.41,-8.45 -66.7,-19.32 -106.09,-31.18 -39.81,-10.96 -82.75,-23.51 -128.79,-37 -23.24,-6.09 -46.31,-15.59 -70.59,-23.55 -24.21,-8.33 -49.15,-16.7 -73.98,-27.32 -24.98,-10.28 -50.86,-19.97 -76.77,-31.35 -25.73,-11.72 -258.03,-113.58 -266.93,-117.39 -9.11,-3.22 -93.53,-33.07 -132.18,-46.76 -38.27,-15.04 -83.23,-26.13 -130.36,-39.09 -47.18,-12.73 -96.53,-27.66 -147.3,-36.05 -50.51,-9.57 -100.66,-20.58 -148.81,-28.45 -24.2,-3.34 -47.57,-7.59 -70.26,-9.84 -22.75,-2.06 -44.45,-4.03 -64.82,-5.87 -40.93,-2.25 -76.57,-2.08 -104.15,-1.29 17.82,-21.79 127.11,-154.05 157.18,-191.33 14.68,-18.99 29.75,-38.5 45.09,-58.22 14.73,-20.22 29.67,-40.61 44.66,-61.06 58.91,-82.46 112.36,-169.09 151.07,-240.15 9.53,-17.82 18.87,-34.29 26.68,-49.76 7.65,-15.55 14.58,-29.62 20.7,-41.97 12.44,-24.53 20.18,-42.69 23.98,-51.24 52.91,-112.95 81.48,-228.48 111.42,-330.58 29.01,-102.63 60.52,-193.27 97.31,-264.72 37.4,-70.99 77.84,-122.99 110.39,-154.13 3.88,-4.08 7.56,-7.97 11.02,-11.55 3.79,-3.3 22.6,-19.76 27.1,-23.69z"/>
   <path class="fil2" d="M6065.78 7327.81c0.77,-0.67 1.59,-1.28 2.38,-2.01l-0.67 2.35c-0.58,-0.1 -1.09,-0.2 -1.7,-0.34z"/>
   <path class="fil2" d="M6364.81 6693.44c-14.3,8.3 -30.7,20.19 -50.36,32.93 -9.97,6.22 -19.63,14.28 -30.33,22.09 -10.42,8.19 -22.26,15.78 -33.18,25.7 -45.93,36.73 -95.64,86.63 -140.59,149.49 -43.93,63.11 -83.89,140.25 -134.25,215.87 -3.59,5.85 -11.58,17.88 -23.36,34.35 -5.8,8.31 -12.41,17.75 -19.71,28.18 -7.92,10 -16.57,20.99 -25.81,32.7 -37.53,46.25 -90.15,101.25 -154.44,142.32 -59.26,34.04 -120.74,57.89 -170.93,79.91 2.17,-0.17 4.23,-0.34 6.46,-0.49 30.92,-0.98 67.81,1.48 105.39,8.47l-1.25 -19.16c18.85,0.55 83.35,-5.35 170.34,4.82 21.69,2.22 44.4,7.57 68.38,11.57 24.12,3.47 48.41,11.03 73.54,17.8 12.57,3.44 25.31,6.96 38.19,10.48 12.48,4.65 25.09,9.4 37.74,14.1 25.21,9.88 51.51,18.07 76.13,30.24 101.13,42.77 195.21,99.98 267.6,148.23 36.53,23.75 67.26,45.98 91.23,63.32 24.14,17.05 41.07,29.77 49.04,35.87 53.65,39.48 104.36,80.1 154.18,117.71 49.93,37.54 98.82,72.77 146.46,104.65 95.21,63.77 186.01,113.68 266.31,146.19 80.15,33.02 148.81,49.61 196.71,57.29 23.93,4.47 42.76,5.87 55.52,7.13 12.75,1.29 19.43,1.95 19.43,1.95 0,0 -6.72,-0.33 -19.52,-0.99 -12.79,-0.66 -31.75,-1.16 -55.92,-4.64 -48.37,-5.62 -118.28,-19.55 -200.28,-50.35 -82.16,-30.23 -175.42,-78.21 -272.62,-140.77 -48.62,-31.3 -98.32,-66.02 -148.91,-103.27 -49.95,-37.79 -179.55,-135.57 -203.62,-152.34 -23.9,-17.09 -54.62,-38.98 -90.9,-62.2 -72.03,-47.25 -165.26,-102.96 -264.85,-144.21 -24.28,-11.79 -50.05,-19.52 -74.79,-29.05 -12.45,-4.55 -24.81,-9.08 -37.03,-13.57 -12.58,-3.34 -25.02,-6.64 -37.29,-9.94 -24.54,-6.43 -48.22,-13.69 -71.66,-16.86 -23.27,-3.72 -45.31,-8.81 -66.37,-10.86 -54.36,-6.05 -99.5,-5.69 -129.8,-4.91 0.78,0.2 1.46,0.29 2.24,0.51 51.04,12.17 97.54,38.58 131.09,62.16 33.97,23.6 56.17,44.69 63.15,50.97 46.6,42.07 85.55,86.71 121.74,126.04 36.1,39.48 69.32,74.05 99.66,100.5 30.47,26.18 57.32,44.92 76.72,56.49 19.74,11.1 30.7,17.25 30.7,17.25 0,0 -11.53,-5.05 -32.36,-14.16 -20.55,-9.83 -49.32,-26.42 -82.11,-50.91 -32.67,-24.71 -68.5,-57.87 -106.29,-96.11 -37.94,-38.15 -77.72,-81.56 -123.04,-122.47 -6.8,-6.1 -28.73,-26.28 -61.47,-48.3 -25.36,-17.19 -57.54,-35.3 -93.27,-47.6 28.23,13.88 49.18,26.61 54.93,29.86 64.53,38.76 114.87,84.94 147.96,120.74 16.75,17.71 29.23,33.05 37.62,43.79 8.22,10.79 12.83,16.79 12.83,16.79 0,0 -5.52,-5.16 -15.44,-14.44 -9.86,-9.22 -24.25,-22.53 -42.73,-38.05 -33.82,-28.98 -81.48,-65.94 -137.72,-100.94 39.7,25.66 73.48,55.72 102.15,84.26 31.17,31.15 57.83,60.33 82,82.72 11.63,11.82 23.14,21.24 33.12,29.71 5.01,4.25 9.66,8.26 13.96,11.9 4.61,3.21 36.23,25.36 36.23,25.36 0,0 -34.2,-18.37 -39.22,-21.08 -4.67,-3.23 -9.74,-6.76 -15.2,-10.51 -10.95,-7.57 -23.58,-16.06 -36.25,-26.94 -53.12,-40.82 -114.32,-111.6 -198.69,-163.14 -6.76,-3.86 -29.59,-17.49 -60.89,-32.85 46.94,27.22 84.76,57.77 112.32,81.42 32.58,28.09 51.55,46.71 51.55,46.71 0,0 -22.33,-14.46 -58.26,-37.76 -35.81,-23.41 -85.04,-55.84 -142.18,-84.95 -8.58,-3.92 -56.44,-27.48 -107.21,-35.31 -25.23,-2.87 -50.66,-4.18 -70.04,0.16 -9.9,0.95 -18.08,3.57 -24.42,5.49 -2.62,0.75 -4.73,1.33 -6.69,1.87 7.63,0.67 15.16,1.49 22.59,2.8 54.14,6.58 107.93,19.8 148.4,36.44 20.55,7.42 37.37,16.39 51.03,22.19 13.04,6.96 22.44,11.95 26.82,14.35 29.38,15.78 56.58,33.49 82.21,51.52 25.66,17.89 48.67,36.82 71.51,53.54 45.35,33.92 87.34,62.61 124.26,84.13 18.8,10.05 35.66,19.66 51.16,26.46 15.71,6.29 28.89,13.06 40.35,16.46 22.95,7.08 35.65,11.03 35.65,11.03 0,0 -13.07,-2.77 -36.65,-7.68 -11.91,-2.42 -25.61,-8.04 -42.06,-13.25 -16.25,-5.71 -33.95,-14.16 -53.68,-23.14 -38.84,-19.35 -83.08,-46.13 -130.03,-78.67 -23.66,-16.01 -47.36,-34.34 -72.85,-51.33 -25.32,-17.05 -52.07,-34.13 -80.56,-49.4 -4.29,-2.24 -13.4,-7.02 -26.06,-13.64 -13.23,-5.38 -29.56,-13.81 -49.4,-20.64 -36.7,-14.49 -84.59,-25.73 -133.74,-31.75 -35.34,-8.62 -71.06,-14.57 -106.93,-18.14 -6.2,-2.84 -12.34,-5.79 -18.55,-8.6 12.05,-1.29 24.56,-2.51 37.87,-3.28 16.46,-0.77 34.03,-0.92 51.6,0.17l-4.21 -11.69c-4.23,2.49 -7.71,4.58 -9.92,5.79l-14.64 -22.4c-24.58,8.77 -45.86,16.9 -62.87,23.92 -2.66,1.15 -4.94,2.18 -7.35,3.23 -11.49,-5.15 -23,-10.23 -34.55,-15.26 8,-3.79 18.25,-8.55 31.05,-13.99 22.27,-9.13 51.39,-19.84 84.65,-31.16 33.35,-11.32 70.45,-24.17 107.96,-41.21 9.25,-4.45 18.61,-8.97 28.06,-13.57 8.96,-5.32 18,-10.72 27.16,-16.13 18.1,-11.2 34.94,-25.65 52.56,-38.34l26.17 -19.79c8,-7.42 39.86,-36.73 47.68,-43.96 7.97,-7.14 15.69,-14.31 22.48,-22.26 14.07,-15.39 27.81,-30.38 40.94,-44.75 13.04,-14.49 24.16,-29.64 35.34,-43.2 22.47,-27.05 40.09,-52.35 54.41,-71.61 14.28,-19.23 24.2,-33.39 28.88,-40.11 26.55,-37.84 52.69,-74.74 78.78,-110.45 1.14,-0.9 2.28,-1.79 3.41,-2.71 31.81,-25.64 61.57,-54.94 90.02,-85.9 -21.13,25.71 -40.96,54.12 -62.57,82.55 -29.91,41.43 -105.85,150.37 -120.14,169.91 -14.28,19.54 -31.79,45.13 -54.4,72.88 -11.21,13.86 -22.35,29.3 -35.48,44.22 -13.35,14.81 -27.21,30.22 -41.47,46.11 -6.87,8.19 -14.75,15.64 -22.81,23.05 -8,7.48 -40.47,37.93 -48.67,45.6 0,0 -43.38,33.4 -51.69,39.82 24.05,-10.76 48.29,-22.38 71.44,-35.39 61.16,-38.16 112.81,-90.68 149.78,-135.28 9.13,-11.32 17.65,-21.95 25.49,-31.6 7.26,-10.16 13.85,-19.38 19.61,-27.47 11.7,-15.99 19.7,-27.84 23.22,-33.64 49.84,-74.78 90.5,-150.46 137.71,-214.7 47.85,-63.29 100.74,-112.22 148.93,-147.18 11.51,-9.45 23.85,-16.55 34.79,-24.31 11.23,-7.29 21.34,-14.86 31.74,-20.54 20.48,-11.75 37.65,-22.64 52.49,-30.06 29.5,-15.13 45.79,-23.45 45.79,-23.45 0,0 -15.67,9.42 -44.04,26.49z"/>
   <path class="fil2" d="M6133.51 6834.74c-1.25,1.2 -2.34,2.61 -3.56,3.85 22.07,-25.52 43.35,-51.74 63.92,-78.09 46.7,-33.39 93.14,-58.84 133.19,-82.02 62.16,-34.68 111.16,-64.61 143.23,-88.15 7.97,-5.93 15.12,-11.18 21.22,-15.69 5.9,-4.88 27.34,-22.45 27.34,-22.45 0,0 -20.4,18.83 -26.05,24.02 -5.88,4.91 -12.69,10.53 -20.37,16.88 -30.93,25.26 -78.89,57.88 -139.66,95 -59.99,37.87 -134.06,80.54 -199.27,146.63z"/>
   <path class="fil2" d="M8566.08 5977.02c-23.75,19.54 -123.28,101.25 -143.02,117.47 -20.42,15.39 -161.85,121.65 -217.22,163.21 -56.57,39.96 -119.09,81.38 -185.46,126.34 -16.63,11.22 -33.57,22.62 -50.67,34.18 -17.14,11.58 -35.42,21.7 -53.5,32.88 -36.33,21.94 -220.82,132.33 -231.05,138.09 -41.03,23.16 -82.99,46.81 -125.85,70.99 -171.54,96.5 -359.22,198.05 -560.77,300.01 -201.58,101.8 -417.26,203.67 -645.73,297.47 -228.82,92.77 -470.96,176.13 -722.98,240.66 -31.54,7.9 -63.13,15.88 -94.8,23.88 -32.1,6.87 -64.2,13.72 -96.4,20.65 -64.57,15.05 -128.63,24.49 -193.07,35.52l-37.02 6.23 -61.52 7.58c-32.83,3.81 -65.63,8.66 -98.62,11.6 -66.03,4.88 -131.82,11.82 -198.44,13.35 -33.13,1.07 -66.61,3.19 -99.47,3.42l-140.12 0.24c110.03,-6.92 220.97,-21.64 323.36,-55.88 32.89,-10.98 65.79,-22.92 98.66,-35.38 2.96,-0.22 5.89,-0.49 8.83,-0.69 32.29,-2.79 64.31,-7.45 96.45,-11.07l60.14 -7.26 35.5 -5.84c64.27,-11.03 129.31,-20.15 191.54,-34.01 31.43,-6.4 62.82,-12.77 94.13,-19.13 31.25,-7.52 62.42,-15.04 93.52,-22.56 248.9,-60.78 488.91,-141.21 716.91,-230.03 228.22,-88.6 444.57,-185.73 647.2,-283.24 202.6,-97.63 391.62,-195.56 565.4,-287.29 43.38,-23.11 178.27,-95.64 188.16,-101.24 19.94,-11.4 209.79,-119.06 227.07,-130.14 17.3,-11.08 181.54,-115 239.1,-153.11 56.42,-39.77 200.74,-141.45 221.59,-156.2 20.21,-15.55 221.02,-170.51 221.02,-170.51 0,0 -25.31,20.82 -72.84,59.82z"/>
   <path class="fil2" d="M5534.73 7498.16c9.34,-6.88 104.45,-81.26 116.2,-90.49 11.21,-9.88 22.9,-20.19 34.96,-30.8 23.76,-21.6 49.87,-43.12 74.05,-66.92 23.91,-24.08 48.15,-47.85 70.57,-71 21.4,-24.18 41.63,-47.09 59.61,-67.38 16.82,-21.32 31.5,-39.94 42.93,-54.42 10.78,-15.06 18.49,-25.87 22.15,-30.96 12.43,-16.61 23.48,-34.67 34.13,-51.32 4.7,-7.97 10.04,-16.14 15.73,-24.36 5.48,-8.19 10.93,-16.27 16.31,-24.29 21.56,-31.9 41.92,-62.83 62.97,-90.64 10.04,-14.42 21.3,-26.95 31.42,-40.01 10.81,-12.34 21.53,-24.12 32.16,-35.21 11.45,-10.12 21.6,-21.21 33.01,-29.67 11.51,-8.49 21.73,-17.11 33.08,-24.69 88.55,-61.54 141.95,-100.9 141.95,-100.9 0,0 -59.02,31.4 -152.29,84.37 -11.62,6.32 -23.83,14.76 -36.6,22.7 -12.86,8.02 -24.34,18.73 -37.3,28.66 -12.02,10.83 -24.14,22.46 -36.27,34.7 -11.34,12.82 -23.98,25.49 -35,39.71 -23.32,27.71 -45.27,58.27 -67.85,89.79 -5.57,7.89 -11.22,15.83 -16.91,23.86 -5.63,7.82 -11.29,16.14 -16.92,25.23 -11.08,16.83 -21.32,33.3 -33.48,49.54 -3.57,4.89 -11.16,15.19 -21.73,29.56 -11.38,13.85 -25.95,31.59 -42.63,51.91 -17.88,19.42 -38.06,41.26 -59.38,64.35 -22.37,22.14 -46.52,44.86 -70.33,67.87 -24.06,22.75 -50.16,43.37 -73.78,64.01 -11.95,10.18 -23.58,20.06 -34.73,29.55 -11.65,8.81 -105.98,80.48 -114.82,87.62l28.77 39.64z"/>
  </g>
 </g>
</svg>
