<?xml version="1.0" encoding="UTF-8"?>
<!DOCTYPE svg PUBLIC "-//W3C//DTD SVG 1.1//EN" "http://www.w3.org/Graphics/SVG/1.1/DTD/svg11.dtd">
<!-- Creator: CorelDRAW 2018 (64-Bit) -->
<svg xmlns="http://www.w3.org/2000/svg" xml:space="preserve" width="87.3482mm" height="39.075mm" version="1.1" style="shape-rendering:geometricPrecision; text-rendering:geometricPrecision; image-rendering:optimizeQuality; fill-rule:evenodd; clip-rule:evenodd"
viewBox="0 0 3213.18 1437.41"
 xmlns:xlink="http://www.w3.org/1999/xlink">
 <defs>
  <style type="text/css">
   <![CDATA[
    .fil0 {fill:#D11C69;fill-rule:nonzero}
   ]]>
  </style>
 </defs>
 <g id="Слой_x0020_1">
  <metadata id="CorelCorpID_0Corel-Layer"/>
  <path class="fil0" d="M778.89 171.15c0,35.39 -7.66,71.57 -22.98,108.55 -15.32,36.98 -38.82,75.27 -70.52,114.89 -29.05,36.98 -62.2,70.92 -99.44,101.82 -37.24,30.9 -78.31,59.03 -123.21,84.39 -47.01,25.88 -92.84,45.17 -137.47,57.84 -44.64,12.68 -88.35,19.54 -131.13,20.6 -55.99,0 -102.22,-18.22 -138.66,-54.67 -36.45,-34.86 -54.94,-79.77 -55.47,-134.7 0,-41.2 6.21,-80.82 18.62,-118.86 12.41,-38.04 31.56,-75.27 57.44,-111.72 21.66,-30.11 46.22,-57.84 73.69,-83.2 27.47,-25.35 58.9,-48.07 94.29,-68.14 31.17,-18.49 60.74,-32.35 88.74,-41.6 28,-9.24 54.94,-14.66 80.82,-16.24l0 10.3c-25.88,-2.64 -67.09,11.62 -123.61,42.79 -34.34,18.49 -65.37,38.69 -93.1,60.62 -27.73,21.92 -52.69,46.62 -74.88,74.08 -28.53,33.28 -49.52,67.88 -62.99,103.8 -13.47,35.92 -20.47,73.16 -21,111.72 0,57.58 17.69,103.27 53.09,137.08 18.49,16.9 39.35,29.71 62.6,38.43 23.24,8.72 49.92,13.6 80.03,14.66 72.89,0 149.49,-22.45 229.78,-67.35 39.62,-21.66 75.27,-45.82 106.97,-72.5 31.69,-26.68 60.49,-56.65 86.37,-89.93 52.29,-68.14 78.97,-136.28 80.02,-204.43 0,-42.79 -17.17,-79.5 -51.5,-110.14 -34.34,-30.64 -76.07,-45.96 -125.19,-45.96 -23.24,0 -48.6,4.62 -76.07,13.86 -27.47,9.24 -57.31,23.64 -89.53,43.18 -67.09,39.09 -121.76,87.16 -164.02,144.21 -3.17,3.17 -8.45,3.96 -15.85,2.38 77.65,-99.84 152.4,-165.87 224.24,-198.09 17.96,-7.92 32.49,-14.13 43.58,-18.62 11.09,-4.49 19.28,-7.53 24.57,-9.12 22.19,-7.39 47.01,-11.09 74.48,-11.09 63.39,0 112.25,14.53 146.58,43.58 33.81,29.05 50.71,71.58 50.71,127.57zm164.02 396.97c3.7,-3.7 6.6,-2.91 8.71,2.38 0,4.75 -1.32,7.66 -3.96,8.71 -35.39,24.3 -71.71,45.43 -108.95,63.39 -37.24,17.96 -75.93,27.2 -116.08,27.73 -10.56,0 -20.47,-1.32 -29.72,-3.96 -9.24,-2.64 -17.3,-6.6 -24.16,-11.89 -6.87,-5.28 -12.15,-12.02 -15.85,-20.21 -3.7,-8.19 -5.02,-17.83 -3.96,-28.92 1.59,-13.73 6.07,-28.13 13.47,-43.18 7.4,-15.06 20.6,-30.24 39.62,-45.56 9.51,-7.92 19.54,-15.06 30.11,-21.39 10.56,-6.34 21.26,-11.89 32.09,-16.64 10.83,-4.75 21.26,-8.45 31.3,-11.09 10.04,-2.64 19.28,-4.23 27.73,-4.76 16.9,0 25.89,7.93 26.94,23.77 0,7.39 -3.04,14.79 -9.11,22.19 -6.08,7.39 -13.6,14.13 -22.59,20.21 -8.98,6.07 -18.75,11.22 -29.31,15.45 -10.56,4.23 -20.07,6.6 -28.52,7.13 -5.81,0 -9.91,-0.79 -12.28,-2.38 -2.38,-1.59 -4.09,-3.7 -5.15,-6.34 -3.17,-7.39 -1.98,-13.07 3.56,-17.04 5.55,-3.96 12.28,-5.94 20.21,-5.94 1.06,0 3.7,0.39 7.92,1.19 4.23,0.79 10.04,1.71 17.43,2.77 3.17,0.53 7,-0.27 11.49,-2.38 4.49,-2.11 8.45,-4.75 11.89,-7.92 3.43,-3.17 5.94,-6.74 7.53,-10.7 1.59,-3.96 1.59,-7.53 0,-10.7 -2.64,-3.7 -5.02,-5.94 -7.13,-6.73 -2.11,-0.79 -6.6,-1.19 -13.47,-1.19 -10.04,0 -22.06,3.17 -36.05,9.51 -14,6.34 -28.13,15.85 -42.39,28.53 -26.94,25.88 -40.41,48.6 -40.41,68.14 0,17.96 5.94,31.3 17.83,40.01 11.88,8.72 28.92,13.07 51.11,13.07 16.37,0 36.32,-3.56 59.82,-10.7 23.51,-7.13 46.62,-16.24 69.33,-27.34 7.39,-3.7 13.6,-7.13 18.62,-10.3 5.02,-3.17 9.64,-6.08 13.87,-8.71 4.23,-2.64 8.45,-5.41 12.68,-8.32 4.23,-2.91 9.51,-6.21 15.85,-9.9zm561.78 9.51c0.53,1.59 0.39,3.3 -0.4,5.15 -0.79,1.85 -1.98,2.77 -3.56,2.77 -26.41,13.74 -48.86,24.96 -67.35,33.68 -18.49,8.71 -34.47,15.58 -47.94,20.6 -13.47,5.02 -25.35,8.71 -35.65,11.09 -10.3,2.38 -20.47,3.57 -30.51,3.57 -30.11,1.06 -45.7,-13.74 -46.75,-44.37 0,-10.56 1.32,-20.86 3.96,-30.9 2.64,-10.04 6.87,-20.34 12.68,-30.9 -3.69,0 -9.11,1.85 -16.24,5.55 -7.13,3.7 -14.13,7.4 -21,11.09 -24.83,11.09 -47.41,23.64 -67.75,37.64 -20.34,14 -37.63,25.22 -51.9,33.68 -24.83,13.73 -39.88,20.6 -45.17,20.6 -10.56,0 -15.84,-4.76 -15.84,-14.26 0,-8.45 7.13,-22.19 21.39,-41.2 8.98,-10.56 17.7,-21 26.15,-31.3 8.45,-10.3 17.43,-21 26.94,-32.09 -60.75,38.04 -107.23,66.56 -139.46,85.58 -32.22,19.02 -49.92,28.79 -53.09,29.32 -8.45,0 -12.68,-3.43 -12.68,-10.3 3.17,-3.17 6.87,-7.39 11.09,-12.68 3.7,-4.23 8.32,-9.38 13.86,-15.45 5.55,-6.08 12.02,-13.08 19.41,-21 15.32,-16.37 27.21,-30.24 35.66,-41.6 8.45,-11.36 11.89,-19.15 10.3,-23.37 -0.53,-2.12 -2.38,-3.04 -5.54,-2.77 -3.17,0.26 -5.29,0.92 -6.34,1.98 -1.58,0.53 -3.96,1.19 -7.13,1.98 -3.17,0.79 -6.34,1.59 -9.51,2.38 -3.17,0.79 -6.07,1.06 -8.72,0.79 -2.64,-0.26 -4.22,-1.45 -4.75,-3.56 -1.06,-2.11 0.53,-5.02 4.75,-8.71 4.23,-3.7 9.51,-7.53 15.85,-11.49 6.34,-3.96 12.81,-7.39 19.41,-10.3 6.6,-2.91 11.75,-4.62 15.45,-5.15 8.98,0 16.24,1.85 21.79,5.55 5.54,3.7 6.73,11.62 3.56,23.77 -1.06,8.45 -6.34,18.75 -15.85,30.9 -9.51,12.15 -19.54,24.57 -30.11,37.24 36.45,-22.19 73.69,-44.37 111.72,-66.56 19.01,-11.09 33.02,-16.64 41.99,-16.64 13.73,0 20.6,5.02 20.6,15.06 0,7.39 -8.45,20.6 -25.36,39.61 -10.04,11.1 -18.22,20.6 -24.56,28.53 -6.34,7.92 -11.09,14.79 -14.26,20.6 77.65,-47.01 127.04,-75.54 148.17,-85.57 28,-13.74 48.6,-20.87 61.8,-21.39 3.7,0 5.55,3.17 5.55,9.51 -1.59,2.64 -3.44,5.55 -5.55,8.71 -2.11,2.64 -4.36,6.07 -6.74,10.3 -2.38,4.23 -5.41,9.24 -9.11,15.05 -13.73,21.66 -20.6,39.36 -20.6,53.09 0,20.6 9.77,31.17 29.31,31.69 7.93,0 15.72,-0.66 23.38,-1.98 7.66,-1.32 17.04,-4.09 28.13,-8.32 11.09,-4.23 25.09,-10.17 41.99,-17.83 16.91,-7.66 38.83,-18.09 65.77,-31.29 1.06,-0.53 2.51,-0.79 4.36,-0.79 1.85,0 3.3,1.59 4.36,4.75zm343.09 -7.92c1.06,4.22 0,7.13 -3.17,8.71 -36.45,22.71 -71.45,42.12 -104.99,58.24 -33.54,16.11 -62.72,24.17 -87.55,24.17 -28.53,0 -43.58,-21.39 -45.17,-64.18 -4.75,2.64 -12.02,6.73 -21.79,12.28 -9.77,5.55 -20.07,11.23 -30.9,17.04 -10.83,5.81 -21.66,10.96 -32.49,15.45 -10.83,4.49 -19.68,7 -26.54,7.53 -10.04,1.06 -19.15,-0.26 -27.34,-3.96 -8.19,-3.7 -13.34,-11.36 -15.45,-22.98 0,-23.25 21.66,-51.77 64.97,-85.58 22.19,-16.38 43.32,-28.79 63.39,-37.24 20.07,-8.45 36.98,-12.68 50.71,-12.68 19.54,-0.53 29.58,4.22 30.11,14.26 0,9.51 -3.44,17.17 -10.3,22.98 -5.28,4.75 -11.89,7.13 -19.81,7.13 -0.53,-0.53 -1.06,-1.59 -1.59,-3.17 -0.53,-1.06 -1.06,-2.24 -1.59,-3.56 -0.53,-1.32 -1.32,-3.04 -2.38,-5.15 -3.17,-7.92 -9.51,-12.15 -19.01,-12.68 -20.6,0 -44.64,11.62 -72.11,34.87 -26.41,22.19 -39.61,42.26 -39.61,60.22 0,4.23 0.79,8.06 2.38,11.49 1.59,3.43 4.49,5.41 8.72,5.94 14.79,1.06 29.45,-1.32 43.97,-7.13 14.53,-5.81 29.98,-14.26 46.35,-25.35 6.86,-4.76 18.75,-16.38 35.65,-34.87 10.57,-12.68 19.81,-18.75 27.73,-18.22 6.34,0 9.51,2.64 9.51,7.92 0,4.75 -4.49,15.05 -13.47,30.9 -8.45,14.79 -12.68,25.62 -12.68,32.49 0,19.54 9.51,29.58 28.52,30.11 16.91,0 34.07,-2.64 51.5,-7.92 17.43,-5.28 33.81,-11.62 49.13,-19.02 15.32,-7.39 28.92,-14.66 40.81,-21.79 11.88,-7.13 20.47,-12.55 25.75,-16.24 1.59,-1.59 3.17,-2.77 4.76,-3.57 1.58,-0.79 2.9,0.4 3.96,3.57zm501.56 -454.82c0,22.72 -24.83,62.86 -74.48,120.44 -90.33,105.65 -181.45,185.15 -273.36,238.5 -15.85,10.56 -33.55,20.86 -53.09,30.9 -19.54,10.04 -42.26,20.86 -68.15,32.49 -6.34,7.39 -12.41,14.79 -18.22,22.19 -4.76,6.34 -9.24,13.6 -13.47,21.79 -4.23,8.18 -6.87,15.98 -7.92,23.37 -1.06,9.51 0.4,16.9 4.36,22.19 3.96,5.28 9.77,8.32 17.43,9.11 7.66,0.79 16.64,-0.93 26.94,-5.15 10.3,-4.23 21.53,-11.36 33.67,-21.39 6.87,-4.75 16.51,-12.41 28.92,-22.98 12.42,-10.57 22.32,-23.25 29.71,-38.04 3.17,-6.34 5.94,-12.68 8.32,-19.01 2.38,-6.34 5.02,-12.02 7.92,-17.04 2.91,-5.02 6.08,-9.11 9.51,-12.28 3.43,-3.17 7.79,-4.75 13.07,-4.75 7.4,0 11.89,3.96 13.47,11.89 1.59,7.92 -2.11,16.37 -11.09,25.36 -5.28,5.28 -9.77,8.85 -13.47,10.69 -3.7,1.85 -6.6,4.36 -8.71,7.53 -2.11,2.64 -3.3,6.21 -3.56,10.69 -0.26,4.49 -0.4,10.44 -0.4,17.83 0,3.7 0.66,7.79 1.98,12.28 1.32,4.49 3.3,8.58 5.94,12.28 2.64,3.7 6.34,6.74 11.09,9.12 4.76,2.38 10.83,3.03 18.22,1.98 7.4,-0.53 20.6,-4.23 39.62,-11.09 19.02,-6.86 41.99,-21.39 68.94,-43.58l5.55 11.09c-6.34,4.76 -15.71,11.09 -28.13,19.02 -12.42,7.92 -23.9,14.79 -34.47,20.6 -18.48,10.04 -34.07,16.64 -46.75,19.81 -12.68,3.17 -23.51,3.43 -32.49,0.79 -12.15,-3.17 -19.54,-10.43 -22.19,-21.79 -2.64,-11.36 -3.17,-23.9 -1.58,-37.64 -3.17,5.28 -8.45,11.89 -15.85,19.81 -7.39,7.92 -15.58,15.85 -24.56,23.77 -8.98,7.92 -18.36,15.45 -28.13,22.58 -9.77,7.13 -18.62,12.28 -26.54,15.45 -12.15,5.28 -23.37,8.98 -33.67,11.09 -10.3,2.11 -20.21,0.26 -29.72,-5.55 -3.17,-2.11 -6.34,-4.75 -9.51,-7.92 -3.17,-3.17 -5.28,-7.53 -6.34,-13.07 -1.06,-5.55 -0.53,-12.41 1.58,-20.6 2.12,-8.19 6.6,-18.09 13.47,-29.72 14.26,-24.3 31.83,-50.84 52.69,-79.63 20.86,-28.79 43.45,-58.37 67.75,-88.74 24.3,-30.37 49.52,-60.88 75.67,-91.52 26.15,-30.64 51.64,-59.95 76.46,-87.95 49.12,-55.46 90.85,-96.01 125.19,-121.63 34.34,-25.62 60.48,-39.75 78.45,-42.39 20.07,-2.64 33.41,0 40.01,7.92 6.6,7.92 9.91,18.22 9.91,30.9zm-35.66 8.72c0,-15.32 -8.72,-22.98 -26.15,-22.98 -21.66,0 -54.15,19.54 -97.46,58.64 -24.83,25.88 -64.71,70.52 -119.65,133.91 -28,33.28 -51.5,61.14 -70.52,83.59 -19.02,22.45 -33.81,40.28 -44.37,53.49 -8.98,10.56 -17.03,20.86 -24.16,30.9 -7.13,10.04 -13.6,19.02 -19.41,26.94 -6.34,9.51 -12.15,18.22 -17.43,26.15 12.15,-2.12 30.37,-9.91 54.67,-23.38 24.3,-13.47 53.88,-33.14 88.75,-59.03 35.39,-25.88 68.27,-52.03 98.65,-78.44 30.37,-26.41 59.03,-53.62 85.97,-81.61 60.22,-64.97 90.59,-114.36 91.12,-148.17zm-45.17 465.9c10.56,-10.56 18.62,-21.39 24.17,-32.49 5.55,-11.09 8.85,-21.26 9.9,-30.51 1.06,-9.24 0.13,-17.04 -2.77,-23.37 -2.91,-6.34 -7.53,-10.04 -13.87,-11.09 -11.09,-3.17 -21.13,0.26 -30.11,10.3 -8.98,10.04 -14,24.3 -15.06,42.79 -1.59,13.21 0.92,22.58 7.53,28.13 6.6,5.55 13.33,10.96 20.2,16.24zm15.85 8.71c8.45,2.64 17.43,3.44 26.94,2.38 9.51,-1.06 18.75,-3.04 27.73,-5.94 8.98,-2.91 17.43,-6.47 25.36,-10.69 7.92,-4.23 14.26,-8.45 19.01,-12.68 2.64,-2.11 5.94,-3.04 9.91,-2.77 3.96,0.26 6.21,1.19 6.74,2.77 1.59,6.34 0,11.23 -4.75,14.66 -4.76,3.43 -10.83,7 -18.23,10.7 -10.56,5.28 -25.09,9.64 -43.58,13.07 -18.48,3.43 -38.82,3.83 -61.01,1.19 -17.96,18.49 -36.18,32.22 -54.67,41.2 -18.49,8.98 -36.98,13.74 -55.47,14.27 -29.58,0 -44.37,-14.79 -44.37,-44.37 0,-13.74 4.62,-29.32 13.86,-46.75 9.24,-17.43 22.58,-37.77 40.02,-61.01 19.54,-26.41 36.05,-47.81 49.52,-64.18 13.47,-16.37 24.43,-31.96 32.88,-46.75 6.87,-11.62 13.07,-20.21 18.62,-25.75 5.54,-5.55 11.75,-10.43 18.62,-14.66 3.7,-0.53 7.92,-0.39 12.68,0.4 4.75,0.79 7.66,3.3 8.71,7.53 0,2.64 -0.13,4.75 -0.39,6.34 -0.26,1.59 -2.51,4.49 -6.74,8.71 -3.17,2.64 -7,6.21 -11.49,10.7 -4.49,4.49 -9.38,9.51 -14.66,15.05 -5.28,5.55 -10.3,11.09 -15.05,16.64 -4.75,5.55 -8.98,10.43 -12.68,14.66 -13.21,15.85 -25.75,31.3 -37.64,46.35 -11.88,15.05 -22.18,29.45 -30.9,43.18 -8.72,13.73 -15.59,26.28 -20.6,37.64 -5.02,11.36 -7.53,21 -7.53,28.92 0,10.04 3.96,18.49 11.89,25.36 8.45,6.87 17.7,10.3 27.73,10.3 21.13,0 41.99,-10.56 62.6,-31.69 -8.45,-5.81 -16.91,-13.07 -25.36,-21.79 -8.45,-8.72 -12.15,-20.73 -11.09,-36.05 0.53,-9.51 3.43,-19.01 8.71,-28.52 5.29,-9.51 11.89,-18.22 19.81,-26.15 7.92,-7.92 16.64,-14.26 26.14,-19.02 9.51,-4.75 18.75,-6.87 27.74,-6.34 11.62,0 19.01,7.26 22.18,21.79 3.17,14.53 2.12,30.77 -3.17,48.73 -2.64,7.92 -6.08,15.72 -10.3,23.37 -4.23,7.66 -8.45,14.39 -12.68,20.21 -4.76,6.87 -9.77,13.21 -15.06,19.01z"/>
  <path class="fil0" d="M1554.78 985.77c0,1.59 -0.26,3.17 -0.79,4.75 -0.53,1.59 -1.59,2.91 -3.17,3.96 -19.01,12.68 -36.84,23.37 -53.48,32.09 -16.64,8.72 -32.62,16.11 -47.94,22.19 -15.32,6.07 -30.11,11.49 -44.37,16.24 -14.26,4.76 -28.79,9.77 -43.58,15.06 -36.45,47.54 -97.73,104.32 -183.83,170.36 -117.27,89.27 -210.24,134.44 -278.91,135.49 -17.43,0 -31.96,-4.75 -43.58,-14.26 -12.15,-8.98 -18.22,-20.86 -18.22,-35.66 0,-62.86 68.67,-120.44 206.01,-172.74 29.05,-11.62 81.87,-29.05 158.47,-52.29 74.48,-22.19 118.06,-35.92 130.74,-41.2 3.7,-3.7 6.73,-8.72 9.11,-15.06 2.38,-6.34 3.7,-12.68 3.96,-19.01 0.27,-6.34 -0.92,-12.42 -3.56,-18.23 -2.64,-5.81 -7.13,-10.3 -13.47,-13.47 -4.23,1.06 -9.11,2.91 -14.66,5.55 -5.55,2.64 -10.96,4.89 -16.24,6.73 -5.28,1.85 -9.77,2.51 -13.47,1.98 -3.7,-0.53 -5.81,-3.7 -6.34,-9.51 0,-5.28 1.85,-9.24 5.55,-11.89 3.7,-2.64 8.32,-4.62 13.86,-5.94 5.55,-1.32 11.49,-1.98 17.83,-1.98 6.34,0 11.89,0.26 16.64,0.79 6.87,-2.12 14.66,-4.89 23.38,-8.32 8.71,-3.43 17.17,-7.53 25.35,-12.28 8.19,-4.75 15.71,-9.9 22.58,-15.45 6.87,-5.55 11.89,-11.49 15.06,-17.83 8.45,-15.32 9.24,-28 2.38,-38.03 -6.87,-10.04 -17.96,-15.06 -33.28,-15.06 -5.81,0 -12.02,1.45 -18.62,4.36 -6.6,2.9 -13.6,6.6 -21,11.09 -7.39,4.49 -14.92,9.51 -22.58,15.06 -7.66,5.55 -15.45,10.96 -23.37,16.24 -6.34,4.23 -13.6,9.24 -21.79,15.06 -8.19,5.81 -16.38,11.75 -24.57,17.83 -8.18,6.08 -15.98,12.02 -23.37,17.83 -7.39,5.81 -13.21,10.56 -17.43,14.26 -1.59,1.59 -2.91,2.64 -3.96,3.17 -2.64,1.06 -4.49,0 -5.55,-3.17 -1.58,-2.64 -1.32,-5.02 0.79,-7.13 1.06,-1.06 2.11,-1.85 3.17,-2.38 12.15,-9.51 27.2,-21.79 45.16,-36.85 17.96,-15.05 35.39,-28.13 52.3,-39.22 19.54,-13.21 38.56,-24.83 57.05,-34.86 18.49,-10.04 33.81,-16.11 45.96,-18.22 10.56,-2.12 20.34,-2.51 29.32,-1.19 8.98,1.32 16.37,5.41 22.19,12.28 4.75,6.34 7.66,13.07 8.71,20.21 1.06,7.13 0.53,14.26 -1.58,21.39 -2.12,7.13 -5.42,14.13 -9.91,21 -4.49,6.87 -9.64,12.94 -15.45,18.23 -5.28,4.75 -11.75,9.37 -19.41,13.86 -7.66,4.49 -15.45,8.85 -23.38,13.07 -7.92,4.23 -15.71,8.19 -23.37,11.89 -7.66,3.7 -14.13,7.13 -19.41,10.3 6.86,3.17 11.62,6.87 14.26,11.09 2.64,4.22 4.23,8.85 4.75,13.86 0.53,5.02 0.26,10.43 -0.79,16.24 -1.06,5.81 -2.11,12.15 -3.17,19.01 8.98,-3.17 18.75,-6.07 29.31,-8.71 10.56,-2.64 22.85,-6.47 36.84,-11.49 14,-5.02 29.72,-11.89 47.14,-20.6 17.43,-8.71 37.77,-20.2 61.01,-34.46 1.59,-0.53 3.17,-0.79 4.76,-0.79 2.11,0 3.44,1.59 3.96,4.76zm-236.12 106.97c-25.36,6.87 -50.32,13.74 -74.88,20.6 -24.56,6.87 -49.52,14.26 -74.88,22.19 -42.79,12.15 -80.95,24.43 -114.5,36.84 -33.55,12.42 -62.2,24.96 -85.97,37.64 -66.56,34.34 -100.37,70.25 -101.42,107.76 0,13.74 7.39,25.36 22.19,34.86 12.15,7.92 26.15,12.15 41.99,12.68 16.37,0 40.41,-6.34 72.1,-19.02 32.22,-13.21 62.07,-29.32 89.54,-48.33 108.82,-79.76 184.09,-148.17 225.82,-205.22zm593.47 -104.59c1.06,4.23 0,7.13 -3.17,8.71 -36.45,22.72 -71.45,42.13 -104.99,58.24 -33.54,16.11 -62.73,24.16 -87.55,24.16 -28.52,0 -43.58,-21.39 -45.17,-64.18 -4.75,2.64 -12.01,6.74 -21.79,12.28 -9.77,5.55 -20.07,11.22 -30.9,17.04 -10.83,5.81 -21.66,10.96 -32.49,15.45 -10.83,4.49 -19.68,7 -26.54,7.53 -10.04,1.06 -19.15,-0.26 -27.34,-3.96 -8.19,-3.7 -13.34,-11.36 -15.45,-22.98 0,-23.24 21.66,-51.77 64.97,-85.58 22.18,-16.37 43.32,-28.79 63.39,-37.24 20.07,-8.45 36.98,-12.68 50.71,-12.68 19.55,-0.53 29.58,4.23 30.11,14.26 0,9.51 -3.44,17.17 -10.3,22.98 -5.28,4.75 -11.89,7.13 -19.81,7.13 -0.53,-0.53 -1.06,-1.59 -1.58,-3.17 -0.53,-1.06 -1.06,-2.25 -1.59,-3.56 -0.53,-1.32 -1.32,-3.04 -2.38,-5.15 -3.17,-7.93 -9.51,-12.15 -19.02,-12.68 -20.6,0 -44.63,11.62 -72.1,34.87 -26.41,22.19 -39.61,42.26 -39.61,60.22 0,4.23 0.79,8.06 2.38,11.49 1.59,3.43 4.49,5.41 8.71,5.94 14.79,1.06 29.45,-1.32 43.98,-7.13 14.52,-5.81 29.98,-14.26 46.35,-25.36 6.87,-4.75 18.75,-16.37 35.66,-34.86 10.56,-12.68 19.81,-18.75 27.73,-18.22 6.34,0 9.51,2.64 9.51,7.92 0,4.75 -4.49,15.05 -13.47,30.9 -8.45,14.79 -12.68,25.62 -12.68,32.49 0,19.54 9.51,29.58 28.52,30.11 16.9,0 34.07,-2.64 51.5,-7.92 17.43,-5.29 33.81,-11.62 49.12,-19.02 15.32,-7.39 28.92,-14.66 40.81,-21.79 11.89,-7.13 20.47,-12.55 25.75,-16.24 1.59,-1.59 3.17,-2.77 4.76,-3.56 1.59,-0.79 2.91,0.4 3.96,3.56zm202.84 -111.72c-5.81,-4.23 -12.02,-6.34 -18.62,-6.34 -6.6,0 -13.07,1.71 -19.41,5.15 -6.34,3.43 -12.01,8.19 -17.03,14.26 -5.02,6.07 -8.59,12.81 -10.7,20.21 -3.17,11.62 -1.98,22.05 3.57,31.3 5.55,9.24 17.04,13.86 34.46,13.86 10.57,-6.34 18.75,-13.34 24.57,-20.99 5.81,-7.66 9.64,-15.19 11.49,-22.59 1.85,-7.39 1.98,-14.26 0.4,-20.6 -1.59,-6.34 -4.49,-11.09 -8.71,-14.26zm-146.59 183.83c-8.98,4.75 -18.09,8.19 -27.34,10.3 -9.24,2.12 -17.83,2.51 -25.75,1.19 -7.92,-1.32 -14.79,-4.49 -20.6,-9.51 -5.81,-5.02 -9.51,-12.28 -11.09,-21.79 -1.59,-8.45 -1.45,-17.04 0.39,-25.75 1.85,-8.72 6.74,-15.98 14.66,-21.79 8.45,-6.86 16.24,-9.77 23.37,-8.71 7.13,1.06 10.7,4.23 10.7,9.51 -1.59,4.75 -2.91,9.9 -3.96,15.45 -1.06,5.55 -1.32,10.83 -0.79,15.85 0.53,5.02 1.98,9.38 4.36,13.07 2.38,3.7 6.21,6.07 11.49,7.13 3.7,0.53 8.72,0.13 15.06,-1.19 6.34,-1.32 13.21,-4.1 20.6,-8.32 7.92,-4.23 16.37,-9.51 25.36,-15.85 8.98,-6.34 17.83,-12.68 26.54,-19.02 8.71,-6.34 16.9,-12.41 24.57,-18.22 7.66,-5.81 13.86,-10.3 18.62,-13.47 -13.73,2.12 -25.75,1.06 -36.05,-3.17 -10.3,-4.23 -16.77,-10.83 -19.41,-19.81 -3.17,-9.51 -3.04,-19.28 0.39,-29.32 3.43,-10.04 8.58,-19.01 15.45,-26.94 8.98,-8.98 19.42,-17.04 31.3,-24.17 11.89,-7.13 23.11,-11.23 33.67,-12.28 17.43,-2.11 29.84,-0.13 37.24,5.94 7.4,6.07 11.36,13.74 11.89,22.98 0.53,9.24 -1.45,18.88 -5.94,28.92 -4.49,10.04 -9.64,17.96 -15.45,23.77 1.59,0 4.09,-1.06 7.53,-3.17 3.44,-2.12 6.87,-4.09 10.3,-5.94 3.44,-1.85 6.6,-2.77 9.51,-2.77 2.91,0 4.62,2.38 5.15,7.13 0,6.34 -3.7,13.47 -11.09,21.39 -7.39,7.92 -16.9,17.43 -28.52,28.52 -11.09,10.04 -18.49,19.02 -22.19,26.94 -3.7,7.92 -5.81,15.06 -6.34,21.39 0,7.4 2.64,14.53 7.92,21.39 5.28,6.87 13.21,10.83 23.77,11.89 8.45,0.53 17.17,0.26 26.15,-0.79 8.98,-1.06 19.15,-3.96 30.51,-8.71 11.36,-4.75 24.69,-11.49 40.01,-20.2 15.32,-8.72 33.28,-20.21 53.88,-34.47 1.06,-1.06 2.64,-1.59 4.76,-1.59 1.06,0 2.38,1.32 3.96,3.96 0,4.75 -1.32,7.66 -3.96,8.71 -25.89,15.85 -47.81,28.66 -65.77,38.43 -17.96,9.77 -33.41,17.43 -46.35,22.98 -12.94,5.55 -24.17,9.24 -33.67,11.09 -9.51,1.85 -19.02,2.24 -28.52,1.19 -16.38,-1.06 -28.66,-5.55 -36.84,-13.47 -8.19,-7.92 -11.23,-18.48 -9.11,-31.69 0.53,-3.7 3.3,-8.85 8.32,-15.45 5.02,-6.6 10.7,-13.73 17.04,-21.39 6.34,-7.66 12.94,-15.59 19.81,-23.77 6.87,-8.18 12.68,-15.98 17.43,-23.37l-17.43 6.34c-3.17,2.11 -10.17,7.53 -21,16.24 -10.83,8.72 -22.98,18.49 -36.45,29.32 -13.47,10.83 -27.33,21.39 -41.59,31.69 -14.27,10.3 -26.41,18.09 -36.45,23.37zm814.54 -526.92c0,22.72 -24.83,62.86 -74.48,120.44 -90.33,105.65 -181.45,185.14 -273.36,238.5 -15.85,10.56 -33.55,20.86 -53.09,30.9 -19.54,10.04 -42.26,20.86 -68.14,32.49 -6.34,7.39 -12.42,14.79 -18.22,22.18 -4.76,6.34 -9.24,13.6 -13.47,21.79 -4.23,8.19 -6.87,15.98 -7.92,23.37 -1.06,9.51 0.4,16.9 4.36,22.19 3.96,5.28 9.77,8.32 17.43,9.11 7.66,0.79 16.64,-0.93 26.94,-5.15 10.3,-4.23 21.53,-11.36 33.67,-21.4 6.87,-4.75 16.51,-12.41 28.92,-22.98 12.42,-10.56 22.32,-23.24 29.71,-38.03 3.17,-6.34 5.94,-12.68 8.32,-19.01 2.38,-6.34 5.01,-12.02 7.92,-17.04 2.91,-5.02 6.08,-9.11 9.51,-12.28 3.43,-3.17 7.79,-4.76 13.07,-4.76 7.4,0 11.89,3.96 13.47,11.89 1.59,7.93 -2.11,16.38 -11.09,25.36 -5.28,5.28 -9.77,8.85 -13.47,10.7 -3.7,1.85 -6.61,4.36 -8.72,7.53 -2.11,2.64 -3.3,6.21 -3.56,10.7 -0.26,4.49 -0.4,10.43 -0.4,17.83 0,3.7 0.66,7.79 1.98,12.28 1.32,4.49 3.3,8.59 5.94,12.28 2.64,3.7 6.34,6.74 11.09,9.11 4.75,2.38 10.83,3.04 18.22,1.98 7.4,-0.53 20.6,-4.23 39.62,-11.09 19.02,-6.87 42,-21.39 68.94,-43.58l5.55 11.09c-6.34,4.75 -15.71,11.09 -28.13,19.01 -12.41,7.92 -23.9,14.79 -34.47,20.6 -18.48,10.04 -34.07,16.64 -46.75,19.81 -12.68,3.17 -23.51,3.43 -32.49,0.79 -12.15,-3.17 -19.54,-10.43 -22.19,-21.79 -2.64,-11.36 -3.17,-23.9 -1.58,-37.64 -3.17,5.28 -8.45,11.89 -15.85,19.81 -7.39,7.92 -15.58,15.85 -24.56,23.77 -8.98,7.92 -18.36,15.45 -28.13,22.58 -9.77,7.13 -18.62,12.28 -26.54,15.45 -12.15,5.28 -23.37,8.98 -33.67,11.09 -10.3,2.11 -20.21,0.26 -29.71,-5.55 -3.17,-2.11 -6.34,-4.75 -9.51,-7.92 -3.17,-3.17 -5.28,-7.53 -6.34,-13.07 -1.06,-5.55 -0.53,-12.42 1.59,-20.6 2.11,-8.19 6.6,-18.09 13.47,-29.72 14.26,-24.3 31.83,-50.84 52.69,-79.63 20.86,-28.79 43.45,-58.37 67.75,-88.74 24.3,-30.37 49.52,-60.88 75.67,-91.52 26.15,-30.64 51.64,-59.95 76.46,-87.95 49.13,-55.47 90.85,-96.01 125.19,-121.63 34.34,-25.62 60.48,-39.75 78.45,-42.39 20.07,-2.64 33.41,0 40.01,7.92 6.6,7.92 9.91,18.22 9.91,30.9zm-35.66 8.72c0,-15.32 -8.71,-22.98 -26.15,-22.98 -21.66,0 -54.15,19.54 -97.46,58.63 -24.83,25.89 -64.71,70.52 -119.65,133.91 -28,33.28 -51.5,61.15 -70.52,83.6 -19.02,22.45 -33.81,40.28 -44.37,53.48 -8.98,10.56 -17.04,20.86 -24.17,30.9 -7.13,10.04 -13.6,19.02 -19.41,26.94 -6.34,9.51 -12.15,18.22 -17.43,26.15 12.15,-2.11 30.37,-9.91 54.67,-23.37 24.3,-13.47 53.88,-33.15 88.75,-59.03 35.39,-25.88 68.27,-52.03 98.65,-78.45 30.37,-26.41 59.03,-53.61 85.97,-81.61 60.22,-64.97 90.59,-114.36 91.12,-148.17zm244.84 443.72c0.53,2.64 -0.79,5.55 -3.96,8.71 -22.19,17.96 -42.92,31.83 -62.2,41.6 -19.28,9.77 -37.9,17.03 -55.86,21.79 -17.96,4.75 -35.13,7.66 -51.5,8.71 -16.37,1.06 -32.49,1.59 -48.33,1.59 -8.98,0 -20.73,-1.45 -35.26,-4.36 -14.53,-2.91 -31.83,-7.79 -51.9,-14.66 -20.07,-6.87 -35.52,-11.76 -46.35,-14.66 -10.83,-2.91 -17.83,-4.62 -21,-5.15 -20.6,0 -47.54,11.36 -80.82,34.07 -10.04,7.4 -19.94,14.53 -29.72,21.4 -9.77,6.86 -19.94,14 -30.51,21.39l-15.05 -2.38c8.45,-10.04 16.51,-18.89 24.17,-26.54 7.66,-7.66 16.64,-17.17 26.94,-28.52 10.3,-11.36 22.71,-25.75 37.24,-43.18 14.53,-17.43 33.41,-40.94 56.65,-70.52 7.92,-10.57 13.87,-19.15 17.83,-25.75 3.97,-6.6 6.87,-12.02 8.72,-16.24 1.85,-4.23 3.17,-8.19 3.96,-11.89 0.79,-3.7 1.98,-7.92 3.57,-12.68 4.22,-14.79 10.56,-26.54 19.01,-35.26 8.45,-8.72 16.37,-14.92 23.77,-18.62 5.81,-2.64 11.75,-2.91 17.83,-0.79 6.08,2.11 8.85,7.66 8.32,16.64 -4.76,8.45 -11.75,19.02 -21,31.69 -9.24,12.68 -19.68,26.15 -31.3,40.41 -11.62,14.26 -23.37,28.4 -35.26,42.39 -11.88,14 -22.84,26.81 -32.88,38.43 -10.04,11.62 -18.36,21.13 -24.96,28.52 -6.6,7.39 -10.16,11.36 -10.69,11.88 17.96,-9.51 36.18,-19.28 54.67,-29.31 18.49,-10.04 37.24,-20.34 56.26,-30.9 35.4,-18.49 66.43,-32.09 93.1,-40.81 26.68,-8.71 49.26,-13.33 67.74,-13.86 17.96,0 27.74,6.87 29.32,20.6 0,11.62 -5.54,17.43 -16.64,17.43 -6.34,0 -13.6,-0.79 -21.79,-2.38 -8.19,-1.59 -15.19,-2.91 -21,-3.96 -32.75,0 -66.03,7.66 -99.84,22.98 -10.56,5.81 -19.81,11.09 -27.73,15.85 -7.92,4.76 -14.53,9.77 -19.81,15.06 36.45,14.79 67.88,25.09 94.29,30.9 26.41,5.81 48.07,10.04 64.97,12.68 6.34,1.06 14.53,2.11 24.56,3.17 10.04,1.06 22.45,0.39 37.24,-1.98 14.79,-2.38 31.69,-7.66 50.71,-15.85 19.02,-8.19 40.94,-21.26 65.77,-39.22 1.59,-1.06 3.3,-1.72 5.15,-1.98 1.85,-0.27 3.04,0.92 3.56,3.56zm221.07 -42.79c0,4.76 -17.17,24.83 -51.5,60.22 -31.69,31.7 -57.97,58.11 -78.84,79.24 -20.86,21.13 -36.84,37.51 -47.94,49.13 -31.17,32.22 -60.48,64.45 -87.95,96.67 -27.47,32.22 -53.88,64.45 -79.24,96.67 -10.56,14.27 -18.36,26.41 -23.37,36.45 -5.02,10.04 -8.06,17.69 -9.11,22.98 0,1.59 0.26,3.3 0.79,5.15 0.53,1.85 1.06,4.36 1.59,7.53 0.53,3.17 0.79,5.94 0.79,8.32 0,2.38 0,4.09 0,5.15 -6.34,16.91 -18.75,25.88 -37.24,26.94 -1.06,-6.34 -1.85,-11.75 -2.38,-16.24 -0.53,-4.49 -1.06,-8.85 -1.59,-13.07 0,-25.35 14.79,-53.88 44.37,-85.58l263.85 -291.58c-44.9,29.05 -79.76,43.58 -104.59,43.58 -24.83,0 -37.24,-12.94 -37.24,-38.82 0,-20.6 8.45,-44.9 25.36,-72.9 16.9,-23.24 30.9,-37.5 41.99,-42.79 8.45,-0.53 13.2,2.11 14.26,7.92 0,-1.06 -9.24,9.25 -27.73,30.9 -17.43,21.13 -26.94,41.99 -28.52,62.59 0,16.38 14,25.09 41.99,26.15 21.13,0 53.88,-18.23 98.25,-54.67 43.85,-35.92 68.93,-54.15 75.27,-54.67 5.28,0 8.19,1.59 8.71,4.75z"/>
 </g>
</svg>
